SplineFontDB: 3.0
FontName: Dhyana-Bold
FullName: Dhyana Bold
FamilyName: Dhyana
Weight: Bold
Copyright: Copyright (c) 2010-12, Vernon Adams (vern@newtypography.co.uk), with Reserved Font Names "Nobile" and "Dhyana"
Version: 1.002
ItalicAngle: 0
UnderlinePosition: -188
UnderlineWidth: 48
Ascent: 1638
Descent: 410
sfntRevision: 0x00010000
LayerCount: 2
Layer: 0 1 "Back"  1
Layer: 1 1 "Fore"  0
NeedsXUIDChange: 1
XUID: [1021 14 500265001 8894043]
FSType: 0
OS2Version: 2
OS2_WeightWidthSlopeOnly: 0
OS2_UseTypoMetrics: 1
CreationTime: 1283209859
ModificationTime: 1335946342
PfmFamily: 17
TTFWeight: 700
TTFWidth: 5
LineGap: 0
VLineGap: 0
Panose: 2 0 8 3 5 0 0 2 0 4
OS2TypoAscent: 899
OS2TypoAOffset: 1
OS2TypoDescent: -356
OS2TypoDOffset: 1
OS2TypoLinegap: 0
OS2WinAscent: 19
OS2WinAOffset: 1
OS2WinDescent: 56
OS2WinDOffset: 1
HheadAscent: 19
HheadAOffset: 1
HheadDescent: -56
HheadDOffset: 1
OS2SubXSize: 1331
OS2SubYSize: 1433
OS2SubXOff: 0
OS2SubYOff: 286
OS2SupXSize: 1331
OS2SupYSize: 1433
OS2SupXOff: 0
OS2SupYOff: 983
OS2StrikeYSize: 102
OS2StrikeYPos: 512
OS2Vendor: 'PfEd'
OS2CodePages: 00000001.00000000
OS2UnicodeRanges: 8200006f.1000200a.00000000.00000000
Lookup: 1 0 0 "'liga' Standard Ligatures lookup 0"  {"'liga' Standard Ligatures lookup 0 subtable"  } ['liga' ('lao ' <'dflt' > 'latn' <'dflt' > ) ]
Lookup: 4 0 1 "'liga' Standard Ligatures lookup 1"  {"'liga' Standard Ligatures lookup 1 subtable"  } ['liga' ('lao ' <'dflt' > 'latn' <'dflt' > ) ]
Lookup: 2 0 0 "'ccmp' Glyph Composition/Decomposition in Lao lookup 2"  {"'ccmp' Glyph Composition/Decomposition in Lao lookup 2 subtable"  } ['ccmp' ('lao ' <'dflt' > ) ]
Lookup: 258 0 0 "'kern' Horizontal Kerning in Latin lookup 0"  {"'kern' Horizontal Kerning in Latin lookup 0 subtable"  } ['kern' ('latn' <'dflt' > ) ]
MarkAttachClasses: 1
DEI: 91125
TtTable: prep
PUSHW_1
 511
SCANCTRL
PUSHB_1
 1
SCANTYPE
SVTCA[y-axis]
MPPEM
PUSHB_1
 8
LT
IF
PUSHB_2
 1
 1
INSTCTRL
EIF
PUSHB_2
 70
 6
CALL
IF
POP
PUSHB_1
 16
EIF
MPPEM

StartChar: .notdef
Encoding: 65536 -1 0
Width: 761
Flags: HW
LayerCount: 2
Fore
SplineSet
554 69 m 1,0,-1
 554 1320 l 1,1,-1
 138 1320 l 1,2,-1
 138 69 l 1,3,-1
 554 69 l 1,0,-1
69 1390 m 1,4,-1
 623 1390 l 1,5,-1
 623 0 l 1,6,-1
 69 0 l 1,7,-1
 69 1390 l 1,4,-1
EndSplineSet
EndChar

StartChar: exclam
Encoding: 33 33 6
Width: 768
GlyphClass: 2
Flags: HW
LayerCount: 2
Fore
SplineSet
409 313 m 0,0,1
 560 313 560 313 560 153 c 128,-1,2
 560 -7 560 -7 409 -7 c 0,3,4
 333 -7 333 -7 276 26 c 1,5,6
 243 84 243 84 243 161 c 0,7,8
 243 313 243 313 409 313 c 0,0,1
491 464 m 1,9,-1
 297 464 l 1,10,-1
 228 1607 l 1,11,-1
 557 1607 l 1,12,-1
 491 464 l 1,9,-1
EndSplineSet
EndChar

StartChar: quotedbl
Encoding: 34 34 7
Width: 897
GlyphClass: 2
Flags: HW
LayerCount: 2
Fore
SplineSet
874 1607 m 1,0,1
 855 1441 855 1441 820.5 1218.5 c 128,-1,2
 786 996 786 996 775 920 c 1,3,-1
 597 920 l 1,4,-1
 531 1483 l 1,5,-1
 520 1607 l 1,6,-1
 874 1607 l 1,0,1
416 1607 m 1,7,8
 397 1441 397 1441 362.5 1218.5 c 128,-1,9
 328 996 328 996 317 920 c 1,10,-1
 139 920 l 1,11,-1
 71 1498 l 1,12,-1
 62 1607 l 1,13,-1
 416 1607 l 1,7,8
EndSplineSet
EndChar

StartChar: numbersign
Encoding: 35 35 8
Width: 1278
GlyphClass: 2
Flags: HW
LayerCount: 2
Fore
SplineSet
749 633 m 1,0,-1
 778 874 l 1,1,-1
 584 874 l 1,2,-1
 553 633 l 1,3,-1
 749 633 l 1,0,-1
537 490 m 1,4,-1
 484 118 l 1,5,-1
 287 118 l 1,6,-1
 340 490 l 1,7,-1
 174 490 l 1,8,-1
 174 633 l 1,9,-1
 354 633 l 1,10,-1
 384 874 l 1,11,-1
 185 874 l 1,12,-1
 185 1019 l 1,13,-1
 403 1019 l 1,14,-1
 452 1395 l 1,15,-1
 646 1395 l 1,16,-1
 599 1019 l 1,17,-1
 801 1019 l 1,18,-1
 845 1395 l 1,19,-1
 1043 1395 l 1,20,-1
 996 1019 l 1,21,-1
 1155 1019 l 1,22,-1
 1155 874 l 1,23,-1
 979 874 l 1,24,-1
 948 633 l 1,25,-1
 1146 633 l 1,26,-1
 1146 490 l 1,27,-1
 931 490 l 1,28,-1
 881 118 l 1,29,-1
 684 118 l 1,30,-1
 736 490 l 1,31,-1
 537 490 l 1,4,-1
EndSplineSet
EndChar

StartChar: dollar
Encoding: 36 36 9
Width: 1306
GlyphClass: 2
Flags: HW
LayerCount: 2
Fore
SplineSet
713 209 m 1,0,1
 798 219 798 219 853 269 c 128,-1,2
 908 319 908 319 908 402 c 128,-1,3
 908 485 908 485 861 527 c 0,4,5
 818 566 818 566 782 581 c 128,-1,6
 746 596 746 596 713 609 c 1,7,-1
 713 209 l 1,0,1
604 1256 m 1,8,9
 491 1254 491 1254 431.5 1219 c 128,-1,10
 372 1184 372 1184 372 1096 c 0,11,12
 372 1047 372 1047 395.5 1024 c 128,-1,13
 419 1001 419 1001 432.5 990 c 128,-1,14
 446 979 446 979 474 967.5 c 128,-1,15
 502 956 502 956 516 950.5 c 128,-1,16
 530 945 530 945 562.5 934.5 c 128,-1,17
 595 924 595 924 604 921 c 1,18,-1
 604 1256 l 1,8,9
108.5 1011 m 128,-1,20
 100 1050 100 1050 100 1115 c 128,-1,21
 100 1180 100 1180 125 1247 c 128,-1,22
 150 1314 150 1314 193.5 1357.5 c 128,-1,23
 237 1401 237 1401 302 1429 c 0,24,25
 415 1478 415 1478 604 1484 c 1,26,-1
 604 1614 l 1,27,-1
 713 1614 l 1,28,-1
 713 1479 l 1,29,30
 974 1463 974 1463 1118 1384 c 1,31,-1
 1050 1175 l 1,32,33
 997 1194 997 1194 894.5 1223.5 c 128,-1,34
 792 1253 792 1253 713 1253 c 1,35,-1
 713 884 l 1,36,37
 894 817 894 817 969 774 c 0,38,39
 1183 652 1183 652 1183 434.5 c 128,-1,40
 1183 217 1183 217 1058.5 102.5 c 128,-1,41
 934 -12 934 -12 713 -28 c 1,42,-1
 713 -162 l 1,43,-1
 604 -162 l 1,44,-1
 604 -30 l 1,45,46
 475 -30 475 -30 382 0 c 0,47,48
 258 40 258 40 147 86 c 1,49,-1
 207 307 l 1,50,51
 448 200 448 200 604 200 c 1,52,-1
 604 648 l 1,53,54
 582 656 582 656 535.5 672.5 c 128,-1,55
 489 689 489 689 464 698 c 128,-1,56
 439 707 439 707 396 724.5 c 128,-1,57
 353 742 353 742 328 755.5 c 128,-1,58
 303 769 303 769 267.5 790.5 c 128,-1,59
 232 812 232 812 211.5 832.5 c 128,-1,60
 191 853 191 853 167 882 c 128,-1,61
 143 911 143 911 130 941.5 c 128,-1,19
 117 972 117 972 108.5 1011 c 128,-1,20
EndSplineSet
EndChar

StartChar: percent
Encoding: 37 37 10
Width: 1724
GlyphClass: 2
Flags: HW
LayerCount: 2
Fore
SplineSet
1223 572.5 m 128,-1,1
 1216 524 1216 524 1216 465 c 128,-1,2
 1216 406 1216 406 1219.5 367.5 c 128,-1,3
 1223 329 1223 329 1234.5 291 c 128,-1,4
 1246 253 1246 253 1264.5 228.5 c 128,-1,5
 1283 204 1283 204 1315 189 c 128,-1,6
 1347 174 1347 174 1390 174 c 128,-1,7
 1433 174 1433 174 1465 189 c 128,-1,8
 1497 204 1497 204 1516 228.5 c 128,-1,9
 1535 253 1535 253 1546 291 c 0,10,11
 1565 357 1565 357 1565 440 c 128,-1,12
 1565 523 1565 523 1557.5 572 c 128,-1,13
 1550 621 1550 621 1532 663 c 128,-1,14
 1514 705 1514 705 1478.5 727 c 128,-1,15
 1443 749 1443 749 1390 749 c 128,-1,16
 1337 749 1337 749 1301.5 727.5 c 128,-1,17
 1266 706 1266 706 1248 663.5 c 128,-1,0
 1230 621 1230 621 1223 572.5 c 128,-1,1
1754 451 m 0,18,19
 1754 261 1754 261 1666 140 c 0,20,21
 1573 12 1573 12 1393 12 c 0,22,23
 1273 12 1273 12 1190 72 c 0,24,25
 1032 185 1032 185 1032 451 c 0,26,27
 1032 669 1032 669 1120 792.5 c 128,-1,28
 1208 916 1208 916 1393 916 c 0,29,30
 1754 916 1754 916 1754 451 c 0,18,19
220 1185.5 m 128,-1,32
 213 1137 213 1137 213 1078 c 128,-1,33
 213 1019 213 1019 216.5 981 c 128,-1,34
 220 943 220 943 231.5 905 c 128,-1,35
 243 867 243 867 261.5 842.5 c 128,-1,36
 280 818 280 818 312 803 c 128,-1,37
 344 788 344 788 387 788 c 128,-1,38
 430 788 430 788 462 803 c 128,-1,39
 494 818 494 818 513 842.5 c 128,-1,40
 532 867 532 867 543 905 c 0,41,42
 562 971 562 971 562 1053.5 c 128,-1,43
 562 1136 562 1136 554.5 1185 c 128,-1,44
 547 1234 547 1234 529 1276 c 128,-1,45
 511 1318 511 1318 475.5 1340 c 128,-1,46
 440 1362 440 1362 387 1362 c 128,-1,47
 334 1362 334 1362 298.5 1340 c 128,-1,48
 263 1318 263 1318 245 1276 c 128,-1,31
 227 1234 227 1234 220 1185.5 c 128,-1,32
391 625 m 1,49,50
 126 626 126 626 51 892 c 0,51,52
 29 970 29 970 29 1064 c 0,53,54
 29 1282 29 1282 117 1406 c 128,-1,55
 205 1530 205 1530 391.5 1530 c 128,-1,56
 578 1530 578 1530 665 1407 c 128,-1,57
 752 1284 752 1284 752 1079 c 128,-1,58
 752 874 752 874 662 749.5 c 128,-1,59
 572 625 572 625 391 625 c 1,49,50
1136 1527 m 1,60,-1
 1308 1437 l 1,61,-1
 609 -33 l 1,62,-1
 436 49 l 1,63,-1
 1136 1527 l 1,60,-1
EndSplineSet
EndChar

StartChar: ampersand
Encoding: 38 38 11
Width: 1740
GlyphClass: 2
Flags: HW
LayerCount: 2
Fore
SplineSet
675 728 m 1,0,1
 555 699 555 699 485.5 635 c 128,-1,2
 416 571 416 571 416 451 c 0,3,4
 416 180 416 180 780 180 c 0,5,6
 1114 180 1114 180 1186 302 c 1,7,-1
 675 728 l 1,0,1
1276 753 m 1,8,-1
 1275 875 l 1,9,-1
 1518 875 l 1,10,11
 1518 626 1518 626 1480 400 c 1,12,-1
 1467 332 l 1,13,-1
 1721 118 l 1,14,-1
 1596 -36 l 1,15,-1
 1364 159 l 1,16,17
 1223 -40 1223 -40 780 -40 c 0,18,19
 296 -40 296 -40 182 245 c 0,20,21
 150 325 150 325 150 415 c 128,-1,22
 150 505 150 505 169 570 c 128,-1,23
 188 635 188 635 219 682 c 128,-1,24
 250 729 250 729 298 768 c 0,25,26
 378 834 378 834 507 883 c 1,27,28
 423 935 423 935 359 1028 c 128,-1,29
 295 1121 295 1121 295 1218 c 128,-1,30
 295 1315 295 1315 331.5 1382.5 c 128,-1,31
 368 1450 368 1450 432 1491 c 0,32,33
 561 1574 561 1574 749 1574 c 0,34,35
 1012 1574 1012 1574 1130 1424 c 0,36,37
 1192 1346 1192 1346 1192 1233 c 0,38,39
 1192 932 1192 932 873 823 c 1,40,-1
 1270 495 l 1,41,42
 1276 589 1276 589 1276 753 c 1,8,-1
710 982 m 1,43,44
 848 1021 848 1021 908 1078 c 0,45,46
 966 1132 966 1132 966 1214.5 c 128,-1,47
 966 1297 966 1297 909.5 1339 c 128,-1,48
 853 1381 853 1381 755 1381 c 0,49,50
 546 1381 546 1381 546 1214 c 0,51,52
 546 1140 546 1140 595.5 1079 c 128,-1,53
 645 1018 645 1018 710 982 c 1,43,44
EndSplineSet
EndChar

StartChar: quotesingle
Encoding: 39 39 12
Width: 625
GlyphClass: 2
Flags: HW
LayerCount: 2
Fore
SplineSet
489 1607 m 1,0,1
 474 1469 474 1469 436 1218.5 c 128,-1,2
 398 968 398 968 391 920 c 1,3,-1
 212 920 l 1,4,-1
 144 1498 l 1,5,-1
 136 1607 l 1,6,-1
 489 1607 l 1,0,1
EndSplineSet
EndChar

StartChar: parenleft
Encoding: 40 40 13
Width: 859
GlyphClass: 2
Flags: HW
LayerCount: 2
Fore
SplineSet
641 -270 m 1,0,1
 440 -124 440 -124 321.5 125 c 128,-1,2
 203 374 203 374 203 698 c 0,3,4
 203 1022 203 1022 319 1275 c 128,-1,5
 435 1528 435 1528 634 1675 c 1,6,-1
 777 1504 l 1,7,8
 637 1373 637 1373 555.5 1163.5 c 128,-1,9
 474 954 474 954 474 698 c 0,10,11
 474 442 474 442 553.5 235.5 c 128,-1,12
 633 29 633 29 773 -97 c 1,13,-1
 641 -270 l 1,0,1
EndSplineSet
EndChar

StartChar: parenright
Encoding: 41 41 14
Width: 857
GlyphClass: 2
Flags: HW
LayerCount: 2
Fore
SplineSet
231 1677 m 1,0,1
 433 1528 433 1528 551.5 1281.5 c 128,-1,2
 670 1035 670 1035 670 709 c 0,3,4
 670 383 670 383 553 132 c 128,-1,5
 436 -119 436 -119 233 -270 c 1,6,-1
 95 -98 l 1,7,8
 235 29 235 29 316.5 240 c 128,-1,9
 398 451 398 451 398 707 c 128,-1,10
 398 963 398 963 318 1168.5 c 128,-1,11
 238 1374 238 1374 99 1504 c 1,12,-1
 231 1677 l 1,0,1
EndSplineSet
EndChar

StartChar: asterisk
Encoding: 42 42 15
Width: 998
GlyphClass: 2
Flags: HW
LayerCount: 2
Fore
SplineSet
617 1640 m 1,0,-1
 778 1546 l 1,1,-1
 631 1291 l 1,2,-1
 911 1291 l 1,3,-1
 911 1134 l 1,4,-1
 634 1134 l 1,5,-1
 785 883 l 1,6,-1
 622 787 l 1,7,-1
 483 1033 l 1,8,-1
 344 788 l 1,9,-1
 182 883 l 1,10,-1
 333 1134 l 1,11,-1
 44 1134 l 1,12,-1
 44 1291 l 1,13,-1
 336 1291 l 1,14,-1
 188 1548 l 1,15,-1
 349 1639 l 1,16,-1
 481 1392 l 1,17,-1
 617 1640 l 1,0,-1
EndSplineSet
EndChar

StartChar: plus
Encoding: 43 43 16
Width: 1074
GlyphClass: 2
Flags: HW
LayerCount: 2
Fore
SplineSet
668 485 m 1,0,-1
 668 130 l 1,1,-1
 434 130 l 1,2,-1
 434 485 l 1,3,-1
 137 485 l 1,4,-1
 137 705 l 1,5,-1
 434 705 l 1,6,-1
 434 1059 l 1,7,-1
 668 1059 l 1,8,-1
 668 705 l 1,9,-1
 966 705 l 1,10,-1
 966 485 l 1,11,-1
 668 485 l 1,0,-1
EndSplineSet
EndChar

StartChar: comma
Encoding: 44 44 17
Width: 661
GlyphClass: 2
Flags: HW
LayerCount: 2
Fore
SplineSet
154 373 m 1,0,-1
 516 373 l 1,1,-1
 516 51 l 2,2,3
 516 -165 516 -165 302 -257 c 0,4,5
 260 -275 260 -275 206 -291 c 1,6,-1
 155 -183 l 1,7,8
 278 -140 278 -140 304 -72 c 0,9,10
 316 -42 316 -42 316 0 c 1,11,-1
 154 0 l 1,12,-1
 154 373 l 1,0,-1
EndSplineSet
EndChar

StartChar: hyphen
Encoding: 45 45 18
Width: 1078
GlyphClass: 2
Flags: HW
LayerCount: 2
Fore
SplineSet
159 558 m 1,0,-1
 159 783 l 1,1,-1
 920 783 l 1,2,-1
 920 558 l 1,3,-1
 159 558 l 1,0,-1
EndSplineSet
EndChar

StartChar: period
Encoding: 46 46 19
Width: 714
GlyphClass: 2
Flags: HW
LayerCount: 2
Fore
SplineSet
176 373 m 1,0,-1
 539 373 l 1,1,-1
 539 0 l 1,2,-1
 176 0 l 1,3,-1
 176 373 l 1,0,-1
EndSplineSet
EndChar

StartChar: slash
Encoding: 47 47 20
Width: 982
GlyphClass: 2
Flags: HW
LayerCount: 2
Fore
SplineSet
733 1723 m 1,0,-1
 974 1643 l 1,1,-1
 368 -162 l 1,2,-1
 130 -84 l 1,3,-1
 733 1723 l 1,0,-1
EndSplineSet
EndChar

StartChar: zero
Encoding: 48 48 21
Width: 1443
GlyphClass: 2
Flags: HW
LayerCount: 2
Fore
SplineSet
719 189 m 0,0,1
 1035 189 1035 189 1035 609 c 0,2,3
 1035 898 1035 898 865 982 c 0,4,5
 803 1012 803 1012 719 1012 c 128,-1,6
 635 1012 635 1012 574 981 c 0,7,8
 514 950 514 950 478 893 c 0,9,10
 410 783 410 783 409 603 c 0,11,12
 409 189 409 189 719 189 c 0,0,1
131 602 m 128,-1,14
 131 895 131 895 282 1062 c 128,-1,15
 433 1229 433 1229 718 1229 c 128,-1,16
 1003 1229 1003 1229 1156.5 1061 c 128,-1,17
 1310 893 1310 893 1310 600.5 c 128,-1,18
 1310 308 1310 308 1156.5 139.5 c 128,-1,19
 1003 -29 1003 -29 719 -29 c 128,-1,20
 435 -29 435 -29 283 140 c 128,-1,13
 131 309 131 309 131 602 c 128,-1,14
EndSplineSet
EndChar

StartChar: one
Encoding: 49 49 22
Width: 861
GlyphClass: 2
Flags: HW
LayerCount: 2
Fore
SplineSet
346 974 m 1,0,-1
 167 893 l 1,1,-1
 87 1090 l 1,2,3
 265 1166 265 1166 321 1188 c 1,4,-1
 424 1204 l 1,5,-1
 636 1204 l 1,6,-1
 636 0 l 1,7,-1
 346 0 l 1,8,-1
 346 974 l 1,0,-1
EndSplineSet
EndChar

StartChar: two
Encoding: 50 50 23
Width: 1167
GlyphClass: 2
Flags: HW
LayerCount: 2
Fore
SplineSet
159 1101 m 1,0,1
 357 1215 357 1215 575 1215 c 0,2,3
 852 1216 852 1216 968 1058 c 0,4,5
 1030 974 1030 974 1029 853 c 0,6,7
 1029 682 1029 682 912 552 c 0,8,9
 856 490 856 490 805 447.5 c 128,-1,10
 754 405 754 405 750 401.5 c 128,-1,11
 746 398 746 398 742 395 c 2,12,-1
 541 226 l 1,13,-1
 1009 226 l 1,14,-1
 1009 0 l 1,15,-1
 153 0 l 1,16,-1
 153 193 l 1,17,-1
 578 548 l 2,18,19
 693 644 693 644 721 692 c 0,20,21
 758 755 758 755 758 824 c 0,22,23
 758 998 758 998 552 998 c 0,24,25
 415 998 415 998 237 907 c 1,26,-1
 159 1101 l 1,0,1
EndSplineSet
EndChar

StartChar: three
Encoding: 51 51 24
Width: 1183
GlyphClass: 2
Flags: HW
LayerCount: 2
Fore
SplineSet
756 221 m 0,0,1
 756 431 756 431 438 451 c 1,2,-1
 438 660 l 1,3,4
 646 660 646 660 708 758 c 0,5,6
 732 796 732 796 733 850 c 0,7,8
 733 1006 733 1006 515 1006 c 0,9,10
 431 1006 431 1006 339 973.5 c 128,-1,11
 247 941 247 941 220 934 c 1,12,-1
 132 1130 l 1,13,14
 324 1225 324 1225 502 1225 c 0,15,16
 716 1224 716 1224 848 1142 c 0,17,18
 990 1053 990 1053 990 852 c 0,19,20
 990 735 990 735 922.5 654 c 128,-1,21
 855 573 855 573 751 556 c 1,22,23
 871 526 871 526 949.5 437.5 c 128,-1,24
 1028 349 1028 349 1028 230.5 c 128,-1,25
 1028 112 1028 112 989 33.5 c 0,26,27
 950 -44 950 -44 880 -92 c 0,28,29
 739 -187 739 -187 514.5 -187.5 c 128,-1,30
 290 -188 290 -188 128 -107 c 1,31,-1
 201 101 l 1,32,33
 349 27 349 27 491.5 27 c 128,-1,34
 634 27 634 27 695 72 c 128,-1,35
 756 117 756 117 756 221 c 0,0,1
EndSplineSet
EndChar

StartChar: four
Encoding: 52 52 25
Width: 1271
GlyphClass: 2
Flags: HW
LayerCount: 2
Fore
SplineSet
733 276 m 1,0,-1
 733 825 l 1,1,-1
 363 276 l 1,2,-1
 733 276 l 1,0,-1
979 1179 m 1,3,-1
 979 279 l 1,4,-1
 1164 279 l 1,5,-1
 1164 64 l 1,6,-1
 979 64 l 1,7,-1
 979 -238 l 1,8,-1
 733 -238 l 1,9,-1
 733 64 l 1,10,-1
 120 64 l 1,11,-1
 83 243 l 1,12,-1
 758 1236 l 1,13,-1
 979 1179 l 1,3,-1
EndSplineSet
EndChar

StartChar: five
Encoding: 53 53 26
Width: 1168
GlyphClass: 2
Flags: HW
LayerCount: 2
Fore
SplineSet
929 613 m 128,-1,1
 1053 489 1053 489 1053 269.5 c 128,-1,2
 1053 50 1053 50 914 -73 c 128,-1,3
 775 -196 775 -196 556.5 -196 c 128,-1,4
 338 -196 338 -196 136 -102 c 1,5,-1
 182 112 l 1,6,7
 349 31 349 31 534 31 c 0,8,9
 800 31 800 31 800 270 c 0,10,11
 800 532 800 532 557 532 c 0,12,13
 438 532 438 532 295 446 c 1,14,-1
 169 554 l 1,15,-1
 169 1190 l 1,16,-1
 966 1190 l 1,17,-1
 966 978 l 1,18,-1
 401 978 l 1,19,-1
 401 681 l 1,20,21
 478 737 478 737 585 737 c 0,22,0
 805 737 805 737 929 613 c 128,-1,1
EndSplineSet
EndChar

StartChar: six
Encoding: 54 54 27
Width: 1258
GlyphClass: 2
Flags: HW
LayerCount: 2
Fore
SplineSet
677 857 m 0,0,1
 895 857 895 857 1030.5 723.5 c 128,-1,2
 1166 590 1166 590 1166 366.5 c 128,-1,3
 1166 143 1166 143 1028 9.5 c 128,-1,4
 890 -124 890 -124 644.5 -124 c 128,-1,5
 399 -124 399 -124 256 32 c 128,-1,6
 113 188 113 188 113 452 c 0,7,8
 114 898 114 898 426 1151 c 0,9,10
 609 1299 609 1299 877 1367 c 1,11,-1
 944 1146 l 1,12,13
 707 1096 707 1096 570 966 c 0,14,15
 496 896 496 896 457 804 c 1,16,17
 572 857 572 857 677 857 c 0,0,1
841 177.5 m 128,-1,19
 901 262 901 262 901 390 c 0,20,21
 901 646 901 646 673 647 c 0,22,23
 501 647 501 647 388 534 c 1,24,25
 386 505 386 505 386 443 c 0,26,27
 391 93 391 93 655 93 c 0,28,18
 781 93 781 93 841 177.5 c 128,-1,19
EndSplineSet
EndChar

StartChar: seven
Encoding: 55 55 28
Width: 1149
GlyphClass: 2
Flags: HW
LayerCount: 2
Fore
SplineSet
1089 1054 m 1,0,-1
 497 -216 l 1,1,-1
 246 -104 l 1,2,-1
 758 992 l 1,3,-1
 138 992 l 1,4,-1
 138 1214 l 1,5,-1
 1015 1214 l 1,6,-1
 1089 1054 l 1,0,-1
EndSplineSet
EndChar

StartChar: eight
Encoding: 56 56 29
Width: 1312
GlyphClass: 2
Flags: HW
LayerCount: 2
Fore
SplineSet
492 798.5 m 128,-1,1
 554 743 554 743 658 743 c 128,-1,2
 762 743 762 743 822 799 c 128,-1,3
 882 855 882 855 882 956 c 0,4,5
 882 1140 882 1140 656 1140 c 128,-1,6
 430 1140 430 1140 430 956 c 0,7,0
 430 854 430 854 492 798.5 c 128,-1,1
477.5 128 m 128,-1,9
 536 81 536 81 657 81 c 128,-1,10
 778 81 778 81 835 127.5 c 128,-1,11
 892 174 892 174 892 288 c 128,-1,12
 892 402 892 402 831 473.5 c 128,-1,13
 770 545 770 545 658 545 c 128,-1,14
 546 545 546 545 482.5 474 c 128,-1,15
 419 403 419 403 419 289 c 128,-1,8
 419 175 419 175 477.5 128 c 128,-1,9
468.5 1328 m 128,-1,17
 556 1351 556 1351 676.5 1351 c 128,-1,18
 797 1351 797 1351 904.5 1311 c 128,-1,19
 1012 1271 1012 1271 1079 1182 c 128,-1,20
 1146 1093 1146 1093 1146 963 c 128,-1,21
 1146 833 1146 833 1071.5 746.5 c 128,-1,22
 997 660 997 660 879 632 c 1,23,24
 1007 604 1007 604 1085 507 c 128,-1,25
 1163 410 1163 410 1163 262 c 0,26,27
 1164 56 1164 56 1016 -44 c 0,28,29
 878 -138 878 -138 659 -138 c 1,30,31
 384 -138 384 -138 247 0 c 0,32,33
 149 99 149 99 149 254.5 c 128,-1,34
 149 410 149 410 227.5 508.5 c 128,-1,35
 306 607 306 607 433 632 c 1,36,37
 315 661 315 661 240.5 747.5 c 128,-1,38
 166 834 166 834 166 948.5 c 128,-1,39
 166 1063 166 1063 205 1138 c 128,-1,40
 244 1213 244 1213 312.5 1259 c 128,-1,16
 381 1305 381 1305 468.5 1328 c 128,-1,17
EndSplineSet
EndChar

StartChar: nine
Encoding: 57 57 30
Width: 1285
GlyphClass: 2
Flags: HW
LayerCount: 2
Fore
SplineSet
829 355 m 1,0,1
 735 297 735 297 607 297 c 0,2,3
 381 297 381 297 249.5 420.5 c 128,-1,4
 118 544 118 544 118 767 c 128,-1,5
 118 990 118 990 255.5 1125 c 128,-1,6
 393 1260 393 1260 639.5 1260 c 128,-1,7
 886 1260 886 1260 1029 1108 c 128,-1,8
 1172 956 1172 956 1172 684 c 0,9,10
 1172 248 1172 248 856 -16 c 0,11,12
 671 -170 671 -170 406 -231 c 1,13,-1
 341 -9 l 1,14,15
 517 27 517 27 646.5 119.5 c 128,-1,16
 776 212 776 212 829 355 c 1,0,1
634 1042 m 0,17,18
 384 1042 384 1042 384 752 c 0,19,20
 384 640 384 640 442 572.5 c 128,-1,21
 500 505 500 505 591 505 c 128,-1,22
 682 505 682 505 766.5 522 c 128,-1,23
 851 539 851 539 891 569 c 1,24,25
 901 674 901 674 902 703 c 1,26,27
 897 1042 897 1042 634 1042 c 0,17,18
EndSplineSet
EndChar

StartChar: colon
Encoding: 58 58 31
Width: 701
GlyphClass: 2
Flags: HW
LayerCount: 2
Fore
SplineSet
190 379 m 1,0,-1
 556 379 l 1,1,-1
 556 0 l 1,2,-1
 190 0 l 1,3,-1
 190 379 l 1,0,-1
190 1067 m 1,4,-1
 556 1067 l 1,5,-1
 556 688 l 1,6,-1
 190 688 l 1,7,-1
 190 1067 l 1,4,-1
EndSplineSet
EndChar

StartChar: semicolon
Encoding: 59 59 32
Width: 692
GlyphClass: 2
Flags: HW
LayerCount: 2
Fore
SplineSet
186 1067 m 1,0,-1
 549 1067 l 1,1,-1
 549 688 l 1,2,-1
 186 688 l 1,3,-1
 186 1067 l 1,0,-1
188 373 m 1,4,-1
 550 373 l 1,5,-1
 550 51 l 2,6,7
 550 -165 550 -165 336 -257 c 0,8,9
 294 -275 294 -275 240 -291 c 1,10,-1
 189 -183 l 1,11,12
 312 -140 312 -140 338 -72 c 0,13,14
 350 -42 350 -42 350 0 c 1,15,-1
 188 0 l 1,16,-1
 188 373 l 1,4,-1
EndSplineSet
EndChar

StartChar: less
Encoding: 60 60 33
Width: 1238
GlyphClass: 2
Flags: HW
LayerCount: 2
Fore
SplineSet
216 739 m 1,0,-1
 960 1264 l 1,1,-1
 1001 1015 l 1,2,-1
 444 632 l 1,3,-1
 1001 250 l 1,4,-1
 960 1 l 1,5,-1
 179 559 l 1,6,-1
 216 739 l 1,0,-1
EndSplineSet
EndChar

StartChar: equal
Encoding: 61 61 34
Width: 1112
GlyphClass: 2
Flags: HW
LayerCount: 2
Fore
SplineSet
162 278 m 1,0,-1
 162 475 l 1,1,-1
 951 475 l 1,2,-1
 951 278 l 1,3,-1
 162 278 l 1,0,-1
162 601 m 1,4,-1
 162 797 l 1,5,-1
 951 797 l 1,6,-1
 951 601 l 1,7,-1
 162 601 l 1,4,-1
EndSplineSet
EndChar

StartChar: greater
Encoding: 62 62 35
Width: 1217
GlyphClass: 2
Flags: HW
LayerCount: 2
Fore
SplineSet
289 1 m 1,0,-1
 248 256 l 1,1,-1
 800 632 l 1,2,-1
 247 1009 l 1,3,-1
 288 1264 l 1,4,-1
 1026 745 l 1,5,-1
 1070 559 l 1,6,-1
 289 1 l 1,0,-1
EndSplineSet
EndChar

StartChar: question
Encoding: 63 63 36
Width: 1148
GlyphClass: 2
Flags: HW
LayerCount: 2
Fore
SplineSet
369 -43 m 1,0,1
 316 -20 316 -20 284 36 c 128,-1,2
 252 92 252 92 252 165 c 1,3,4
 274 218 274 218 326.5 251.5 c 128,-1,5
 379 285 379 285 449 285 c 1,6,7
 502 262 502 262 534 206 c 128,-1,8
 566 150 566 150 566 77 c 1,9,10
 545 24 545 24 492 -9.5 c 128,-1,11
 439 -43 439 -43 369 -43 c 1,0,1
264 823 m 1,12,13
 284 830 284 830 336.5 846 c 128,-1,14
 389 862 389 862 418.5 872 c 128,-1,15
 448 882 448 882 498.5 902 c 128,-1,16
 549 922 549 922 580 938.5 c 128,-1,17
 611 955 611 955 648.5 982 c 128,-1,18
 686 1009 686 1009 707 1036 c 0,19,20
 758 1102 758 1102 758 1162 c 128,-1,21
 758 1222 758 1222 744 1255 c 128,-1,22
 730 1288 730 1288 706.5 1307.5 c 128,-1,23
 683 1327 683 1327 647 1339 c 0,24,25
 587 1359 587 1359 508 1359 c 128,-1,26
 429 1359 429 1359 284.5 1330.5 c 128,-1,27
 140 1302 140 1302 140 1280 c 1,28,-1
 65 1495 l 1,29,30
 259 1593 259 1593 505 1593 c 0,31,32
 915 1592 915 1592 1015 1352 c 0,33,34
 1043 1284 1043 1284 1043 1199 c 0,35,36
 1043 840 1043 840 534 686 c 1,37,-1
 534 378 l 1,38,-1
 264 378 l 1,39,-1
 264 823 l 1,12,13
EndSplineSet
EndChar

StartChar: at
Encoding: 64 64 37
Width: 1982
GlyphClass: 2
Flags: HW
LayerCount: 2
Fore
SplineSet
1446 -19 m 1,0,1
 1290 -144 1290 -144 989 -144 c 0,2,3
 603 -144 603 -144 371 53 c 0,4,5
 258 149 258 149 196 296 c 128,-1,6
 134 443 134 443 134 628 c 0,7,8
 134 896 134 896 248.5 1101 c 128,-1,9
 363 1306 363 1306 570.5 1417.5 c 128,-1,10
 778 1529 778 1529 1049 1529 c 0,11,12
 1408 1529 1408 1529 1638 1340 c 0,13,14
 1748 1249 1748 1249 1810.5 1109.5 c 128,-1,15
 1873 970 1873 970 1873 823 c 128,-1,16
 1873 676 1873 676 1844 576.5 c 128,-1,17
 1815 477 1815 477 1758 403 c 0,18,19
 1638 247 1638 247 1400 247 c 1,20,21
 1254 247 1254 247 1254 420 c 2,22,-1
 1254 482 l 2,23,24
 1254 503 1254 503 1256 545 c 1,25,26
 1186 318 1186 318 1036 262 c 0,27,28
 974 239 974 239 895 239 c 0,29,30
 721 239 721 239 620 350.5 c 128,-1,31
 519 462 519 462 519 643 c 0,32,33
 519 871 519 871 676 1021 c 128,-1,34
 833 1171 833 1171 1065 1171 c 0,35,36
 1317 1171 1317 1171 1398 1080 c 0,37,38
 1432 1042 1432 1042 1440 987 c 1,39,40
 1440 959 1440 959 1438 903 c 1,41,-1
 1388 415 l 1,42,43
 1524 430 1524 430 1583.5 518 c 128,-1,44
 1643 606 1643 606 1643 772 c 0,45,46
 1643 1047 1643 1047 1482.5 1186 c 128,-1,47
 1322 1325 1322 1325 1025 1325 c 128,-1,48
 728 1325 728 1325 549.5 1134.5 c 128,-1,49
 371 944 371 944 371 642.5 c 128,-1,50
 371 341 371 341 542 196.5 c 128,-1,51
 713 52 713 52 1018 52 c 0,52,53
 1142 52 1142 52 1254 95 c 0,54,55
 1296 111 1296 111 1328 125 c 128,-1,56
 1360 139 1360 139 1362.5 140 c 128,-1,57
 1365 141 1365 141 1369 143 c 128,-1,58
 1373 145 1373 145 1376 146 c 1,59,-1
 1446 -19 l 1,0,1
1254 993 m 1,60,61
 1136 1013 1136 1013 1075 1013 c 0,62,63
 911 1013 911 1013 822 906 c 128,-1,64
 733 799 733 799 733 622 c 0,65,66
 733 528 733 528 777 470 c 128,-1,67
 821 412 821 412 902.5 412 c 128,-1,68
 984 412 984 412 1044.5 448.5 c 128,-1,69
 1105 485 1105 485 1141 540.5 c 128,-1,70
 1177 596 1177 596 1202 678 c 0,71,72
 1241 806 1241 806 1254 993 c 1,60,61
EndSplineSet
EndChar

StartChar: A
Encoding: 65 65 38
Width: 1513
GlyphClass: 2
Flags: HW
LayerCount: 2
Fore
SplineSet
937 1607 m 1,0,-1
 1469 0 l 1,1,-1
 1162 0 l 1,2,-1
 1044 369 l 1,3,-1
 468 369 l 1,4,-1
 351 0 l 1,5,-1
 43 0 l 1,6,-1
 571 1607 l 1,7,-1
 937 1607 l 1,0,-1
509 516 m 1,8,-1
 1004 516 l 1,9,-1
 760 1285 l 1,10,-1
 509 516 l 1,8,-1
EndSplineSet
EndChar

StartChar: B
Encoding: 66 66 39
Width: 1441
GlyphClass: 2
Flags: HW
LayerCount: 2
Fore
SplineSet
1329 628 m 0,0,1
 1358 554 1358 554 1358 456.5 c 128,-1,2
 1358 359 1358 359 1333.5 286 c 128,-1,3
 1309 213 1309 213 1261.5 164 c 128,-1,4
 1214 115 1214 115 1153.5 82 c 0,5,6
 1094 50 1094 50 1010 32 c 0,7,8
 860 0 860 0 656 0 c 2,9,-1
 156 0 l 1,10,-1
 156 1607 l 1,11,-1
 558 1607 l 2,12,13
 1059 1606 1059 1606 1209 1438 c 0,14,15
 1291 1346 1291 1346 1291 1205 c 0,16,17
 1291 900 1291 900 949 859 c 1,18,19
 1255 818 1255 818 1329 628 c 0,0,1
1040 591 m 128,-1,21
 1020 642 1020 642 987 672 c 128,-1,22
 954 702 954 702 900 720 c 0,23,24
 808 750 808 750 651 749 c 2,25,-1
 462 749 l 1,26,-1
 462 202 l 1,27,-1
 625 202 l 2,28,29
 824 202 824 202 903 229 c 0,30,31
 986 258 986 258 1018 308 c 0,32,33
 1060 372 1060 372 1060 456 c 128,-1,20
 1060 540 1060 540 1040 591 c 128,-1,21
996 1061 m 0,34,35
 1024 1111 1024 1111 1023.5 1173 c 128,-1,36
 1023 1235 1023 1235 1008 1272 c 128,-1,37
 993 1309 993 1309 963 1332.5 c 128,-1,38
 933 1356 933 1356 899 1371 c 0,39,40
 864 1386 864 1386 814 1393 c 0,41,42
 727 1405 727 1405 617 1405 c 2,43,-1
 462 1405 l 1,44,-1
 462 940 l 1,45,-1
 651 940 l 2,46,47
 929 940 929 940 996 1061 c 0,34,35
EndSplineSet
EndChar

StartChar: C
Encoding: 67 67 40
Width: 1319
GlyphClass: 2
Flags: HW
LayerCount: 2
Fore
SplineSet
823 1411 m 0,0,1
 477 1410 477 1410 423 984 c 0,2,3
 412 896 412 896 412 790 c 0,4,5
 412 191 412 191 823 191 c 0,6,7
 1028 191 1028 191 1186 302 c 1,8,-1
 1270 86 l 1,9,10
 1201 29 1201 29 1070.5 -2.5 c 128,-1,11
 940 -34 940 -34 781.5 -34 c 128,-1,12
 623 -34 623 -34 488 26 c 128,-1,13
 353 86 353 86 270 198 c 0,14,15
 105 420 105 420 105 796 c 0,16,17
 104 1168 104 1168 272 1396 c 0,18,19
 356 1510 356 1510 491.5 1573 c 128,-1,20
 627 1636 627 1636 784 1636 c 0,21,22
 1108 1636 1108 1636 1259 1531 c 1,23,-1
 1179 1312 l 1,24,25
 1027 1411 1027 1411 823 1411 c 0,0,1
EndSplineSet
EndChar

StartChar: D
Encoding: 68 68 41
Width: 1557
GlyphClass: 2
Flags: HW
LayerCount: 2
Fore
SplineSet
661 202 m 2,0,1
 925 202 925 202 1037 366 c 0,2,3
 1142 520 1142 520 1142 801 c 0,4,5
 1142 1090 1142 1090 1046 1241 c 0,6,7
 942 1405 942 1405 671 1405 c 2,8,-1
 462 1405 l 1,9,-1
 462 202 l 1,10,-1
 661 202 l 2,0,1
676 1607 m 2,11,12
 1070 1607 1070 1607 1261 1406 c 128,-1,13
 1452 1205 1452 1205 1452 801 c 0,14,15
 1452 0 1452 0 683 0 c 2,16,-1
 157 0 l 1,17,-1
 157 1607 l 1,18,-1
 676 1607 l 2,11,12
EndSplineSet
EndChar

StartChar: E
Encoding: 69 69 42
Width: 1281
GlyphClass: 2
Flags: HW
LayerCount: 2
Fore
SplineSet
156 0 m 1,0,-1
 156 1607 l 1,1,-1
 1205 1607 l 1,2,-1
 1205 1405 l 1,3,-1
 461 1405 l 1,4,-1
 461 931 l 1,5,-1
 1110 931 l 1,6,-1
 1110 745 l 1,7,-1
 461 745 l 1,8,-1
 461 199 l 1,9,-1
 1216 199 l 1,10,-1
 1216 0 l 1,11,-1
 156 0 l 1,0,-1
EndSplineSet
EndChar

StartChar: F
Encoding: 70 70 43
Width: 1219
GlyphClass: 2
Flags: HW
LayerCount: 2
Fore
SplineSet
461 0 m 1,0,-1
 156 0 l 1,1,-1
 156 1607 l 1,2,-1
 1192 1607 l 1,3,-1
 1192 1405 l 1,4,-1
 461 1405 l 1,5,-1
 461 925 l 1,6,-1
 1114 925 l 1,7,-1
 1114 739 l 1,8,-1
 461 739 l 1,9,-1
 461 0 l 1,0,-1
EndSplineSet
EndChar

StartChar: G
Encoding: 71 71 44
Width: 1561
GlyphClass: 2
Flags: HW
LayerCount: 2
Fore
SplineSet
804 191 m 0,0,1
 1083 191 1083 191 1150 347 c 1,2,-1
 1150 679 l 1,3,-1
 764 679 l 1,4,-1
 764 867 l 1,5,-1
 1420 867 l 1,6,-1
 1420 0 l 1,7,-1
 1238 0 l 1,8,-1
 1187 163 l 1,9,10
 1149 64 1149 64 1039.5 15 c 128,-1,11
 930 -34 930 -34 784.5 -34 c 128,-1,12
 639 -34 639 -34 527 6 c 128,-1,13
 415 46 415 46 337 118.5 c 0,14,15
 258 190 258 190 206 294 c 0,16,17
 104 494 104 494 105 790 c 0,18,19
 104 1180 104 1180 286 1404 c 0,20,21
 474 1636 474 1636 850 1636 c 0,22,23
 1141 1636 1141 1636 1325 1504 c 1,24,-1
 1233 1298 l 1,25,26
 1038 1411 1038 1411 850 1411 c 0,27,28
 516 1411 516 1411 436 1038 c 0,29,30
 412 929 412 929 413 791 c 0,31,32
 413 191 413 191 804 191 c 0,0,1
EndSplineSet
EndChar

StartChar: H
Encoding: 72 72 45
Width: 1601
GlyphClass: 2
Flags: HW
LayerCount: 2
Fore
SplineSet
1139 741 m 1,0,-1
 462 741 l 1,1,-1
 462 0 l 1,2,-1
 156 0 l 1,3,-1
 156 1607 l 1,4,-1
 462 1607 l 1,5,-1
 462 926 l 1,6,-1
 1139 926 l 1,7,-1
 1139 1607 l 1,8,-1
 1444 1607 l 1,9,-1
 1444 0 l 1,10,-1
 1139 0 l 1,11,-1
 1139 741 l 1,0,-1
EndSplineSet
EndChar

StartChar: I
Encoding: 73 73 46
Width: 846
GlyphClass: 2
Flags: HW
LayerCount: 2
Fore
SplineSet
273 150 m 1,0,-1
 273 1454 l 1,1,-1
 87 1454 l 1,2,-1
 87 1607 l 1,3,-1
 763 1607 l 1,4,-1
 763 1454 l 1,5,-1
 574 1454 l 1,6,-1
 574 150 l 1,7,-1
 763 150 l 1,8,-1
 763 0 l 1,9,-1
 87 0 l 1,10,-1
 87 150 l 1,11,-1
 273 150 l 1,0,-1
EndSplineSet
EndChar

StartChar: J
Encoding: 74 74 47
Width: 826
GlyphClass: 2
Flags: HW
LayerCount: 2
Fore
SplineSet
39 109 m 1,0,1
 164 129 164 129 232 168 c 0,2,3
 366 245 366 245 365 504 c 2,4,-1
 365 1607 l 1,5,-1
 670 1607 l 1,6,-1
 670 519 l 2,7,8
 670 214 670 214 539 70 c 128,-1,9
 408 -74 408 -74 117 -89 c 1,10,-1
 39 109 l 1,0,1
EndSplineSet
EndChar

StartChar: K
Encoding: 75 75 48
Width: 1469
GlyphClass: 2
Flags: HW
LayerCount: 2
Fore
SplineSet
462 0 m 1,0,-1
 156 0 l 1,1,-1
 156 1607 l 1,2,-1
 462 1607 l 1,3,-1
 462 895 l 1,4,-1
 601 895 l 1,5,-1
 1067 1607 l 1,6,-1
 1389 1607 l 1,7,-1
 843 809 l 1,8,-1
 1450 0 l 1,9,-1
 1107 0 l 1,10,-1
 593 713 l 1,11,-1
 462 713 l 1,12,-1
 462 0 l 1,0,-1
EndSplineSet
EndChar

StartChar: L
Encoding: 76 76 49
Width: 1216
GlyphClass: 2
Flags: HW
LayerCount: 2
Fore
SplineSet
156 0 m 1,0,-1
 156 1607 l 1,1,-1
 461 1607 l 1,2,-1
 461 202 l 1,3,-1
 1181 202 l 1,4,-1
 1181 0 l 1,5,-1
 156 0 l 1,0,-1
EndSplineSet
EndChar

StartChar: M
Encoding: 77 77 50
Width: 1987
GlyphClass: 2
Flags: HW
LayerCount: 2
Fore
SplineSet
423 1254 m 1,0,-1
 423 0 l 1,1,-1
 156 0 l 1,2,-1
 156 1607 l 1,3,-1
 557 1607 l 1,4,-1
 989 335 l 1,5,-1
 1430 1607 l 1,6,-1
 1831 1607 l 1,7,-1
 1831 0 l 1,8,-1
 1564 0 l 1,9,-1
 1564 1254 l 1,10,-1
 1140 0 l 1,11,-1
 849 0 l 1,12,-1
 423 1254 l 1,0,-1
EndSplineSet
EndChar

StartChar: N
Encoding: 78 78 51
Width: 1651
GlyphClass: 2
Flags: HW
LayerCount: 2
Fore
SplineSet
1160 0 m 1,0,-1
 436 1225 l 1,1,-1
 436 0 l 1,2,-1
 156 0 l 1,3,-1
 156 1607 l 1,4,-1
 504 1607 l 1,5,-1
 1215 395 l 1,6,-1
 1215 1607 l 1,7,-1
 1495 1607 l 1,8,-1
 1495 0 l 1,9,-1
 1160 0 l 1,0,-1
EndSplineSet
EndChar

StartChar: O
Encoding: 79 79 52
Width: 1611
GlyphClass: 2
Flags: HW
LayerCount: 2
Fore
SplineSet
824 1635 m 0,0,1
 986 1635 986 1635 1121.5 1576.5 c 128,-1,2
 1257 1518 1257 1518 1341 1408 c 0,3,4
 1507 1191 1507 1191 1507 810 c 0,5,6
 1508 153 1508 153 1072 5 c 0,7,8
 954 -35 954 -35 786.5 -35 c 128,-1,9
 619 -35 619 -35 482.5 26.5 c 128,-1,10
 346 88 346 88 264 203 c 0,11,12
 104 427 104 427 104 819 c 0,13,14
 104 1281 104 1281 348 1489 c 0,15,16
 520 1635 520 1635 824 1635 c 0,0,1
970.5 1377.5 m 128,-1,18
 901 1411 901 1411 807.5 1411 c 128,-1,19
 714 1411 714 1411 643.5 1378 c 128,-1,20
 573 1345 573 1345 529.5 1290.5 c 128,-1,21
 486 1236 486 1236 460 1155 c 0,22,23
 414 1013 414 1013 413 798 c 0,24,25
 413 459 413 459 530 312 c 0,26,27
 626 192 626 192 805 192 c 0,28,29
 961 192 961 192 1048.5 277.5 c 128,-1,30
 1136 363 1136 363 1167.5 497.5 c 128,-1,31
 1199 632 1199 632 1199 767 c 128,-1,32
 1199 902 1199 902 1189 987 c 128,-1,33
 1179 1072 1179 1072 1152.5 1153.5 c 128,-1,34
 1126 1235 1126 1235 1083 1289.5 c 128,-1,17
 1040 1344 1040 1344 970.5 1377.5 c 128,-1,18
EndSplineSet
EndChar

StartChar: P
Encoding: 80 80 53
Width: 1391
GlyphClass: 2
Flags: HW
LayerCount: 2
Fore
SplineSet
598 1607 m 2,0,1
 1022 1607 1022 1607 1195 1453 c 0,2,3
 1335 1328 1335 1328 1337 1095 c 1,4,5
 1337 700 1337 700 906 622 c 0,6,7
 764 596 764 596 568 597 c 2,8,-1
 462 597 l 1,9,-1
 462 0 l 1,10,-1
 156 0 l 1,11,-1
 156 1607 l 1,12,-1
 598 1607 l 2,0,1
1030 1096 m 0,13,14
 1030 1180 1030 1180 1000.5 1245 c 128,-1,15
 971 1310 971 1310 911 1344 c 0,16,17
 803 1405 803 1405 596 1405 c 2,18,-1
 462 1405 l 1,19,-1
 462 791 l 1,20,-1
 559 791 l 2,21,22
 832 790 832 790 938 872 c 0,23,24
 1030 944 1030 944 1030 1096 c 0,13,14
EndSplineSet
EndChar

StartChar: Q
Encoding: 81 81 54
Width: 1618
GlyphClass: 2
Flags: HW
LayerCount: 2
Fore
SplineSet
489 1575.5 m 128,-1,1
 624 1636 624 1636 806 1636 c 128,-1,2
 988 1636 988 1636 1125.5 1576.5 c 0,3,4
 1263 1518 1263 1518 1347 1406 c 0,5,6
 1513 1186 1513 1186 1513 821 c 0,7,8
 1513 79 1513 79 979 -18 c 1,9,-1
 1309 -262 l 1,10,-1
 1154 -429 l 1,11,-1
 675 -24 l 1,12,13
 246 31 246 31 138 492 c 0,14,15
 105 633 105 633 105 812.5 c 128,-1,16
 105 992 105 992 146 1142 c 128,-1,17
 187 1292 187 1292 270.5 1403.5 c 128,-1,0
 354 1515 354 1515 489 1575.5 c 128,-1,1
1205 801 m 256,18,19
 1204 1139 1204 1139 1086 1289 c 0,20,21
 990 1411 990 1411 809 1411 c 1,22,23
 473 1412 473 1412 423 990 c 0,24,25
 413 906 413 906 413 801.5 c 128,-1,26
 413 697 413 697 423 612 c 128,-1,27
 433 527 433 527 460 446.5 c 0,28,29
 486 366 486 366 530 312 c 0,30,31
 626 192 626 192 809 191 c 0,32,33
 1145 192 1145 192 1195 614 c 0,34,35
 1205 698 1205 698 1205 801 c 256,18,19
EndSplineSet
EndChar

StartChar: R
Encoding: 82 82 55
Width: 1463
GlyphClass: 2
Flags: HW
LayerCount: 2
Fore
SplineSet
1011 1053.5 m 128,-1,1
 1034 1102 1034 1102 1034 1156 c 128,-1,2
 1034 1210 1034 1210 1025 1243.5 c 128,-1,3
 1016 1277 1016 1277 997.5 1301 c 128,-1,4
 979 1325 979 1325 957 1343 c 128,-1,5
 935 1361 935 1361 901 1372 c 128,-1,6
 867 1383 867 1383 837 1390 c 128,-1,7
 807 1397 807 1397 762 1400 c 0,8,9
 687 1405 687 1405 598 1405 c 2,10,-1
 462 1405 l 1,11,-1
 462 900 l 1,12,-1
 608 900 l 2,13,14
 854 900 854 900 951 976 c 0,15,0
 988 1005 988 1005 1011 1053.5 c 128,-1,1
1343 1201 m 0,16,17
 1343 1002 1343 1002 1222.5 906.5 c 128,-1,18
 1102 811 1102 811 889 805 c 1,19,20
 1230 766 1230 766 1315 576 c 0,21,22
 1349 500 1349 500 1349 395 c 2,23,-1
 1349 0 l 1,24,-1
 1046 0 l 1,25,-1
 1046 416 l 2,26,27
 1046 629 1046 629 872 682 c 0,28,29
 777 711 777 711 606 711 c 2,30,-1
 462 711 l 1,31,-1
 462 0 l 1,32,-1
 156 0 l 1,33,-1
 156 1607 l 1,34,-1
 601 1607 l 2,35,36
 897 1608 897 1608 1053 1562 c 0,37,38
 1194 1521 1194 1521 1263 1440 c 0,39,40
 1343 1347 1343 1347 1343 1201 c 0,16,17
EndSplineSet
EndChar

StartChar: S
Encoding: 83 83 56
Width: 1325
GlyphClass: 2
Flags: HW
LayerCount: 2
Fore
SplineSet
914.5 1378 m 128,-1,1
 801 1411 801 1411 709.5 1411 c 128,-1,2
 618 1411 618 1411 566.5 1403.5 c 0,3,4
 514 1396 514 1396 468 1376 c 0,5,6
 372 1334 372 1334 372 1218 c 0,7,8
 372 1149 372 1149 412.5 1110.5 c 128,-1,9
 453 1072 453 1072 524 1047 c 1,10,-1
 869 915 l 2,11,12
 1143 810 1143 810 1216 620 c 0,13,14
 1246 542 1246 542 1246 430.5 c 128,-1,15
 1246 319 1246 319 1203 226.5 c 128,-1,16
 1160 134 1160 134 1081 78 c 0,17,18
 925 -34 925 -34 654 -34 c 129,-1,19
 383 -34 383 -34 127 104 c 1,20,-1
 182 323 l 1,21,22
 396 221 396 221 616 196 c 0,23,24
 660 191 660 191 699 191 c 0,25,26
 955 191 955 191 955 402 c 0,27,28
 955 495 955 495 906 549.5 c 128,-1,29
 857 604 857 604 767 637 c 1,30,-1
 413 778 l 1,31,32
 85 907 85 907 85 1196 c 0,33,34
 84 1421 84 1421 252 1532 c 0,35,36
 409 1636 409 1636 650 1636 c 0,37,38
 950 1636 950 1636 1175 1503 c 1,39,-1
 1111 1295 l 1,40,0
 1028 1345 1028 1345 914.5 1378 c 128,-1,1
EndSplineSet
EndChar

StartChar: T
Encoding: 84 84 57
Width: 1214
GlyphClass: 2
Flags: HW
LayerCount: 2
Fore
SplineSet
761 1405 m 1,0,-1
 761 0 l 1,1,-1
 455 0 l 1,2,-1
 455 1405 l 1,3,-1
 19 1405 l 1,4,-1
 19 1607 l 1,5,-1
 1191 1607 l 1,6,-1
 1191 1405 l 1,7,-1
 761 1405 l 1,0,-1
EndSplineSet
EndChar

StartChar: U
Encoding: 85 85 58
Width: 1589
GlyphClass: 2
Flags: HW
LayerCount: 2
Fore
SplineSet
446 729 m 2,0,1
 446 490 446 490 484 386 c 0,2,3
 520 286 520 286 588 242 c 0,4,5
 668 190 668 190 793 191 c 0,6,7
 987 191 987 191 1062 304 c 0,8,9
 1112 378 1112 378 1123 461 c 0,10,11
 1140 579 1140 579 1140 729 c 2,12,-1
 1140 1607 l 1,13,-1
 1446 1607 l 1,14,-1
 1446 733 l 2,15,16
 1446 160 1446 160 1100 18 c 0,17,18
 974 -34 974 -34 796 -34 c 128,-1,19
 618 -34 618 -34 490.5 17 c 0,20,21
 362 68 362 68 286 168 c 0,22,23
 140 360 140 360 140 733 c 2,24,-1
 140 1607 l 1,25,-1
 446 1607 l 1,26,-1
 446 729 l 2,0,1
EndSplineSet
EndChar

StartChar: V
Encoding: 86 86 59
Width: 1413
GlyphClass: 2
Flags: HW
LayerCount: 2
Fore
SplineSet
709 383 m 1,0,-1
 1082 1607 l 1,1,-1
 1370 1607 l 1,2,-1
 868 0 l 1,3,-1
 545 0 l 1,4,-1
 43 1607 l 1,5,-1
 329 1607 l 1,6,-1
 709 383 l 1,0,-1
EndSplineSet
EndChar

StartChar: W
Encoding: 87 87 60
Width: 2028
GlyphClass: 2
Flags: HW
LayerCount: 2
Fore
SplineSet
1189 1607 m 1,0,-1
 1435 331 l 1,1,-1
 1691 1607 l 1,2,-1
 1986 1607 l 1,3,-1
 1638 -2 l 1,4,-1
 1261 -2 l 1,5,-1
 1014 1338 l 1,6,-1
 751 0 l 1,7,-1
 388 0 l 1,8,-1
 41 1607 l 1,9,-1
 336 1607 l 1,10,-1
 591 331 l 1,11,-1
 837 1607 l 1,12,-1
 1189 1607 l 1,0,-1
EndSplineSet
EndChar

StartChar: X
Encoding: 88 88 61
Width: 1374
GlyphClass: 2
Flags: HW
LayerCount: 2
Fore
SplineSet
1040 1607 m 1,0,-1
 1354 1607 l 1,1,-1
 858 805 l 1,2,-1
 1355 0 l 1,3,-1
 1026 0 l 1,4,-1
 687 556 l 1,5,-1
 348 0 l 1,6,-1
 19 0 l 1,7,-1
 516 805 l 1,8,-1
 20 1607 l 1,9,-1
 335 1607 l 1,10,-1
 687 1029 l 1,11,-1
 1040 1607 l 1,0,-1
EndSplineSet
EndChar

StartChar: Y
Encoding: 89 89 62
Width: 1291
GlyphClass: 2
Flags: HW
LayerCount: 2
Fore
SplineSet
1002 1607 m 1,0,-1
 1310 1607 l 1,1,-1
 789 514 l 1,2,-1
 789 0 l 1,3,-1
 498 0 l 1,4,-1
 498 514 l 1,5,-1
 -19 1607 l 1,6,-1
 287 1607 l 1,7,-1
 645 830 l 1,8,-1
 1002 1607 l 1,0,-1
EndSplineSet
EndChar

StartChar: Z
Encoding: 90 90 63
Width: 1250
GlyphClass: 2
Flags: HW
LayerCount: 2
Fore
SplineSet
1174 1405 m 1,0,-1
 412 202 l 1,1,-1
 1176 202 l 1,2,-1
 1176 0 l 1,3,-1
 78 0 l 1,4,-1
 78 214 l 1,5,-1
 843 1405 l 1,6,-1
 78 1405 l 1,7,-1
 78 1607 l 1,8,-1
 1174 1607 l 1,9,-1
 1174 1405 l 1,0,-1
EndSplineSet
EndChar

StartChar: bracketleft
Encoding: 91 91 64
Width: 1137
GlyphClass: 2
Flags: HW
LayerCount: 2
Fore
SplineSet
978 1607 m 1,0,-1
 978 1405 l 1,1,-1
 532 1405 l 1,2,-1
 532 202 l 1,3,-1
 978 202 l 1,4,-1
 978 0 l 1,5,-1
 249 0 l 1,6,-1
 249 1607 l 1,7,-1
 978 1607 l 1,0,-1
EndSplineSet
EndChar

StartChar: backslash
Encoding: 92 92 65
Width: 1142
GlyphClass: 2
Flags: HW
LayerCount: 2
Fore
SplineSet
1013 -70 m 1,0,-1
 751 -159 l 1,1,-1
 149 1647 l 1,2,-1
 411 1733 l 1,3,-1
 1013 -70 l 1,0,-1
EndSplineSet
EndChar

StartChar: bracketright
Encoding: 93 93 66
Width: 1161
GlyphClass: 2
Flags: HW
LayerCount: 2
Fore
SplineSet
935 1607 m 1,0,-1
 935 0 l 1,1,-1
 206 0 l 1,2,-1
 206 202 l 1,3,-1
 651 202 l 1,4,-1
 651 1405 l 1,5,-1
 206 1405 l 1,6,-1
 206 1607 l 1,7,-1
 935 1607 l 1,0,-1
EndSplineSet
EndChar

StartChar: asciicircum
Encoding: 94 94 67
Width: 1331
GlyphClass: 2
Flags: HW
LayerCount: 2
Fore
SplineSet
763 1135 m 1,0,-1
 1039 552 l 1,1,-1
 819 521 l 1,2,-1
 664 909 l 1,3,-1
 510 521 l 1,4,-1
 291 552 l 1,5,-1
 568 1135 l 1,6,-1
 763 1135 l 1,0,-1
EndSplineSet
EndChar

StartChar: underscore
Encoding: 95 95 68
Width: 1204
GlyphClass: 2
Flags: HW
LayerCount: 2
Fore
SplineSet
92 -105 m 1,0,-1
 92 115 l 1,1,-1
 1084 115 l 1,2,-1
 1084 -105 l 1,3,-1
 92 -105 l 1,0,-1
EndSplineSet
EndChar

StartChar: grave
Encoding: 96 96 69
Width: 844
GlyphClass: 2
Flags: HW
LayerCount: 2
Fore
SplineSet
181 776 m 1,0,-1
 470 901 l 1,1,-1
 657 275 l 1,2,-1
 533 218 l 1,3,-1
 181 776 l 1,0,-1
EndSplineSet
EndChar

StartChar: a
Encoding: 97 97 70
Width: 1244
GlyphClass: 2
Flags: HW
LayerCount: 2
Fore
SplineSet
819 709 m 1,0,1
 819 909 819 909 770 963 c 0,2,3
 722 1016 722 1016 617 1016 c 0,4,5
 417 1016 417 1016 239 912 c 1,6,-1
 160 1094 l 1,7,8
 364 1215 364 1215 624 1215 c 0,9,10
 896 1214 896 1214 1006 1078 c 0,11,12
 1110 948 1110 948 1110 666 c 2,13,-1
 1110 0 l 1,14,-1
 886 0 l 1,15,-1
 846 164 l 1,16,17
 784 70 784 70 702.5 23 c 128,-1,18
 621 -24 621 -24 494 -24 c 0,19,20
 300 -24 300 -24 192.5 74 c 128,-1,21
 85 172 85 172 85 360 c 0,22,23
 86 628 86 628 354 708 c 0,24,25
 432 732 432 732 528 735 c 1,26,27
 684 735 684 735 819 709 c 1,0,1
819 561 m 1,28,-1
 750 568 l 1,29,-1
 706 572 l 2,30,31
 676 574 676 574 644.5 574 c 128,-1,32
 613 574 613 574 573 570 c 128,-1,33
 533 566 533 566 494.5 553.5 c 128,-1,34
 456 541 456 541 432 520 c 0,35,36
 378 474 378 474 378 382 c 0,37,38
 378 177 378 177 569 177 c 0,39,40
 648 177 648 177 706.5 209.5 c 128,-1,41
 765 242 765 242 819 300 c 1,42,-1
 819 561 l 1,28,-1
EndSplineSet
EndChar

StartChar: b
Encoding: 98 98 71
Width: 1325
GlyphClass: 2
Flags: HW
LayerCount: 2
Fore
SplineSet
446 292 m 1,0,1
 503 235 503 235 565 206 c 128,-1,2
 627 177 627 177 705.5 177 c 128,-1,3
 784 177 784 177 833 210.5 c 128,-1,4
 882 244 882 244 908 307 c 0,5,6
 954 419 954 419 953 608 c 0,7,8
 953 842 953 842 895 933 c 0,9,10
 814 1005 814 1005 744 1016 c 1,11,12
 646 1016 646 1016 580 983.5 c 128,-1,13
 514 951 514 951 446 890 c 1,14,-1
 446 292 l 1,0,1
446 1067 m 1,15,16
 581 1215 581 1215 773 1215 c 0,17,18
 1044 1215 1044 1215 1172 964 c 0,19,20
 1248 815 1248 815 1248 616 c 0,21,22
 1248 231 1248 231 1043 65 c 0,23,24
 933 -24 933 -24 759 -24 c 0,25,26
 520 -24 520 -24 419 174 c 1,27,-1
 361 0 l 1,28,-1
 154 0 l 1,29,-1
 154 1668 l 1,30,-1
 446 1712 l 1,31,-1
 446 1067 l 1,15,16
EndSplineSet
EndChar

StartChar: c
Encoding: 99 99 72
Width: 1104
GlyphClass: 2
Flags: HW
LayerCount: 2
Fore
SplineSet
1041 91 m 1,0,1
 881 -24 881 -24 653 -24 c 0,2,3
 379 -24 379 -24 232 139.5 c 128,-1,4
 85 303 85 303 85 585 c 0,5,6
 85 768 85 768 150.5 909.5 c 128,-1,7
 216 1051 216 1051 347 1133 c 128,-1,8
 478 1215 478 1215 656 1215 c 0,9,10
 890 1215 890 1215 1041 1105 c 1,11,-1
 978 912 l 1,12,13
 852 1016 852 1016 686 1016 c 1,14,15
 518 1008 518 1008 448.5 899.5 c 0,16,17
 379 790 379 790 379 594 c 0,18,19
 379 176 379 176 691 177 c 0,20,21
 781 177 781 177 847.5 204.5 c 128,-1,22
 914 232 914 232 978 283 c 1,23,-1
 1041 91 l 1,0,1
EndSplineSet
EndChar

StartChar: d
Encoding: 100 100 73
Width: 1323
GlyphClass: 2
Flags: HW
LayerCount: 2
Fore
SplineSet
710.5 995.5 m 128,-1,1
 655 1016 655 1016 602 1016 c 128,-1,2
 549 1016 549 1016 511.5 1000 c 128,-1,3
 474 984 474 984 450.5 952 c 128,-1,4
 427 920 427 920 411.5 883.5 c 0,5,6
 396 848 396 848 388 796 c 0,7,8
 374 703 374 703 374.5 615 c 128,-1,9
 375 527 375 527 380.5 470.5 c 128,-1,10
 386 414 386 414 402 357.5 c 0,11,12
 418 300 418 300 444 262 c 0,13,14
 503 176 503 176 619 177 c 0,15,16
 788 177 788 177 884 293 c 1,17,-1
 884 890 l 1,18,19
 836 929 836 929 801 952 c 128,-1,0
 766 975 766 975 710.5 995.5 c 128,-1,1
100.5 423.5 m 128,-1,21
 85 518 85 518 85 632 c 128,-1,22
 85 746 85 746 114 850.5 c 128,-1,23
 143 955 143 955 198.5 1037 c 128,-1,24
 254 1119 254 1119 342.5 1167 c 128,-1,25
 431 1215 431 1215 541 1215 c 0,26,27
 759 1215 759 1215 884 1057 c 1,28,-1
 884 1668 l 1,29,-1
 1176 1712 l 1,30,-1
 1176 0 l 1,31,-1
 967 0 l 1,32,-1
 909 174 l 1,33,34
 865 88 865 88 773 32 c 128,-1,35
 681 -24 681 -24 571 -24 c 128,-1,36
 461 -24 461 -24 378.5 10 c 128,-1,37
 296 44 296 44 241.5 102.5 c 128,-1,38
 187 161 187 161 151.5 245 c 128,-1,20
 116 329 116 329 100.5 423.5 c 128,-1,21
EndSplineSet
EndChar

StartChar: e
Encoding: 101 101 74
Width: 1203
GlyphClass: 2
Flags: HW
LayerCount: 2
Fore
SplineSet
693 177 m 0,0,1
 789 177 789 177 859 203 c 128,-1,2
 929 229 929 229 997 281 c 1,3,-1
 1063 84 l 1,4,5
 882 -24 882 -24 670 -24 c 0,6,7
 393 -24 393 -24 239 133 c 128,-1,8
 85 290 85 290 85 568 c 0,9,10
 85 855 85 855 221 1032 c 0,11,12
 362 1215 362 1215 638 1215 c 0,13,14
 872 1215 872 1215 996 1073 c 128,-1,15
 1120 931 1120 931 1120 685 c 0,16,17
 1120 609 1120 609 1117 537 c 1,18,-1
 384 537 l 1,19,20
 386 366 386 366 462.5 271.5 c 128,-1,21
 539 177 539 177 693 177 c 0,0,1
877 704 m 2,22,23
 877 1012 877 1012 645 1016 c 1,24,25
 518 1012 518 1012 453.5 922.5 c 128,-1,26
 389 833 389 833 383 690 c 1,27,-1
 877 690 l 1,28,-1
 877 704 l 2,22,23
EndSplineSet
EndChar

StartChar: f
Encoding: 102 102 75
Width: 854
GlyphClass: 2
Flags: HW
LayerCount: 2
Fore
SplineSet
820 1453 m 1,0,1
 709 1494 709 1494 656 1494 c 0,2,3
 551 1494 551 1494 524 1375 c 0,4,5
 512 1320 512 1320 512 1191 c 2,6,-1
 512 1185 l 1,7,-1
 824 1185 l 1,8,-1
 824 1053 l 1,9,-1
 512 1053 l 1,10,-1
 512 0 l 1,11,-1
 219 0 l 1,12,-1
 219 1053 l 1,13,-1
 24 1053 l 1,14,-1
 24 1185 l 1,15,-1
 219 1185 l 1,16,17
 219 1577 219 1577 415 1674 c 0,18,19
 490 1711 490 1711 611 1711 c 128,-1,20
 732 1711 732 1711 845 1661 c 1,21,-1
 820 1453 l 1,0,1
EndSplineSet
EndChar

StartChar: g
Encoding: 103 103 76
Width: 1280
GlyphClass: 2
Flags: HW
LayerCount: 2
Fore
SplineSet
332 -159 m 0,0,1
 332 -299 332 -299 582 -299 c 0,2,3
 810 -298 810 -298 872 -266 c 0,4,5
 925 -238 925 -238 939 -215 c 0,6,7
 967 -165 967 -165 967 -117 c 128,-1,8
 967 -69 967 -69 951 -38.5 c 128,-1,9
 935 -8 935 -8 903.5 10.5 c 128,-1,10
 872 29 872 29 837.5 40 c 128,-1,11
 803 51 803 51 752 56 c 128,-1,12
 701 61 701 61 662 63 c 128,-1,13
 623 65 623 65 566 66 c 128,-1,14
 509 67 509 67 478 69 c 1,15,16
 418 36 418 36 375 -24.5 c 128,-1,17
 332 -85 332 -85 332 -159 c 0,0,1
792 978 m 128,-1,19
 739 1018 739 1018 629 1018 c 128,-1,20
 519 1018 519 1018 464 974.5 c 128,-1,21
 409 931 409 931 409 840 c 0,22,23
 409 669 409 669 541 602 c 1,24,-1
 663 615 l 1,25,26
 747 629 747 629 796 687.5 c 128,-1,27
 845 746 845 746 845 842 c 128,-1,18
 845 938 845 938 792 978 c 128,-1,19
910 1148 m 1,28,29
 1035 1207 1035 1207 1222 1207 c 2,30,-1
 1266 1207 l 1,31,-1
 1266 1008 l 1,32,-1
 1018 1008 l 1,33,34
 1090 915 1090 915 1090 849 c 0,35,36
 1090 667 1090 667 985 569.5 c 128,-1,37
 880 472 880 472 695 449 c 1,38,-1
 367 406 l 1,39,-1
 386 272 l 1,40,-1
 667 260 l 1,41,42
 938 247 938 247 1056 180 c 0,43,44
 1168 118 1168 118 1202 16 c 0,45,46
 1222 -42 1222 -42 1221.5 -127.5 c 128,-1,47
 1221 -213 1221 -213 1186 -285 c 128,-1,48
 1151 -357 1151 -357 1094 -400.5 c 128,-1,49
 1037 -444 1037 -444 952 -470 c 0,50,51
 806 -516 806 -516 582 -516 c 1,52,53
 298 -516 298 -516 186 -408 c 0,54,55
 98 -324 98 -324 98 -157.5 c 128,-1,56
 98 9 98 9 303 106 c 1,57,58
 212 119 212 119 175.5 180 c 128,-1,59
 139 241 139 241 133 356 c 1,60,61
 134 448 134 448 192 488 c 0,62,63
 248 527 248 527 292.5 537 c 128,-1,64
 337 547 337 547 374 556 c 1,65,66
 273 569 273 569 212.5 643 c 128,-1,67
 152 717 152 717 152 831 c 0,68,69
 152 1020 152 1020 278.5 1117.5 c 128,-1,70
 405 1215 405 1215 608.5 1215 c 128,-1,71
 812 1215 812 1215 910 1148 c 1,28,29
EndSplineSet
EndChar

StartChar: h
Encoding: 104 104 77
Width: 1350
GlyphClass: 2
Flags: HW
LayerCount: 2
Fore
SplineSet
729 1016 m 0,0,1
 560 1016 560 1016 446 902 c 1,2,-1
 446 0 l 1,3,-1
 154 0 l 1,4,-1
 154 1662 l 1,5,-1
 446 1714 l 1,6,-1
 446 1049 l 1,7,8
 516 1132 516 1132 596.5 1173.5 c 128,-1,9
 677 1215 677 1215 793.5 1215 c 128,-1,10
 910 1215 910 1215 992.5 1178.5 c 0,11,12
 1074 1142 1074 1142 1122 1072 c 0,13,14
 1214 937 1214 937 1214 696 c 2,15,-1
 1214 0 l 1,16,-1
 922 0 l 1,17,-1
 922 711 l 2,18,19
 922 935 922 935 824 993 c 0,20,21
 785 1016 785 1016 729 1016 c 0,0,1
EndSplineSet
EndChar

StartChar: i
Encoding: 105 105 78
Width: 649
GlyphClass: 2
Flags: HW
LayerCount: 2
Fore
SplineSet
179 0 m 1,0,-1
 179 1185 l 1,1,-1
 468 1185 l 1,2,-1
 468 0 l 1,3,-1
 179 0 l 1,0,-1
443 1459.5 m 128,-1,5
 396 1412 396 1412 324 1412 c 128,-1,6
 252 1412 252 1412 206.5 1458.5 c 128,-1,7
 161 1505 161 1505 161 1577 c 128,-1,8
 161 1649 161 1649 207.5 1696.5 c 128,-1,9
 254 1744 254 1744 325 1744 c 128,-1,10
 396 1744 396 1744 443 1696.5 c 128,-1,11
 490 1649 490 1649 490 1578 c 128,-1,4
 490 1507 490 1507 443 1459.5 c 128,-1,5
EndSplineSet
EndChar

StartChar: j
Encoding: 106 106 79
Width: 656
GlyphClass: 2
Flags: HW
LayerCount: 2
Fore
SplineSet
352 1410 m 128,-1,1
 281 1410 281 1410 236 1456.5 c 0,2,3
 191 1504 191 1504 191 1576 c 128,-1,4
 191 1648 191 1648 236 1695 c 0,5,6
 282 1742 282 1742 352 1742 c 128,-1,7
 422 1742 422 1742 467.5 1694.5 c 0,8,9
 513 1648 513 1648 513 1576 c 128,-1,10
 513 1504 513 1504 468 1457 c 128,-1,0
 423 1410 423 1410 352 1410 c 128,-1,1
2 -173 m 1,11,12
 113 -105 113 -105 159.5 -4 c 128,-1,13
 206 97 206 97 206 274 c 2,14,-1
 206 1185 l 1,15,-1
 500 1185 l 1,16,-1
 500 187 l 2,17,18
 500 -29 500 -29 386.5 -175.5 c 128,-1,19
 273 -322 273 -322 89 -364 c 1,20,-1
 2 -173 l 1,11,12
EndSplineSet
EndChar

StartChar: k
Encoding: 107 107 80
Width: 1322
GlyphClass: 2
Flags: HW
LayerCount: 2
Fore
SplineSet
446 0 m 1,0,-1
 154 0 l 1,1,-1
 154 1668 l 1,2,-1
 446 1713 l 1,3,-1
 446 706 l 1,4,-1
 942 1185 l 1,5,-1
 1267 1185 l 1,6,-1
 729 660 l 1,7,-1
 1287 0 l 1,8,-1
 954 0 l 1,9,-1
 550 529 l 1,10,-1
 446 436 l 1,11,-1
 446 0 l 1,0,-1
EndSplineSet
EndChar

StartChar: l
Encoding: 108 108 81
Width: 621
GlyphClass: 2
Flags: HW
LayerCount: 2
Fore
SplineSet
457 0 m 1,0,-1
 163 0 l 1,1,-1
 163 1668 l 1,2,-1
 457 1712 l 1,3,-1
 457 0 l 1,0,-1
EndSplineSet
EndChar

StartChar: m
Encoding: 109 109 82
Width: 1985
GlyphClass: 2
Flags: HW
LayerCount: 2
Fore
SplineSet
1556 790 m 2,0,1
 1556 1014 1556 1014 1409 1014 c 0,2,3
 1286 1014 1286 1014 1188 919 c 0,4,5
 1172 903 1172 903 1145 876 c 1,6,-1
 1145 0 l 1,7,-1
 853 0 l 1,8,-1
 853 797 l 2,9,10
 853 904 853 904 819.5 957.5 c 128,-1,11
 786 1011 786 1011 698 1011 c 0,12,13
 571 1011 571 1011 446 858 c 1,14,-1
 446 0 l 1,15,-1
 154 0 l 1,16,-1
 154 1185 l 1,17,-1
 363 1185 l 1,18,-1
 422 992 l 1,19,20
 527 1215 527 1215 770 1215 c 128,-1,21
 1013 1215 1013 1215 1096 1019 c 1,22,23
 1232 1215 1232 1215 1484 1215 c 0,24,25
 1668 1215 1668 1215 1758.5 1096 c 128,-1,26
 1849 977 1849 977 1849 773 c 2,27,-1
 1849 0 l 1,28,-1
 1556 0 l 1,29,-1
 1556 790 l 2,0,1
EndSplineSet
EndChar

StartChar: n
Encoding: 110 110 83
Width: 1332
GlyphClass: 2
Flags: HW
LayerCount: 2
Fore
SplineSet
862 950 m 128,-1,1
 821 1016 821 1016 727.5 1016 c 128,-1,2
 634 1016 634 1016 560 976 c 128,-1,3
 486 936 486 936 446 881 c 1,4,-1
 446 0 l 1,5,-1
 154 0 l 1,6,-1
 154 1185 l 1,7,-1
 374 1185 l 1,8,-1
 425 1017 l 1,9,10
 478 1105 478 1105 572 1160 c 128,-1,11
 666 1215 666 1215 788 1215 c 0,12,13
 1004 1215 1004 1215 1100 1093.5 c 128,-1,14
 1196 972 1196 972 1196 737 c 2,15,-1
 1196 0 l 1,16,-1
 903 0 l 1,17,-1
 903 752 l 2,18,0
 903 884 903 884 862 950 c 128,-1,1
EndSplineSet
EndChar

StartChar: o
Encoding: 111 111 84
Width: 1299
GlyphClass: 2
Flags: HW
LayerCount: 2
Fore
SplineSet
647 1010 m 128,-1,1
 372 1010 372 1010 372 589 c 128,-1,2
 372 168 372 168 647 168 c 0,3,4
 880 168 880 168 915 458 c 0,5,6
 922 516 922 516 922 588 c 0,7,0
 922 1010 922 1010 647 1010 c 128,-1,1
646 1210 m 256,8,9
 924 1210 924 1210 1066.5 1044.5 c 128,-1,10
 1209 879 1209 879 1209 588 c 128,-1,11
 1209 297 1209 297 1066.5 133 c 128,-1,12
 924 -31 924 -31 646 -31 c 128,-1,13
 368 -31 368 -31 225 133.5 c 128,-1,14
 82 298 82 298 82 588 c 128,-1,15
 82 878 82 878 225 1044 c 128,-1,16
 368 1210 368 1210 646 1210 c 256,8,9
EndSplineSet
EndChar

StartChar: p
Encoding: 112 112 85
Width: 1332
GlyphClass: 2
Flags: HW
LayerCount: 2
Fore
SplineSet
956 577 m 0,0,1
 956 782 956 782 920 874 c 0,2,3
 882 968 882 968 820 998 c 0,4,5
 784 1016 784 1016 717.5 1016 c 128,-1,6
 651 1016 651 1016 575.5 979 c 128,-1,7
 500 942 500 942 446 886 c 1,8,-1
 446 314 l 1,9,10
 592 177 592 177 730 177 c 0,11,12
 956 177 956 177 956 577 c 0,0,1
1231 793 m 128,-1,14
 1247 699 1247 699 1247 577.5 c 128,-1,15
 1247 456 1247 456 1217 347 c 128,-1,16
 1187 238 1187 238 1128.5 154 c 128,-1,17
 1070 70 1070 70 974.5 23 c 128,-1,18
 879 -24 879 -24 756 -24 c 0,19,20
 569 -24 569 -24 446 140 c 1,21,-1
 446 -437 l 1,22,-1
 154 -446 l 1,23,-1
 154 1185 l 1,24,-1
 375 1185 l 1,25,-1
 429 1012 l 1,26,27
 475 1105 475 1105 561 1160 c 128,-1,28
 647 1215 647 1215 758.5 1215 c 128,-1,29
 870 1215 870 1215 951 1185 c 128,-1,30
 1032 1155 1032 1155 1087 1100.5 c 128,-1,31
 1142 1046 1142 1046 1178.5 966.5 c 128,-1,13
 1215 887 1215 887 1231 793 c 128,-1,14
EndSplineSet
EndChar

StartChar: q
Encoding: 113 113 86
Width: 1323
GlyphClass: 2
Flags: HW
LayerCount: 2
Fore
SplineSet
379 714 m 0,0,1
 374 658 374 658 374 589 c 128,-1,2
 374 520 374 520 378.5 466.5 c 128,-1,3
 383 413 383 413 398 356.5 c 0,4,5
 414 300 414 300 438 262 c 0,6,7
 494 176 494 176 605 177 c 1,8,9
 749 177 749 177 884 308 c 1,10,-1
 884 870 l 1,11,12
 769 1016 769 1016 614 1016 c 0,13,14
 406 1016 406 1016 379 714 c 0,0,1
85 586 m 0,15,16
 85 1215 85 1215 572 1215 c 0,17,18
 783 1215 783 1215 892 1009 c 1,19,-1
 935 1185 l 1,20,-1
 1176 1185 l 1,21,-1
 1176 -442 l 1,22,-1
 884 -452 l 1,23,-1
 884 141 l 1,24,25
 746 -24 746 -24 566 -24 c 0,26,27
 278 -24 278 -24 156 225 c 0,28,29
 84 372 84 372 85 586 c 0,15,16
EndSplineSet
EndChar

StartChar: r
Encoding: 114 114 87
Width: 852
GlyphClass: 2
Flags: HW
LayerCount: 2
Fore
SplineSet
708 956 m 0,0,1
 583 956 583 956 446 840 c 1,2,-1
 446 0 l 1,3,-1
 154 0 l 1,4,-1
 154 1185 l 1,5,-1
 397 1185 l 1,6,-1
 433 994 l 1,7,8
 489 1087 489 1087 562 1138.5 c 128,-1,9
 635 1190 635 1190 748 1190 c 0,10,11
 771 1190 771 1190 819 1188 c 1,12,-1
 819 944 l 1,13,14
 791 956 791 956 708 956 c 0,0,1
EndSplineSet
EndChar

StartChar: s
Encoding: 115 115 88
Width: 1070
GlyphClass: 2
Flags: HW
LayerCount: 2
Fore
SplineSet
522 177 m 0,0,1
 721 177 721 177 721 332 c 0,2,3
 722 388 722 388 674 422 c 0,4,5
 632 452 632 452 578 470 c 1,6,-1
 345 560 l 1,7,8
 156 630 156 630 110 762 c 0,9,10
 91 816 91 816 91 893 c 128,-1,11
 91 970 91 970 126.5 1034.5 c 128,-1,12
 162 1099 162 1099 224 1138 c 0,13,14
 347 1215 347 1215 534 1215 c 0,15,16
 653 1215 653 1215 773 1186.5 c 128,-1,17
 893 1158 893 1158 957 1109 c 1,18,-1
 891 921 l 1,19,20
 837 961 837 961 736.5 988.5 c 128,-1,21
 636 1016 636 1016 545 1016 c 0,22,23
 350 1016 350 1016 350 886 c 0,24,25
 350 836 350 836 386 810 c 0,26,27
 429 779 429 779 471 769 c 1,28,-1
 663 698 l 2,29,30
 852 630 852 630 923 544 c 0,31,32
 992 462 992 462 992 357 c 128,-1,33
 992 252 992 252 957 180.5 c 0,34,35
 922 108 922 108 860 64 c 0,36,37
 737 -24 737 -24 536 -24 c 1,38,39
 409 -24 409 -24 288 7 c 128,-1,40
 167 38 167 38 97 90 c 1,41,-1
 163 281 l 1,42,43
 217 239 217 239 324 208 c 128,-1,44
 431 177 431 177 522 177 c 0,0,1
EndSplineSet
EndChar

StartChar: t
Encoding: 116 116 89
Width: 919
GlyphClass: 2
Flags: HW
LayerCount: 2
Fore
SplineSet
889 72 m 1,0,1
 737 -24 737 -24 553 -24 c 0,2,3
 326 -24 326 -24 258 168 c 0,4,5
 218 278 218 278 219 455 c 2,6,-1
 219 1054 l 1,7,-1
 16 1054 l 1,8,-1
 16 1185 l 1,9,-1
 226 1185 l 1,10,-1
 236 1597 l 1,11,-1
 510 1667 l 1,12,-1
 510 1185 l 1,13,-1
 845 1185 l 1,14,-1
 845 1054 l 1,15,-1
 510 1054 l 1,16,-1
 510 377 l 2,17,18
 510 279 510 279 534 228 c 128,-1,19
 558 177 558 177 628 177 c 0,20,21
 679 177 679 177 717.5 197.5 c 128,-1,22
 756 218 756 218 764 222 c 0,23,24
 798 240 798 240 812 251 c 1,25,-1
 889 72 l 1,0,1
EndSplineSet
EndChar

StartChar: u
Encoding: 117 117 90
Width: 1311
GlyphClass: 2
Flags: HW
LayerCount: 2
Fore
SplineSet
519 202 m 128,-1,1
 556 184 556 184 624 184 c 0,2,3
 751 184 751 184 866 297 c 1,4,-1
 866 1185 l 1,5,-1
 1159 1185 l 1,6,-1
 1159 0 l 1,7,-1
 949 0 l 1,8,-1
 891 180 l 1,9,10
 850 87 850 87 768 31.5 c 128,-1,11
 686 -24 686 -24 567 -24 c 0,12,13
 345 -24 345 -24 239.5 96.5 c 128,-1,14
 134 217 134 217 134 454 c 2,15,-1
 134 1185 l 1,16,-1
 424 1185 l 1,17,-1
 424 438 l 2,18,19
 424 319 424 319 453 269.5 c 128,-1,0
 482 220 482 220 519 202 c 128,-1,1
EndSplineSet
EndChar

StartChar: v
Encoding: 118 118 91
Width: 1178
GlyphClass: 2
Flags: HW
LayerCount: 2
Fore
SplineSet
421 0 m 1,0,-1
 20 1185 l 1,1,-1
 323 1185 l 1,2,-1
 591 266 l 1,3,-1
 854 1185 l 1,4,-1
 1160 1185 l 1,5,-1
 757 0 l 1,6,-1
 421 0 l 1,0,-1
EndSplineSet
EndChar

StartChar: w
Encoding: 119 119 92
Width: 1634
GlyphClass: 2
Flags: HW
LayerCount: 2
Fore
SplineSet
816 838 m 1,0,-1
 619 0 l 1,1,-1
 333 0 l 1,2,-1
 20 1185 l 1,3,-1
 295 1185 l 1,4,-1
 482 274 l 1,5,-1
 683 1185 l 1,6,-1
 954 1185 l 1,7,-1
 1151 274 l 1,8,-1
 1345 1185 l 1,9,-1
 1616 1185 l 1,10,-1
 1303 0 l 1,11,-1
 1015 0 l 1,12,-1
 816 838 l 1,0,-1
EndSplineSet
EndChar

StartChar: x
Encoding: 120 120 93
Width: 1179
GlyphClass: 2
Flags: HW
LayerCount: 2
Fore
SplineSet
362 0 m 1,0,-1
 39 0 l 1,1,-1
 446 595 l 1,2,-1
 32 1185 l 1,3,-1
 362 1185 l 1,4,-1
 593 796 l 1,5,-1
 824 1185 l 1,6,-1
 1148 1185 l 1,7,-1
 741 595 l 1,8,-1
 1141 0 l 1,9,-1
 823 0 l 1,10,-1
 593 404 l 1,11,-1
 362 0 l 1,0,-1
EndSplineSet
EndChar

StartChar: y
Encoding: 121 121 94
Width: 1181
GlyphClass: 2
Flags: HW
LayerCount: 2
Fore
SplineSet
20 1185 m 1,0,-1
 315 1185 l 1,1,-1
 627 331 l 1,2,-1
 866 1185 l 1,3,-1
 1163 1185 l 1,4,-1
 744 -35 l 1,5,6
 657 -282 657 -282 513 -386 c 0,7,8
 393 -473 393 -473 226 -473 c 1,9,-1
 145 -276 l 1,10,11
 304 -256 304 -256 380.5 -185 c 128,-1,12
 457 -114 457 -114 499 36 c 1,13,-1
 20 1185 l 1,0,-1
EndSplineSet
EndChar

StartChar: z
Encoding: 122 122 95
Width: 1061
GlyphClass: 2
Flags: HW
LayerCount: 2
Fore
SplineSet
120 986 m 1,0,-1
 120 1185 l 1,1,-1
 955 1185 l 1,2,-1
 955 977 l 1,3,-1
 407 199 l 1,4,-1
 962 199 l 1,5,-1
 962 0 l 1,6,-1
 101 0 l 1,7,-1
 101 210 l 1,8,-1
 664 986 l 1,9,-1
 120 986 l 1,0,-1
EndSplineSet
EndChar

StartChar: braceleft
Encoding: 123 123 96
Width: 856
GlyphClass: 2
Flags: HW
LayerCount: 2
Fore
SplineSet
725 1357 m 1,0,1
 628 1357 628 1357 594 1287 c 0,2,3
 562 1220 562 1220 561 1052.5 c 128,-1,4
 560 885 560 885 512 791 c 128,-1,5
 464 697 464 697 353 664 c 1,6,7
 464 628 464 628 512.5 534 c 128,-1,8
 561 440 561 440 563 283 c 1,9,10
 563 139 563 139 573 103 c 128,-1,11
 583 67 583 67 594.5 41.5 c 128,-1,12
 606 16 606 16 623 2 c 0,13,14
 663 -30 663 -30 725 -29 c 1,15,-1
 725 -213 l 1,16,17
 510 -213 510 -213 416 -103 c 0,18,19
 352 -29 352 -29 330 54 c 0,20,21
 298 178 298 178 289 273 c 128,-1,22
 280 368 280 368 275.5 398 c 128,-1,23
 271 428 271 428 261 463 c 128,-1,24
 251 498 251 498 235 519 c 0,25,26
 198 568 198 568 127 568 c 1,27,-1
 127 760 l 1,28,29
 244 760 244 760 276 921 c 0,30,31
 290 993 290 993 298 1068 c 0,32,33
 320 1283 320 1283 347 1338 c 0,34,35
 448 1542 448 1542 725 1542 c 1,36,-1
 725 1357 l 1,0,1
EndSplineSet
EndChar

StartChar: bar
Encoding: 124 124 97
Width: 752
GlyphClass: 2
Flags: HW
LayerCount: 2
Fore
SplineSet
246 1709 m 1,0,-1
 507 1709 l 1,1,-1
 507 -135 l 1,2,-1
 246 -135 l 1,3,-1
 246 1709 l 1,0,-1
EndSplineSet
EndChar

StartChar: braceright
Encoding: 125 125 98
Width: 858
GlyphClass: 2
Flags: HW
LayerCount: 2
Fore
SplineSet
521 665 m 1,0,1
 408 698 408 698 360.5 791.5 c 128,-1,2
 313 885 313 885 311 1046 c 1,3,4
 311 1191 311 1191 301.5 1225 c 128,-1,5
 292 1259 292 1259 280 1285.5 c 128,-1,6
 268 1312 268 1312 251 1326 c 0,7,8
 210 1358 210 1358 149 1358 c 1,9,-1
 149 1543 l 1,10,11
 364 1542 364 1542 458 1432 c 0,12,13
 522 1356 522 1356 544 1275 c 0,14,15
 576 1154 576 1154 585 1058 c 128,-1,16
 594 962 594 962 598 932 c 128,-1,17
 602 902 602 902 612.5 867 c 0,18,19
 622 832 622 832 638 811 c 0,20,21
 675 761 675 761 746 761 c 1,22,-1
 746 569 l 1,23,24
 631 569 631 569 597 408 c 0,25,26
 582 336 582 336 574 262 c 0,27,28
 552 48 552 48 526 -8 c 0,29,30
 424 -213 424 -213 149 -213 c 1,31,-1
 149 -29 l 1,32,33
 276 -30 276 -30 303 128 c 0,34,35
 315 198 315 198 319 272 c 0,36,37
 330 479 330 479 362 538 c 0,38,39
 412 631 412 631 521 665 c 1,0,1
EndSplineSet
EndChar

StartChar: asciitilde
Encoding: 126 126 99
Width: 1106
GlyphClass: 2
Flags: HW
LayerCount: 2
Fore
SplineSet
997 587 m 1,0,1
 997 408 997 408 902 328 c 0,2,3
 851 286 851 286 780.5 286 c 128,-1,4
 710 286 710 286 652.5 308 c 128,-1,5
 595 330 595 330 533 368 c 0,6,7
 435 428 435 428 404 427.5 c 0,8,9
 373 428 373 428 359 410 c 0,10,11
 338 384 338 384 338 304 c 1,12,-1
 146 304 l 1,13,14
 146 617 146 617 371 617 c 0,15,16
 469 617 469 617 560.5 548 c 128,-1,17
 652 479 652 479 740 479 c 0,18,19
 777 479 777 479 787.5 505.5 c 128,-1,20
 798 532 798 532 798 587 c 1,21,-1
 997 587 l 1,0,1
EndSplineSet
EndChar

StartChar: exclamdown
Encoding: 161 161 101
Width: 806
GlyphClass: 2
Flags: HW
LayerCount: 2
Fore
SplineSet
578 -1 m 1,0,-1
 249 -1 l 1,1,-1
 318 1130 l 1,2,-1
 512 1130 l 1,3,-1
 578 -1 l 1,0,-1
427 1264 m 0,4,5
 342 1264 342 1264 301 1299 c 128,-1,6
 260 1334 260 1334 260 1420 c 0,7,8
 260 1506 260 1506 299.5 1545 c 128,-1,9
 339 1584 339 1584 427 1584 c 0,10,11
 578 1584 578 1584 578 1415 c 0,12,13
 578 1264 578 1264 427 1264 c 0,4,5
EndSplineSet
EndChar

StartChar: cent
Encoding: 162 162 102
Width: 1133
GlyphClass: 2
Flags: HW
LayerCount: 2
Fore
SplineSet
630 997 m 1,0,1
 399 957 399 957 399 600.5 c 128,-1,2
 399 244 399 244 630 198 c 1,3,-1
 630 997 l 1,0,1
1056 81 m 1,4,5
 886 -11 886 -11 771 -11 c 1,6,-1
 771 -154 l 1,7,-1
 630 -154 l 1,8,-1
 630 -17 l 1,9,10
 380 -4 380 -4 242.5 159.5 c 128,-1,11
 105 323 105 323 105 591.5 c 128,-1,12
 105 860 105 860 245.5 1027.5 c 128,-1,13
 386 1195 386 1195 630 1208 c 1,14,-1
 630 1382 l 1,15,-1
 771 1382 l 1,16,-1
 771 1202 l 1,17,18
 919 1185 919 1185 1061 1102 c 1,19,-1
 998 910 l 1,20,21
 960 941 960 941 897 965 c 128,-1,22
 834 989 834 989 771 996 c 1,23,-1
 771 192 l 1,24,25
 825 195 825 195 855 206.5 c 128,-1,26
 885 218 885 218 894.5 221.5 c 128,-1,27
 904 225 904 225 923.5 234.5 c 0,28,29
 942 244 942 244 948 247 c 0,30,31
 987 268 987 268 997 273 c 1,32,-1
 1056 81 l 1,4,5
EndSplineSet
EndChar

StartChar: sterling
Encoding: 163 163 103
Width: 1195
GlyphClass: 2
Flags: HW
LayerCount: 2
Fore
SplineSet
320 724 m 1,0,1
 205 830 205 830 205 988 c 0,2,3
 204 1257 204 1257 492 1326 c 0,4,5
 576 1346 576 1346 678 1346 c 0,6,7
 903 1346 903 1346 1088 1227 c 1,8,-1
 991 1035 l 1,9,10
 839 1128 839 1128 697 1128 c 0,11,12
 477 1128 477 1128 477 953 c 0,13,14
 476 861 476 861 524 792 c 0,15,16
 540 768 540 768 573 728 c 1,17,-1
 994 728 l 1,18,-1
 994 595 l 1,19,-1
 584 595 l 1,20,21
 584 478 584 478 547 385.5 c 128,-1,22
 510 293 510 293 447 199 c 1,23,-1
 1058 199 l 1,24,-1
 1058 0 l 1,25,-1
 201 0 l 1,26,-1
 201 193 l 1,27,28
 261 263 261 263 303 372.5 c 128,-1,29
 345 482 345 482 345 595 c 1,30,-1
 188 595 l 1,31,-1
 188 724 l 1,32,-1
 320 724 l 1,0,1
EndSplineSet
EndChar

StartChar: currency
Encoding: 164 164 104
Width: 1409
GlyphClass: 2
Flags: HW
LayerCount: 2
Fore
SplineSet
944 636 m 1,0,1
 828 557 828 557 698.5 557 c 128,-1,2
 569 557 569 557 469 621 c 1,3,-1
 271 424 l 1,4,-1
 142 554 l 1,5,-1
 337 749 l 1,6,7
 266 859 266 859 266 989 c 128,-1,8
 266 1119 266 1119 344 1236 c 1,9,-1
 142 1438 l 1,10,-1
 271 1567 l 1,11,-1
 474 1365 l 1,12,13
 590 1445 590 1445 722.5 1445 c 128,-1,14
 855 1445 855 1445 962 1375 c 1,15,-1
 1156 1567 l 1,16,-1
 1285 1438 l 1,17,-1
 1090 1243 l 1,18,19
 1154 1143 1154 1143 1154 1012 c 128,-1,20
 1154 881 1154 881 1074 765 c 1,21,-1
 1285 554 l 1,22,-1
 1156 424 l 1,23,-1
 944 636 l 1,0,1
904.5 807 m 128,-1,25
 988 892 988 892 988 1006.5 c 128,-1,26
 988 1121 988 1121 910 1199.5 c 128,-1,27
 832 1278 832 1278 716 1278 c 128,-1,28
 600 1278 600 1278 516 1194 c 128,-1,29
 432 1110 432 1110 432 993.5 c 128,-1,30
 432 877 432 877 511 799.5 c 128,-1,31
 590 722 590 722 705.5 722 c 128,-1,24
 821 722 821 722 904.5 807 c 128,-1,25
EndSplineSet
EndChar

StartChar: yen
Encoding: 165 165 105
Width: 1300
GlyphClass: 2
Flags: HW
LayerCount: 2
Fore
SplineSet
1008 1606 m 1,0,-1
 1324 1606 l 1,1,-1
 891 752 l 1,2,-1
 1121 752 l 1,3,-1
 1121 636 l 1,4,-1
 842 636 l 1,5,-1
 804 518 l 1,6,-1
 1121 518 l 1,7,-1
 1121 404 l 1,8,-1
 802 404 l 1,9,-1
 802 0 l 1,10,-1
 512 0 l 1,11,-1
 512 404 l 1,12,-1
 190 404 l 1,13,-1
 190 518 l 1,14,-1
 510 518 l 1,15,-1
 473 636 l 1,16,-1
 190 636 l 1,17,-1
 190 752 l 1,18,-1
 421 752 l 1,19,-1
 -9 1606 l 1,20,-1
 302 1606 l 1,21,-1
 655 816 l 1,22,-1
 1008 1606 l 1,0,-1
EndSplineSet
EndChar

StartChar: brokenbar
Encoding: 166 166 106
Width: 722
GlyphClass: 2
Flags: HW
LayerCount: 2
Fore
SplineSet
239 1662 m 1,0,-1
 505 1662 l 1,1,-1
 505 925 l 1,2,-1
 239 925 l 1,3,-1
 239 1662 l 1,0,-1
239 646 m 1,4,-1
 505 646 l 1,5,-1
 505 -91 l 1,6,-1
 239 -91 l 1,7,-1
 239 646 l 1,4,-1
EndSplineSet
EndChar

StartChar: section
Encoding: 167 167 107
Width: 1171
GlyphClass: 2
Flags: HW
LayerCount: 2
Fore
SplineSet
430.5 666.5 m 128,-1,1
 485 640 485 640 557 640 c 128,-1,2
 629 640 629 640 663 644.5 c 0,3,4
 697 650 697 650 729 662 c 0,5,6
 796 688 796 688 796 762 c 0,7,8
 796 813 796 813 766.5 842 c 128,-1,9
 737 871 737 871 693.5 880 c 128,-1,10
 650 889 650 889 594 889 c 128,-1,11
 538 889 538 889 504 884 c 0,12,13
 470 878 470 878 439 866 c 0,14,15
 376 841 376 841 376 767 c 128,-1,0
 376 693 376 693 430.5 666.5 c 128,-1,1
376 1019 m 1,16,17
 157 1096 157 1096 157 1284 c 0,18,19
 158 1458 158 1458 286 1533 c 0,20,21
 405 1603 405 1603 574 1603 c 0,22,23
 686 1603 686 1603 802 1561.5 c 128,-1,24
 918 1520 918 1520 978 1460 c 1,25,-1
 898 1281 l 1,26,27
 837 1329 837 1329 752.5 1363 c 128,-1,28
 668 1397 668 1397 606.5 1397 c 128,-1,29
 545 1397 545 1397 518.5 1395 c 128,-1,30
 492 1393 492 1393 463.5 1386 c 0,31,32
 436 1378 436 1378 418 1366 c 0,33,34
 378 1338 378 1338 378 1282 c 0,35,36
 378 1240 378 1240 406 1221 c 0,37,38
 443 1197 443 1197 470.5 1186.5 c 128,-1,39
 498 1176 498 1176 607 1136.5 c 128,-1,40
 716 1097 716 1097 740 1088 c 128,-1,41
 764 1079 764 1079 801.5 1063 c 128,-1,42
 839 1047 839 1047 861.5 1032.5 c 128,-1,43
 884 1018 884 1018 912.5 997.5 c 128,-1,44
 941 977 941 977 958 954 c 128,-1,45
 975 931 975 931 991 902 c 0,46,47
 1021 848 1021 848 1021 754.5 c 128,-1,48
 1021 661 1021 661 962 601.5 c 128,-1,49
 903 542 903 542 808 521 c 1,50,51
 911 481 911 481 967 409 c 128,-1,52
 1023 337 1023 337 1023 216 c 0,53,54
 1023 18 1023 18 837 -62 c 0,55,56
 731 -108 731 -108 596.5 -107.5 c 129,-1,57
 462 -107 462 -107 346 -66 c 128,-1,58
 230 -25 230 -25 159 34 c 1,59,-1
 243 223 l 1,60,61
 289 177 289 177 381.5 138 c 128,-1,62
 474 99 474 99 569 99 c 128,-1,63
 664 99 664 99 726.5 130.5 c 128,-1,64
 789 162 789 162 789 243 c 0,65,66
 789 314 789 314 742 346 c 0,67,68
 703 373 703 373 666.5 384.5 c 128,-1,69
 630 396 630 396 625 398 c 2,70,-1
 463 454 l 1,71,72
 274 516 274 516 216 587 c 0,73,74
 156 660 156 660 156.5 768.5 c 128,-1,75
 157 877 157 877 217 938.5 c 128,-1,76
 277 1000 277 1000 376 1019 c 1,16,17
EndSplineSet
EndChar

StartChar: dieresis
Encoding: 168 168 108
Width: 1151
GlyphClass: 2
Flags: HW
LayerCount: 2
Fore
SplineSet
392 295 m 128,-1,1
 345 248 345 248 272.5 248 c 128,-1,2
 200 248 200 248 154.5 294.5 c 128,-1,3
 109 341 109 341 109 413.5 c 128,-1,4
 109 486 109 486 155 533 c 128,-1,5
 201 580 201 580 273 580 c 128,-1,6
 345 580 345 580 392 533 c 128,-1,7
 439 486 439 486 439 414 c 128,-1,0
 439 342 439 342 392 295 c 128,-1,1
1001.5 295.5 m 128,-1,9
 954 248 954 248 882 248 c 128,-1,10
 810 248 810 248 764.5 294.5 c 128,-1,11
 719 341 719 341 719 413.5 c 128,-1,12
 719 486 719 486 765 533 c 128,-1,13
 811 580 811 580 882.5 580 c 128,-1,14
 954 580 954 580 1001.5 532.5 c 128,-1,15
 1049 485 1049 485 1049 414 c 128,-1,8
 1049 343 1049 343 1001.5 295.5 c 128,-1,9
EndSplineSet
EndChar

StartChar: copyright
Encoding: 169 169 109
Width: 2126
GlyphClass: 2
Flags: HW
LayerCount: 2
Fore
SplineSet
367 815 m 0,0,1
 367 496 367 496 554.5 299.5 c 128,-1,2
 742 103 742 103 1056 103 c 0,3,4
 1265 103 1265 103 1427.5 193 c 128,-1,5
 1590 283 1590 283 1679.5 445 c 128,-1,6
 1769 607 1769 607 1769 813 c 128,-1,7
 1769 1019 1769 1019 1679 1183 c 128,-1,8
 1589 1347 1589 1347 1429 1439.5 c 128,-1,9
 1269 1532 1269 1532 1067.5 1532 c 128,-1,10
 866 1532 866 1532 705.5 1438.5 c 128,-1,11
 545 1345 545 1345 456 1181.5 c 128,-1,12
 367 1018 367 1018 367 815 c 0,0,1
1388 1071 m 1,13,14
 1230 1152 1230 1152 1084 1152 c 128,-1,15
 938 1152 938 1152 873 1066.5 c 128,-1,16
 808 981 808 981 808 814 c 128,-1,17
 808 647 808 647 873 564 c 128,-1,18
 938 481 938 481 1092 481 c 0,19,20
 1200 481 1200 481 1300 525 c 0,21,22
 1334 540 1334 540 1393 570 c 1,23,-1
 1393 385 l 1,24,25
 1308 342 1308 342 1245 321.5 c 128,-1,26
 1182 301 1182 301 1105 301 c 0,27,28
 855 301 855 301 726 436.5 c 128,-1,29
 597 572 597 572 597 818.5 c 128,-1,30
 597 1065 597 1065 726 1199 c 128,-1,31
 855 1333 855 1333 1095 1333 c 0,32,33
 1234 1333 1234 1333 1388 1252 c 1,34,-1
 1388 1071 l 1,13,14
1536.5 22.5 m 128,-1,36
 1326 -91 1326 -91 1060.5 -91 c 128,-1,37
 795 -91 795 -91 587 24.5 c 128,-1,38
 379 140 379 140 264 347 c 128,-1,39
 149 554 149 554 149 818 c 0,40,41
 149 1017 149 1017 218.5 1186.5 c 128,-1,42
 288 1356 288 1356 409.5 1474.5 c 128,-1,43
 531 1593 531 1593 701 1660 c 128,-1,44
 871 1727 871 1727 1067.5 1727 c 128,-1,45
 1264 1727 1264 1727 1435 1658.5 c 128,-1,46
 1606 1590 1606 1590 1727 1470.5 c 128,-1,47
 1848 1351 1848 1351 1917 1182 c 128,-1,48
 1986 1013 1986 1013 1986 818 c 0,49,50
 1986 551 1986 551 1866.5 343.5 c 128,-1,35
 1747 136 1747 136 1536.5 22.5 c 128,-1,36
EndSplineSet
EndChar

StartChar: ordfeminine
Encoding: 170 170 110
Width: 1246
GlyphClass: 2
Flags: HW
LayerCount: 2
Fore
SplineSet
263 1552 m 1,0,1
 301 1552 301 1552 414.5 1595 c 128,-1,2
 528 1638 528 1638 599 1638 c 0,3,4
 800 1638 800 1638 880 1543 c 128,-1,5
 960 1448 960 1448 960 1235 c 2,6,-1
 960 686 l 1,7,-1
 844 686 l 1,8,-1
 817 828 l 1,9,10
 814 828 814 828 802 811 c 0,11,12
 767 764 767 764 752 748 c 1,13,14
 661 668 661 668 518 668 c 128,-1,15
 375 668 375 668 290.5 743 c 128,-1,16
 206 818 206 818 206 962.5 c 128,-1,17
 206 1107 206 1107 304.5 1182.5 c 128,-1,18
 403 1258 403 1258 588 1258 c 128,-1,19
 773 1258 773 1258 799 1218 c 1,20,-1
 799 1276 l 2,21,22
 799 1403 799 1403 759.5 1458 c 128,-1,23
 720 1513 720 1513 592.5 1513 c 128,-1,24
 465 1513 465 1513 340 1454 c 1,25,-1
 316 1443 l 1,26,-1
 263 1552 l 1,0,1
367 971 m 0,27,28
 367 867 367 867 411 824 c 128,-1,29
 455 781 455 781 542 781 c 0,30,31
 695 781 695 781 782 882 c 0,32,33
 799 902 799 902 799 903 c 2,34,-1
 799 1141 l 1,35,36
 689 1158 689 1158 623 1158 c 0,37,38
 367 1158 367 1158 367 971 c 0,27,28
270 575 m 1,39,-1
 954 575 l 1,40,-1
 954 446 l 1,41,-1
 270 446 l 1,42,-1
 270 575 l 1,39,-1
EndSplineSet
EndChar

StartChar: guillemotleft
Encoding: 171 171 111
Width: 1754
GlyphClass: 2
Flags: HW
LayerCount: 2
Fore
SplineSet
1135 588 m 1,0,-1
 1602 299 l 1,1,-1
 1602 8 l 1,2,-1
 861 473 l 1,3,-1
 861 697 l 1,4,-1
 1602 1161 l 1,5,-1
 1602 870 l 1,6,-1
 1135 588 l 1,0,-1
396 588 m 1,7,-1
 862 299 l 1,8,-1
 862 8 l 1,9,-1
 121 473 l 1,10,-1
 121 697 l 1,11,-1
 862 1161 l 1,12,-1
 862 870 l 1,13,-1
 396 588 l 1,7,-1
EndSplineSet
EndChar

StartChar: logicalnot
Encoding: 172 172 112
Width: 1388
GlyphClass: 2
Flags: HW
LayerCount: 2
Fore
SplineSet
77 768 m 1,0,-1
 77 990 l 1,1,-1
 1234 990 l 1,2,-1
 1234 277 l 1,3,-1
 1045 277 l 1,4,-1
 1045 768 l 1,5,-1
 77 768 l 1,0,-1
EndSplineSet
EndChar

StartChar: uni00AD
Encoding: 173 173 113
Width: 1038
GlyphClass: 2
Flags: HW
LayerCount: 2
Fore
SplineSet
158 558 m 1,0,-1
 158 772 l 1,1,-1
 836 772 l 1,2,-1
 836 558 l 1,3,-1
 158 558 l 1,0,-1
EndSplineSet
EndChar

StartChar: registered
Encoding: 174 174 114
Width: 1378
GlyphClass: 2
Flags: HW
LayerCount: 2
Fore
SplineSet
1034.5 651.5 m 128,-1,1
 886 573 886 573 701.5 573 c 128,-1,2
 517 573 517 573 368.5 650.5 c 128,-1,3
 220 728 220 728 135 871 c 128,-1,4
 50 1014 50 1014 50 1195.5 c 128,-1,5
 50 1377 50 1377 135.5 1520.5 c 128,-1,6
 221 1664 221 1664 369.5 1743 c 128,-1,7
 518 1822 518 1822 678.5 1822 c 128,-1,8
 839 1822 839 1822 959.5 1775.5 c 128,-1,9
 1080 1729 1080 1729 1167 1647.5 c 128,-1,10
 1254 1566 1254 1566 1304.5 1449.5 c 128,-1,11
 1355 1333 1355 1333 1355 1174.5 c 128,-1,12
 1355 1016 1355 1016 1269 873 c 128,-1,0
 1183 730 1183 730 1034.5 651.5 c 128,-1,1
195 1194 m 256,13,14
 195 971 195 971 335.5 833.5 c 128,-1,15
 476 696 476 696 700 696 c 128,-1,16
 924 696 924 696 1066.5 835 c 128,-1,17
 1209 974 1209 974 1209 1195.5 c 128,-1,18
 1209 1417 1209 1417 1067 1556.5 c 128,-1,19
 925 1696 925 1696 701 1696 c 128,-1,20
 477 1696 477 1696 336 1556.5 c 128,-1,21
 195 1417 195 1417 195 1194 c 256,13,14
655 1426 m 2,22,-1
 627 1426 l 1,23,-1
 627 1247 l 1,24,-1
 691 1247 l 2,25,26
 716 1247 716 1247 726.5 1255 c 128,-1,27
 737 1263 737 1263 737 1285 c 1,28,29
 779 1290 779 1290 800 1305 c 128,-1,30
 821 1320 821 1320 821 1345.5 c 128,-1,31
 821 1371 821 1371 814 1384 c 128,-1,32
 807 1397 807 1397 792.5 1404.5 c 128,-1,33
 778 1412 778 1412 763.5 1416.5 c 128,-1,34
 749 1421 749 1421 726 1423 c 0,35,36
 692 1426 692 1426 655 1426 c 2,22,-1
924 1440 m 0,37,38
 950 1402 950 1402 949.5 1332 c 128,-1,39
 949 1262 949 1262 907 1223 c 128,-1,40
 865 1184 865 1184 780 1168 c 1,41,-1
 958 912 l 1,42,-1
 841 853 l 1,43,-1
 662 1145 l 1,44,-1
 624 1145 l 1,45,-1
 624 873 l 1,46,-1
 500 873 l 1,47,-1
 500 1527 l 1,48,-1
 639 1527 l 2,49,50
 864 1528 864 1528 924 1440 c 0,37,38
EndSplineSet
EndChar

StartChar: glyph115
Encoding: 175 175 115
Width: 1003
GlyphClass: 2
Flags: HW
LayerCount: 2
Fore
SplineSet
98 215 m 1,0,-1
 780 215 l 1,1,-1
 780 98 l 1,2,-1
 98 98 l 1,3,-1
 98 215 l 1,0,-1
EndSplineSet
EndChar

StartChar: degree
Encoding: 176 176 116
Width: 819
GlyphClass: 2
Flags: HW
LayerCount: 2
Fore
SplineSet
407 1195 m 128,-1,1
 317 1195 317 1195 258 1137.5 c 128,-1,2
 199 1080 199 1080 199 990 c 128,-1,3
 199 900 199 900 257.5 842.5 c 128,-1,4
 316 785 316 785 407 785 c 128,-1,5
 498 785 498 785 555.5 842 c 128,-1,6
 613 899 613 899 613 989.5 c 128,-1,7
 613 1080 613 1080 555 1137.5 c 128,-1,0
 497 1195 497 1195 407 1195 c 128,-1,1
203 798 m 128,-1,9
 123 876 123 876 123 992.5 c 128,-1,10
 123 1109 123 1109 205 1184 c 128,-1,11
 287 1259 287 1259 407.5 1259 c 128,-1,12
 528 1259 528 1259 608.5 1183 c 128,-1,13
 689 1107 689 1107 689 987.5 c 128,-1,14
 689 868 689 868 606 794 c 128,-1,15
 523 720 523 720 403 720 c 128,-1,8
 283 720 283 720 203 798 c 128,-1,9
EndSplineSet
EndChar

StartChar: plusminus
Encoding: 177 177 117
Width: 1158
GlyphClass: 2
Flags: HW
LayerCount: 2
Fore
SplineSet
222 -22 m 1,0,-1
 222 175 l 1,1,-1
 993 175 l 1,2,-1
 993 -22 l 1,3,-1
 222 -22 l 1,0,-1
724 707 m 1,4,-1
 724 351 l 1,5,-1
 490 351 l 1,6,-1
 490 707 l 1,7,-1
 193 707 l 1,8,-1
 193 926 l 1,9,-1
 490 926 l 1,10,-1
 490 1280 l 1,11,-1
 724 1280 l 1,12,-1
 724 926 l 1,13,-1
 1022 926 l 1,14,-1
 1022 707 l 1,15,-1
 724 707 l 1,4,-1
EndSplineSet
EndChar

StartChar: uni00B2
Encoding: 178 178 118
Width: 1126
GlyphClass: 2
Flags: HW
LayerCount: 2
Fore
SplineSet
270 1586 m 1,0,1
 394 1638 394 1638 561 1638 c 128,-1,2
 728 1638 728 1638 823.5 1565 c 128,-1,3
 919 1492 919 1492 919 1357 c 0,4,5
 919 1289 919 1289 904 1253 c 128,-1,6
 889 1217 889 1217 881 1197.5 c 128,-1,7
 873 1178 873 1178 853 1153 c 128,-1,8
 833 1128 833 1128 823.5 1115.5 c 128,-1,9
 814 1103 814 1103 787 1078 c 0,10,11
 760 1054 760 1054 752 1046 c 0,12,13
 732 1028 732 1028 676 982 c 1,14,-1
 485 820 l 1,15,-1
 891 820 l 1,16,-1
 891 668 l 1,17,-1
 253 668 l 1,18,-1
 253 805 l 1,19,-1
 524 1045 l 2,20,21
 540 1059 540 1059 581.5 1092.5 c 128,-1,22
 623 1126 623 1126 644.5 1146.5 c 0,23,24
 666 1166 666 1166 694 1200 c 0,25,26
 747 1263 747 1263 747 1345 c 0,27,28
 747 1500 747 1500 566 1500 c 0,29,30
 444 1500 444 1500 270 1448 c 1,31,-1
 270 1586 l 1,0,1
EndSplineSet
EndChar

StartChar: uni00B3
Encoding: 179 179 119
Width: 1208
GlyphClass: 2
Flags: HW
LayerCount: 2
Fore
SplineSet
941.5 1042 m 128,-1,1
 1017 967 1017 967 1017 852.5 c 128,-1,2
 1017 738 1017 738 961 670 c 0,3,4
 855 540 855 540 628 540 c 0,5,6
 445 540 445 540 300 618 c 1,7,-1
 351 745 l 1,8,9
 503 672 503 672 615 672 c 128,-1,10
 727 672 727 672 789 719 c 128,-1,11
 851 766 851 766 851 862 c 0,12,13
 851 1043 851 1043 589 1072 c 1,14,-1
 589 1207 l 1,15,16
 693 1207 693 1207 762.5 1251 c 128,-1,17
 832 1295 832 1295 832 1383 c 0,18,19
 832 1541 832 1541 608 1541 c 0,20,21
 500 1541 500 1541 374 1484 c 1,22,-1
 327 1611 l 1,23,24
 457 1677 457 1677 613 1677 c 0,25,26
 770 1677 770 1677 874 1611 c 0,27,28
 986 1540 986 1540 986 1394 c 0,29,30
 986 1287 986 1287 915 1214.5 c 128,-1,31
 844 1142 844 1142 741 1142 c 1,32,0
 866 1117 866 1117 941.5 1042 c 128,-1,1
EndSplineSet
EndChar

StartChar: acute
Encoding: 180 180 120
Width: 1117
GlyphClass: 2
Flags: HW
LayerCount: 2
Fore
SplineSet
449 269 m 1,0,-1
 638 892 l 1,1,-1
 924 766 l 1,2,-1
 569 213 l 1,3,-1
 449 269 l 1,0,-1
EndSplineSet
EndChar

StartChar: uni00B5
Encoding: 181 181 121
Width: 1320
GlyphClass: 2
Flags: HW
LayerCount: 2
Fore
SplineSet
599 -20 m 0,0,1
 458 -20 458 -20 359 113 c 1,2,-1
 359 -291 l 1,3,-1
 185 -291 l 1,4,-1
 185 1169 l 1,5,-1
 359 1169 l 1,6,-1
 359 442 l 2,7,8
 359 123 359 123 611 123 c 0,9,10
 717 123 717 123 811 166.5 c 128,-1,11
 905 210 905 210 958 274 c 1,12,-1
 958 1169 l 1,13,-1
 1166 1169 l 1,14,-1
 1166 16 l 1,15,-1
 1020 16 l 1,16,-1
 996 170 l 1,17,18
 825 -20 825 -20 599 -20 c 0,0,1
EndSplineSet
EndChar

StartChar: paragraph
Encoding: 182 182 122
Width: 1417
GlyphClass: 2
Flags: HW
LayerCount: 2
Fore
SplineSet
100 1214 m 0,0,1
 100 1550 100 1550 502 1596 c 0,2,3
 584 1606 584 1606 686 1606 c 2,4,-1
 1247 1606 l 1,5,-1
 1247 0 l 1,6,-1
 1015 0 l 1,7,-1
 1015 1457 l 1,8,-1
 877 1457 l 1,9,-1
 877 0 l 1,10,-1
 641 0 l 1,11,-1
 641 801 l 1,12,13
 100 801 100 801 100 1214 c 0,0,1
EndSplineSet
EndChar

StartChar: periodcentered
Encoding: 183 183 123
Width: 591
GlyphClass: 2
Flags: HW
LayerCount: 2
Fore
SplineSet
415.5 569.5 m 128,-1,1
 365 519 365 519 289.5 519 c 128,-1,2
 214 519 214 519 164.5 569.5 c 128,-1,3
 115 620 115 620 115 695.5 c 128,-1,4
 115 771 115 771 164.5 821.5 c 128,-1,5
 214 872 214 872 289.5 872 c 128,-1,6
 365 872 365 872 415.5 822 c 128,-1,7
 466 772 466 772 466 696 c 128,-1,0
 466 620 466 620 415.5 569.5 c 128,-1,1
EndSplineSet
EndChar

StartChar: cedilla
Encoding: 184 184 124
Width: 637
GlyphClass: 2
Flags: HW
LayerCount: 2
Fore
SplineSet
309 -642 m 0,0,1
 251 -642 251 -642 221 -633 c 128,-1,2
 191 -624 191 -624 184 -622.5 c 128,-1,3
 177 -621 177 -621 161.5 -615.5 c 128,-1,4
 146 -610 146 -610 142 -608 c 0,5,6
 106 -594 106 -594 102 -593 c 1,7,-1
 102 -462 l 1,8,-1
 122 -468 l 1,9,10
 231 -505 231 -505 291.5 -505 c 128,-1,11
 352 -505 352 -505 384 -478.5 c 128,-1,12
 416 -452 416 -452 416 -396.5 c 128,-1,13
 416 -341 416 -341 396 -311 c 0,14,15
 376 -280 376 -280 338 -266 c 0,16,17
 270 -241 270 -241 154 -241 c 1,18,-1
 166 45 l 1,19,-1
 288 45 l 1,20,-1
 281 -136 l 1,21,22
 414 -136 414 -136 501 -199.5 c 128,-1,23
 588 -263 588 -263 588 -386 c 128,-1,24
 588 -509 588 -509 514 -575.5 c 128,-1,25
 440 -642 440 -642 309 -642 c 0,0,1
EndSplineSet
EndChar

StartChar: uni00B9
Encoding: 185 185 125
Width: 740
GlyphClass: 2
Flags: HW
LayerCount: 2
Fore
SplineSet
327 1304 m 1,0,-1
 156 1232 l 1,1,-1
 119 1345 l 1,2,-1
 356 1440 l 1,3,-1
 496 1414 l 1,4,-1
 496 478 l 1,5,-1
 327 478 l 1,6,-1
 327 1304 l 1,0,-1
EndSplineSet
EndChar

StartChar: ordmasculine
Encoding: 186 186 126
Width: 1265
GlyphClass: 2
Flags: HW
LayerCount: 2
Fore
SplineSet
953.5 1504.5 m 128,-1,1
 1063 1371 1063 1371 1063 1151.5 c 128,-1,2
 1063 932 1063 932 954 801 c 128,-1,3
 845 670 845 670 638 670 c 128,-1,4
 431 670 431 670 322.5 801 c 128,-1,5
 214 932 214 932 214 1151.5 c 128,-1,6
 214 1371 214 1371 323 1504.5 c 128,-1,7
 432 1638 432 1638 638 1638 c 128,-1,0
 844 1638 844 1638 953.5 1504.5 c 128,-1,1
371 1154 m 0,8,9
 371 898 371 898 513 824 c 0,10,11
 566 796 566 796 638 796.5 c 128,-1,12
 710 797 710 797 763 824 c 128,-1,13
 816 851 816 851 846 901 c 0,14,15
 904 997 904 997 905 1154 c 0,16,17
 905 1309 905 1309 846 1407 c 0,18,19
 783 1512 783 1512 640.5 1512 c 128,-1,20
 498 1512 498 1512 434.5 1414.5 c 128,-1,21
 371 1317 371 1317 371 1154 c 0,8,9
300 575 m 1,22,-1
 984 575 l 1,23,-1
 984 446 l 1,24,-1
 300 446 l 1,25,-1
 300 575 l 1,22,-1
EndSplineSet
EndChar

StartChar: guillemotright
Encoding: 187 187 127
Width: 1780
GlyphClass: 2
Flags: HW
LayerCount: 2
Fore
SplineSet
172 1161 m 1,0,-1
 913 697 l 1,1,-1
 913 473 l 1,2,-1
 172 8 l 1,3,-1
 172 299 l 1,4,-1
 648 588 l 1,5,-1
 172 870 l 1,6,-1
 172 1161 l 1,0,-1
911 1161 m 1,7,-1
 1653 697 l 1,8,-1
 1653 473 l 1,9,-1
 911 8 l 1,10,-1
 911 299 l 1,11,-1
 1388 588 l 1,12,-1
 911 870 l 1,13,-1
 911 1161 l 1,7,-1
EndSplineSet
EndChar

StartChar: onequarter
Encoding: 188 188 128
Width: 1947
GlyphClass: 2
Flags: HW
LayerCount: 2
Fore
SplineSet
1478 244 m 1,0,-1
 1478 648 l 1,1,-1
 1210 244 l 1,2,-1
 1478 244 l 1,0,-1
1683 965 m 1,3,-1
 1683 245 l 1,4,-1
 1829 245 l 1,5,-1
 1829 73 l 1,6,-1
 1683 73 l 1,7,-1
 1683 -168 l 1,8,-1
 1474 -177 l 1,9,-1
 1474 73 l 1,10,-1
 987 73 l 1,11,-1
 957 217 l 1,12,-1
 1504 1011 l 1,13,-1
 1683 965 l 1,3,-1
1222 1498 m 1,14,-1
 1410 1410 l 1,15,-1
 553 -115 l 1,16,-1
 369 -30 l 1,17,-1
 1222 1498 l 1,14,-1
298 1261 m 1,18,-1
 152 1198 l 1,19,-1
 91 1353 l 1,20,-1
 362 1460 l 1,21,-1
 525 1425 l 1,22,-1
 525 481 l 1,23,-1
 298 481 l 1,24,-1
 298 1261 l 1,18,-1
EndSplineSet
EndChar

StartChar: onehalf
Encoding: 189 189 129
Width: 2119
GlyphClass: 2
Flags: HW
LayerCount: 2
Fore
SplineSet
1876.5 893 m 128,-1,1
 1980 819 1980 819 1980 678 c 0,2,3
 1980 551 1980 551 1911 466 c 0,4,5
 1873 419 1873 419 1849 395.5 c 0,6,7
 1826 372 1826 372 1796 346 c 0,8,9
 1760 315 1760 315 1755 312 c 2,10,-1
 1607 183 l 1,11,-1
 1954 183 l 1,12,-1
 1954 -9 l 1,13,-1
 1274 -9 l 1,14,-1
 1274 153 l 1,15,16
 1314 187 1314 187 1407 263 c 0,17,18
 1603 423 1603 423 1675 506.5 c 128,-1,19
 1747 590 1747 590 1747 654 c 0,20,21
 1747 781 1747 781 1594 781 c 0,22,23
 1476 781 1476 781 1312 709 c 1,24,-1
 1267 884 l 1,25,26
 1473 967 1473 967 1623 967 c 128,-1,0
 1773 967 1773 967 1876.5 893 c 128,-1,1
320 1261 m 1,27,-1
 175 1198 l 1,28,-1
 113 1353 l 1,29,-1
 385 1460 l 1,30,-1
 547 1425 l 1,31,-1
 547 481 l 1,32,-1
 320 481 l 1,33,-1
 320 1261 l 1,27,-1
1234 1498 m 1,34,-1
 1422 1410 l 1,35,-1
 565 -115 l 1,36,-1
 381 -30 l 1,37,-1
 1234 1498 l 1,34,-1
EndSplineSet
EndChar

StartChar: threequarters
Encoding: 190 190 130
Width: 2178
GlyphClass: 2
Flags: HW
LayerCount: 2
Fore
SplineSet
1714 244 m 1,0,-1
 1714 654 l 1,1,-1
 1428 244 l 1,2,-1
 1714 244 l 1,0,-1
1907 965 m 1,3,-1
 1907 244 l 1,4,-1
 2053 244 l 1,5,-1
 2053 73 l 1,6,-1
 1907 73 l 1,7,-1
 1907 -168 l 1,8,-1
 1710 -177 l 1,9,-1
 1710 73 l 1,10,-1
 1210 73 l 1,11,-1
 1181 217 l 1,12,-1
 1728 1011 l 1,13,-1
 1907 965 l 1,3,-1
1441 1498 m 1,14,-1
 1633 1410 l 1,15,-1
 777 -115 l 1,16,-1
 593 -30 l 1,17,-1
 1441 1498 l 1,14,-1
449 649 m 0,18,19
 638 649 638 649 638 797 c 0,20,21
 638 886 638 886 566 929 c 128,-1,22
 494 972 494 972 386 978 c 1,23,-1
 386 1154 l 1,24,25
 522 1154 522 1154 583 1214 c 0,26,27
 618 1248 618 1248 619 1303 c 1,28,29
 619 1421 619 1421 447 1421 c 0,30,31
 348 1421 348 1421 213 1363 c 1,32,-1
 138 1528 l 1,33,34
 261 1604 261 1604 437 1604 c 0,35,36
 834 1604 834 1604 834 1304 c 0,37,38
 834 1210 834 1210 777 1146 c 128,-1,39
 720 1082 720 1082 636 1067 c 1,40,41
 733 1045 733 1045 798.5 972 c 128,-1,42
 864 899 864 899 864 803 c 128,-1,43
 864 707 864 707 830.5 643.5 c 0,44,45
 798 580 798 580 738 542 c 0,46,47
 621 468 621 468 447.5 468.5 c 128,-1,48
 274 469 274 469 136 533 c 1,49,-1
 198 709 l 1,50,51
 307 649 307 649 449 649 c 0,18,19
EndSplineSet
EndChar

StartChar: questiondown
Encoding: 191 191 131
Width: 1209
GlyphClass: 2
Flags: HW
LayerCount: 2
Fore
SplineSet
796 1571 m 1,0,1
 849 1548 849 1548 881 1492 c 128,-1,2
 913 1436 913 1436 913 1363 c 1,3,4
 891 1309 891 1309 839 1276 c 128,-1,5
 787 1243 787 1243 716 1243 c 1,6,7
 664 1267 664 1267 631.5 1322.5 c 128,-1,8
 599 1378 599 1378 599 1451 c 1,9,10
 621 1504 621 1504 673.5 1537.5 c 128,-1,11
 726 1571 726 1571 796 1571 c 1,0,1
901 705 m 1,12,13
 879 697 879 697 830 681.5 c 128,-1,14
 781 666 781 666 748.5 655.5 c 128,-1,15
 716 645 716 645 667.5 625.5 c 128,-1,16
 619 606 619 606 586.5 589 c 128,-1,17
 554 572 554 572 517 545.5 c 0,18,19
 480 520 480 520 458 492 c 0,20,21
 406 426 406 426 406.5 360.5 c 128,-1,22
 407 295 407 295 427 257.5 c 128,-1,23
 447 220 447 220 486.5 201 c 128,-1,24
 526 182 526 182 571 175 c 128,-1,25
 616 168 616 168 679 168 c 128,-1,26
 742 168 742 168 884 195.5 c 128,-1,27
 1026 223 1026 223 1026 247 c 1,28,-1
 1100 33 l 1,29,30
 906 -65 906 -65 660 -65 c 0,31,32
 429 -65 429 -65 282 22 c 0,33,34
 122 117 122 117 122 329 c 0,35,36
 122 687 122 687 631 841 c 1,37,-1
 631 1150 l 1,38,-1
 901 1150 l 1,39,-1
 901 705 l 1,12,13
EndSplineSet
EndChar

StartChar: AE
Encoding: 198 198 138
Width: 1989
GlyphClass: 2
Flags: HW
LayerCount: 2
Fore
SplineSet
932 1413 m 1,0,-1
 554 519 l 1,1,-1
 932 519 l 1,2,-1
 932 1413 l 1,0,-1
1893 1408 m 1,3,-1
 1220 1408 l 1,4,-1
 1220 937 l 1,5,-1
 1821 937 l 1,6,-1
 1821 764 l 1,7,-1
 1221 764 l 1,8,-1
 1221 199 l 1,9,-1
 1911 199 l 1,10,-1
 1911 0 l 1,11,-1
 933 0 l 1,12,-1
 933 364 l 1,13,-1
 501 364 l 1,14,-1
 349 0 l 1,15,-1
 43 0 l 1,16,-1
 756 1607 l 1,17,-1
 1893 1607 l 1,18,-1
 1893 1408 l 1,3,-1
EndSplineSet
EndChar

StartChar: Eth
Encoding: 208 208 148
Width: 1559
GlyphClass: 2
Flags: HW
LayerCount: 2
Fore
SplineSet
619 199 m 2,0,1
 924 200 924 200 1037 348 c 0,2,3
 1096 426 1096 426 1120.5 533.5 c 128,-1,4
 1145 641 1145 641 1145 801 c 128,-1,5
 1145 961 1145 961 1121 1070.5 c 128,-1,6
 1097 1180 1097 1180 1038 1260 c 0,7,8
 924 1414 924 1414 619 1414 c 2,9,-1
 466 1414 l 1,10,-1
 466 924 l 1,11,-1
 723 924 l 1,12,-1
 723 729 l 1,13,-1
 466 729 l 1,14,-1
 466 199 l 1,15,-1
 619 199 l 2,0,1
691 1607 m 2,16,17
 1454 1607 1454 1607 1454 798 c 0,18,19
 1454 411 1454 411 1262 205.5 c 128,-1,20
 1070 0 1070 0 691 0 c 2,21,-1
 161 0 l 1,22,-1
 161 729 l 1,23,-1
 -2 729 l 1,24,-1
 -2 924 l 1,25,-1
 161 924 l 1,26,-1
 161 1607 l 1,27,-1
 691 1607 l 2,16,17
EndSplineSet
EndChar

StartChar: multiply
Encoding: 215 215 155
Width: 1361
GlyphClass: 2
Flags: HW
LayerCount: 2
Fore
SplineSet
393 1011 m 1,0,-1
 699 715 l 1,1,-1
 1005 1011 l 1,2,-1
 1159 847 l 1,3,-1
 861 560 l 1,4,-1
 1159 272 l 1,5,-1
 1005 108 l 1,6,-1
 699 404 l 1,7,-1
 393 108 l 1,8,-1
 240 272 l 1,9,-1
 537 560 l 1,10,-1
 240 847 l 1,11,-1
 393 1011 l 1,0,-1
EndSplineSet
EndChar

StartChar: Oslash
Encoding: 216 216 156
Width: 1612
GlyphClass: 2
Flags: HW
LayerCount: 2
Fore
SplineSet
1219 1521 m 1,0,1
 1507 1322 1507 1322 1507 801 c 0,2,3
 1507 151 1507 151 1069 5 c 0,4,5
 952 -34 952 -34 811.5 -34 c 128,-1,6
 671 -34 671 -34 575 -4 c 1,7,-1
 506 -167 l 1,8,-1
 382 -121 l 1,9,-1
 452 44 l 1,10,11
 105 223 105 223 105 801 c 0,12,13
 105 1184 105 1184 270 1406 c 0,14,15
 442 1636 442 1636 800 1636 c 0,16,17
 969 1636 969 1636 1104 1582 c 1,18,-1
 1179 1759 l 1,19,-1
 1301 1714 l 1,20,-1
 1219 1521 l 1,0,1
666 215 m 1,21,22
 752 191 752 191 826 191 c 128,-1,23
 900 191 900 191 970.5 224 c 128,-1,24
 1041 257 1041 257 1084 311.5 c 0,25,26
 1128 366 1128 366 1154 447 c 0,27,28
 1200 586 1200 586 1199 801 c 0,29,30
 1199 1098 1199 1098 1108 1252 c 1,31,-1
 666 215 l 1,21,22
1010 1356 m 1,32,33
 925 1411 925 1411 833 1411 c 128,-1,34
 741 1411 741 1411 684.5 1394 c 128,-1,35
 628 1377 628 1377 587.5 1347.5 c 128,-1,36
 547 1318 547 1318 516.5 1274 c 128,-1,37
 486 1230 486 1230 466.5 1179.5 c 0,38,39
 446 1130 446 1130 434 1066 c 0,40,41
 412 957 412 957 412.5 782.5 c 128,-1,42
 413 608 413 608 477 526 c 1,43,44
 484 352 484 352 554 287 c 1,45,-1
 1010 1356 l 1,32,33
EndSplineSet
EndChar

StartChar: Thorn
Encoding: 222 222 162
Width: 1410
GlyphClass: 2
Flags: HW
LayerCount: 2
Fore
SplineSet
450 566 m 1,0,1
 614 520 614 520 736 520 c 0,2,3
 988 520 988 520 987 859 c 0,4,5
 986 1126 986 1126 818 1186 c 0,6,7
 766 1204 766 1204 681 1204.5 c 128,-1,8
 596 1205 596 1205 450 1166 c 1,9,-1
 450 566 l 1,0,1
1124.5 446 m 128,-1,11
 974 304 974 304 684 304 c 0,12,13
 538 304 538 304 450 382 c 1,14,-1
 450 -136 l 1,15,-1
 156 -136 l 1,16,-1
 156 1607 l 1,17,-1
 439 1607 l 1,18,-1
 439 1320 l 1,19,20
 589 1413 589 1413 777 1413 c 0,21,22
 1020 1413 1020 1413 1151 1266 c 0,23,24
 1275 1127 1275 1127 1275 857.5 c 128,-1,10
 1275 588 1275 588 1124.5 446 c 128,-1,11
EndSplineSet
EndChar

StartChar: germandbls
Encoding: 223 223 163
Width: 1535
GlyphClass: 2
Flags: HW
LayerCount: 2
Fore
SplineSet
613 736 m 1,0,-1
 612 789 l 1,1,-1
 612 922 l 1,2,3
 834 922 834 922 906 962 c 0,4,5
 982 1004 982 1004 1004 1078 c 0,6,7
 1016 1122 1016 1122 1017 1181 c 0,8,9
 1017 1303 1017 1303 944 1352 c 128,-1,10
 871 1401 871 1401 729 1401 c 0,11,12
 536 1400 536 1400 489 1242 c 0,13,14
 463 1153 463 1153 463 999 c 2,15,-1
 463 0 l 1,16,-1
 156 0 l 1,17,-1
 156 1002 l 2,18,19
 156 1305 156 1305 294.5 1456 c 128,-1,20
 433 1607 433 1607 729 1607 c 0,21,22
 974 1606 974 1606 1124 1512 c 0,23,24
 1284 1410 1284 1410 1285 1186 c 0,25,26
 1285 1035 1285 1035 1203 947 c 128,-1,27
 1121 859 1121 859 977 843 c 1,28,29
 1457 792 1457 792 1457 379 c 0,30,31
 1457 255 1457 255 1408.5 158 c 128,-1,32
 1360 61 1360 61 1280.5 0 c 128,-1,33
 1201 -61 1201 -61 1089 -101 c 0,34,35
 887 -173 887 -173 607 -173 c 1,36,-1
 607 63 l 1,37,38
 831 76 831 76 936 113 c 0,39,40
 1048 152 1048 152 1096 211 c 0,41,42
 1158 287 1158 287 1158 383 c 128,-1,43
 1158 479 1158 479 1128.5 539.5 c 128,-1,44
 1099 600 1099 600 1050 637 c 128,-1,45
 1001 674 1001 674 929 697 c 0,46,47
 807 736 807 736 613 736 c 1,0,-1
EndSplineSet
EndChar

StartChar: ae
Encoding: 230 230 170
Width: 1899
GlyphClass: 2
Flags: HW
LayerCount: 2
Fore
SplineSet
1573 690 m 1,0,1
 1573 1010 1573 1010 1346 1010 c 0,2,3
 1222 1010 1222 1010 1158.5 921 c 128,-1,4
 1095 832 1095 832 1092 690 c 1,5,-1
 1573 690 l 1,0,1
1384 188 m 0,6,7
 1473 188 1473 188 1558.5 215 c 128,-1,8
 1644 242 1644 242 1693 284 c 1,9,-1
 1758 89 l 1,10,11
 1694 43 1694 43 1584 12 c 128,-1,12
 1474 -19 1474 -19 1342 -19 c 0,13,14
 1072 -19 1072 -19 942 199 c 1,15,16
 876 96 876 96 762 37.5 c 128,-1,17
 648 -21 648 -21 473 -21 c 128,-1,18
 298 -21 298 -21 194.5 76.5 c 128,-1,19
 91 174 91 174 91 366 c 0,20,21
 91 648 91 648 382 716 c 0,22,23
 467 736 467 736 589.5 736 c 128,-1,24
 712 736 712 736 814 709 c 1,25,26
 814 900 814 900 763.5 949 c 128,-1,27
 713 998 713 998 599 998 c 0,28,29
 514 998 514 998 393 970 c 0,30,31
 277 944 277 944 221 902 c 1,32,-1
 165 1091 l 1,33,34
 227 1145 227 1145 360 1177 c 0,35,36
 494 1209 494 1209 628 1209 c 0,37,38
 901 1209 901 1209 982 1029 c 1,39,40
 1031 1115 1031 1115 1125 1162 c 128,-1,41
 1219 1209 1219 1209 1349 1209 c 0,42,43
 1575 1209 1575 1209 1695.5 1065.5 c 128,-1,44
 1816 922 1816 922 1816 682 c 0,45,46
 1816 612 1816 612 1813 537 c 1,47,-1
 1092 537 l 1,48,49
 1097 188 1097 188 1384 188 c 0,6,7
814 561 m 1,50,51
 716 574 716 574 666.5 574 c 128,-1,52
 617 574 617 574 582.5 571 c 128,-1,53
 548 568 548 568 513 560.5 c 128,-1,54
 478 553 478 553 453.5 539 c 0,55,56
 430 525 430 525 410 504 c 0,57,58
 370 461 370 461 370 381 c 0,59,60
 370 182 370 182 566 182 c 0,61,62
 639 182 639 182 695.5 213 c 128,-1,63
 752 244 752 244 814 300 c 1,64,-1
 814 561 l 1,50,51
EndSplineSet
EndChar

StartChar: igrave
Encoding: 236 236 176
Width: 667
GlyphClass: 2
Flags: HW
LayerCount: 2
Fore
SplineSet
-40 1912 m 1,0,-1
 250 2038 l 1,1,-1
 437 1411 l 1,2,-1
 313 1355 l 1,3,-1
 -40 1912 l 1,0,-1
203 0 m 1,4,-1
 203 1185 l 1,5,-1
 493 1185 l 1,6,-1
 493 0 l 1,7,-1
 203 0 l 1,4,-1
EndSplineSet
EndChar

StartChar: iacute
Encoding: 237 237 177
Width: 667
GlyphClass: 2
Flags: HW
LayerCount: 2
Fore
SplineSet
155 1387 m 1,0,-1
 344 2010 l 1,1,-1
 630 1885 l 1,2,-1
 275 1331 l 1,3,-1
 155 1387 l 1,0,-1
203 0 m 1,4,-1
 203 1185 l 1,5,-1
 493 1185 l 1,6,-1
 493 0 l 1,7,-1
 203 0 l 1,4,-1
EndSplineSet
EndChar

StartChar: icircumflex
Encoding: 238 238 178
Width: 667
GlyphClass: 2
Flags: HW
LayerCount: 2
Fore
SplineSet
433 1954 m 1,0,-1
 708 1372 l 1,1,-1
 488 1341 l 1,2,-1
 334 1728 l 1,3,-1
 180 1341 l 1,4,-1
 -39 1372 l 1,5,-1
 237 1954 l 1,6,-1
 433 1954 l 1,0,-1
203 0 m 1,7,-1
 203 1185 l 1,8,-1
 493 1185 l 1,9,-1
 493 0 l 1,10,-1
 203 0 l 1,7,-1
EndSplineSet
EndChar

StartChar: idieresis
Encoding: 239 239 179
Width: 667
GlyphClass: 2
Flags: HW
LayerCount: 2
Fore
SplineSet
133 1372 m 128,-1,1
 86 1325 86 1325 13.5 1325 c 128,-1,2
 -59 1325 -59 1325 -104.5 1371.5 c 128,-1,3
 -150 1418 -150 1418 -150 1490.5 c 128,-1,4
 -150 1563 -150 1563 -104 1610 c 128,-1,5
 -58 1657 -58 1657 14 1657 c 128,-1,6
 86 1657 86 1657 133 1610 c 128,-1,7
 180 1563 180 1563 180 1491 c 128,-1,0
 180 1419 180 1419 133 1372 c 128,-1,1
742.5 1372.5 m 128,-1,9
 695 1325 695 1325 623 1325 c 128,-1,10
 551 1325 551 1325 505.5 1371.5 c 128,-1,11
 460 1418 460 1418 460 1490.5 c 128,-1,12
 460 1563 460 1563 506 1610 c 128,-1,13
 552 1657 552 1657 623.5 1657 c 128,-1,14
 695 1657 695 1657 742.5 1609.5 c 128,-1,15
 790 1562 790 1562 790 1491 c 128,-1,8
 790 1420 790 1420 742.5 1372.5 c 128,-1,9
203 0 m 1,16,-1
 203 1185 l 1,17,-1
 493 1185 l 1,18,-1
 493 0 l 1,19,-1
 203 0 l 1,16,-1
EndSplineSet
EndChar

StartChar: eth
Encoding: 240 240 180
Width: 1272
GlyphClass: 2
Flags: HW
LayerCount: 2
Fore
SplineSet
919 1451 m 1,0,1
 1043 1287 1043 1287 1109.5 1096 c 128,-1,2
 1176 905 1176 905 1176 654 c 0,3,4
 1176 156 1176 156 872 28 c 0,5,6
 762 -18 762 -18 620.5 -18 c 128,-1,7
 479 -18 479 -18 377.5 28.5 c 128,-1,8
 276 75 276 75 212 159 c 0,9,10
 84 328 84 328 85 603 c 0,11,12
 86 856 86 856 196 1028 c 0,13,14
 250 1112 250 1112 340.5 1160.5 c 128,-1,15
 431 1209 431 1209 543.5 1209 c 128,-1,16
 656 1209 656 1209 744 1167 c 128,-1,17
 832 1125 832 1125 884 1057 c 1,18,19
 845 1205 845 1205 692 1379 c 1,20,-1
 453 1305 l 1,21,-1
 410 1433 l 1,22,-1
 586 1488 l 1,23,24
 496 1572 496 1572 402 1630 c 1,25,-1
 528 1780 l 1,26,27
 690 1684 690 1684 817 1560 c 1,28,-1
 1113 1653 l 1,29,-1
 1156 1525 l 1,30,-1
 919 1451 l 1,0,1
791 950 m 128,-1,32
 720 1007 720 1007 630.5 1007 c 128,-1,33
 541 1007 541 1007 493 974.5 c 0,34,35
 444 942 444 942 420 882 c 0,36,37
 374 771 374 771 375 597 c 0,38,39
 375 185 375 185 619 185 c 0,40,41
 756 185 756 185 818 294 c 0,42,43
 874 392 874 392 880 521 c 128,-1,44
 886 650 886 650 886 796 c 1,45,31
 862 893 862 893 791 950 c 128,-1,32
EndSplineSet
EndChar

StartChar: divide
Encoding: 247 247 187
Width: 1163
GlyphClass: 2
Flags: HW
LayerCount: 2
Fore
SplineSet
710.5 922 m 128,-1,1
 666 875 666 875 594.5 875 c 128,-1,2
 523 875 523 875 478 921.5 c 128,-1,3
 433 968 433 968 433 1040.5 c 128,-1,4
 433 1113 433 1113 478 1160 c 128,-1,5
 523 1207 523 1207 594.5 1207 c 128,-1,6
 666 1207 666 1207 710.5 1160 c 128,-1,7
 755 1113 755 1113 755 1041 c 128,-1,0
 755 969 755 969 710.5 922 c 128,-1,1
711.5 190 m 128,-1,9
 667 143 667 143 595.5 143 c 128,-1,10
 524 143 524 143 479 189.5 c 128,-1,11
 434 236 434 236 434 308.5 c 128,-1,12
 434 381 434 381 479 428 c 128,-1,13
 524 475 524 475 595.5 475 c 128,-1,14
 667 475 667 475 711.5 428 c 128,-1,15
 756 381 756 381 756 309 c 128,-1,8
 756 237 756 237 711.5 190 c 128,-1,9
148 570 m 1,16,-1
 148 784 l 1,17,-1
 1041 784 l 1,18,-1
 1041 570 l 1,19,-1
 148 570 l 1,16,-1
EndSplineSet
EndChar

StartChar: oslash
Encoding: 248 248 188
Width: 1299
GlyphClass: 2
Flags: HW
LayerCount: 2
Fore
SplineSet
736 1015 m 1,0,1
 707 1026 707 1026 637 1026 c 128,-1,2
 567 1026 567 1026 506.5 994 c 128,-1,3
 446 962 446 962 412 904 c 0,4,5
 344 790 344 790 344 633 c 0,6,7
 344 311 344 311 468 229 c 1,8,-1
 736 1015 l 1,0,1
1213 592 m 0,9,10
 1213 308 1213 308 1067.5 145 c 128,-1,11
 922 -18 922 -18 649 -18 c 0,12,13
 570 -18 570 -18 503 -3 c 1,14,-1
 440 -188 l 1,15,-1
 340 -154 l 1,16,-1
 402 27 l 1,17,18
 247 92 247 92 166 235.5 c 128,-1,19
 85 379 85 379 85 592 c 0,20,21
 85 877 85 877 230.5 1043 c 128,-1,22
 376 1209 376 1209 649 1209 c 0,23,24
 719 1209 719 1209 794 1194 c 1,25,-1
 860 1389 l 1,26,-1
 957 1355 l 1,27,-1
 892 1164 l 1,28,29
 1047 1099 1047 1099 1130 953.5 c 128,-1,30
 1213 808 1213 808 1213 592 c 0,9,10
562 173 m 1,31,32
 591 163 591 163 661.5 163 c 128,-1,33
 732 163 732 163 794 197 c 0,34,35
 856 232 856 232 892 292 c 0,36,37
 960 409 960 409 960 594 c 0,38,39
 960 862 960 862 826 960 c 1,40,-1
 562 173 l 1,31,32
EndSplineSet
EndChar

StartChar: thorn
Encoding: 254 254 194
Width: 1331
GlyphClass: 2
Flags: HW
LayerCount: 2
Fore
SplineSet
737 184 m 0,0,1
 926 184 926 184 950 467 c 0,2,3
 954 518 954 518 954 581 c 0,4,5
 954 1001 954 1001 715 1001 c 0,6,7
 604 1002 604 1002 519 946 c 0,8,9
 489 926 489 926 446 891 c 1,10,-1
 446 291 l 1,11,12
 564 184 564 184 737 184 c 0,0,1
1229 779.5 m 128,-1,14
 1246 688 1246 688 1246 549 c 128,-1,15
 1246 410 1246 410 1194.5 277 c 128,-1,16
 1143 144 1143 144 1031 63 c 128,-1,17
 919 -18 919 -18 757 -18 c 0,18,19
 545 -18 545 -18 445 115 c 1,20,-1
 445 -437 l 1,21,-1
 154 -446 l 1,22,-1
 154 1601 l 1,23,-1
 441 1601 l 1,24,-1
 441 1045 l 1,25,26
 489 1116 489 1116 574 1160 c 128,-1,27
 659 1204 659 1204 762 1204 c 128,-1,28
 865 1204 865 1204 946 1172.5 c 128,-1,29
 1027 1141 1027 1141 1082.5 1085 c 128,-1,30
 1138 1029 1138 1029 1175 950 c 128,-1,13
 1212 871 1212 871 1229 779.5 c 128,-1,14
EndSplineSet
EndChar

StartChar: OE
Encoding: 338 338 196
Width: 2325
GlyphClass: 2
Flags: HW
LayerCount: 2
Fore
SplineSet
1200 0 m 1,0,-1
 1200 1607 l 1,1,-1
 2249 1607 l 1,2,-1
 2249 1405 l 1,3,-1
 1505 1405 l 1,4,-1
 1505 931 l 1,5,-1
 2154 931 l 1,6,-1
 2154 745 l 1,7,-1
 1505 745 l 1,8,-1
 1505 199 l 1,9,-1
 2260 199 l 1,10,-1
 2260 0 l 1,11,-1
 1200 0 l 1,0,-1
824 1635 m 0,12,13
 986 1635 986 1635 1121.5 1576.5 c 128,-1,14
 1257 1518 1257 1518 1341 1408 c 0,15,16
 1507 1191 1507 1191 1507 810 c 0,17,18
 1508 153 1508 153 1072 5 c 0,19,20
 954 -35 954 -35 786.5 -35 c 128,-1,21
 619 -35 619 -35 482.5 26.5 c 128,-1,22
 346 88 346 88 264 203 c 0,23,24
 104 427 104 427 104 819 c 0,25,26
 104 1281 104 1281 348 1489 c 0,27,28
 520 1635 520 1635 824 1635 c 0,12,13
970.5 1377.5 m 128,-1,30
 901 1411 901 1411 807.5 1411 c 128,-1,31
 714 1411 714 1411 643.5 1378 c 128,-1,32
 573 1345 573 1345 529.5 1290.5 c 128,-1,33
 486 1236 486 1236 460 1155 c 0,34,35
 414 1013 414 1013 413 798 c 0,36,37
 413 459 413 459 530 312 c 0,38,39
 626 192 626 192 805 192 c 0,40,41
 961 192 961 192 1048.5 277.5 c 128,-1,42
 1136 363 1136 363 1167.5 497.5 c 128,-1,43
 1199 632 1199 632 1199 767 c 128,-1,44
 1199 902 1199 902 1189 987 c 128,-1,45
 1179 1072 1179 1072 1152.5 1153.5 c 128,-1,46
 1126 1235 1126 1235 1083 1289.5 c 128,-1,29
 1040 1344 1040 1344 970.5 1377.5 c 128,-1,30
EndSplineSet
EndChar

StartChar: oe
Encoding: 339 339 197
Width: 2045
GlyphClass: 2
Flags: HW
LayerCount: 2
Fore
SplineSet
1719 690 m 1,0,1
 1719 1013 1719 1013 1487 1016 c 1,2,3
 1402 1015 1402 1015 1342 969 c 0,4,5
 1234 886 1234 886 1225 690 c 1,6,-1
 1719 690 l 1,0,1
651 169 m 128,-1,8
 926 169 926 169 926 589.5 c 128,-1,9
 926 1010 926 1010 651 1010 c 128,-1,10
 376 1010 376 1010 376 589.5 c 128,-1,7
 376 169 376 169 651 169 c 128,-1,8
1512 -24 m 0,11,12
 1202 -24 1202 -24 1076 194 c 1,13,14
 1030 87 1030 87 916.5 27.5 c 128,-1,15
 803 -32 803 -32 650 -32 c 0,16,17
 374 -32 374 -32 230 133 c 128,-1,18
 86 298 86 298 86 587.5 c 128,-1,19
 86 877 86 877 229.5 1043.5 c 128,-1,20
 373 1210 373 1210 650 1210 c 0,21,22
 966 1210 966 1210 1072 970 c 1,23,24
 1114 1048 1114 1048 1164 1098 c 0,25,26
 1278 1214 1278 1214 1496.5 1214.5 c 128,-1,27
 1715 1215 1715 1215 1838.5 1073.5 c 128,-1,28
 1962 932 1962 932 1962 685 c 0,29,30
 1962 609 1962 609 1959 537 c 1,31,-1
 1226 537 l 1,32,33
 1228 368 1228 368 1303.5 272.5 c 128,-1,34
 1379 177 1379 177 1535 177 c 0,35,36
 1632 177 1632 177 1701.5 203 c 128,-1,37
 1771 229 1771 229 1839 281 c 1,38,-1
 1905 84 l 1,39,40
 1718 -24 1718 -24 1512 -24 c 0,11,12
EndSplineSet
EndChar

StartChar: Scaron
Encoding: 352 352 198
Width: 1325
GlyphClass: 2
Flags: HW
LayerCount: 2
Fore
SplineSet
578 1821 m 1,0,-1
 302 2404 l 1,1,-1
 522 2435 l 1,2,-1
 677 2047 l 1,3,-1
 830 2435 l 1,4,-1
 1050 2404 l 1,5,-1
 773 1821 l 1,6,-1
 578 1821 l 1,0,-1
914.5 1378 m 128,-1,8
 801 1411 801 1411 709.5 1411 c 128,-1,9
 618 1411 618 1411 566.5 1403.5 c 0,10,11
 514 1396 514 1396 468 1376 c 0,12,13
 372 1334 372 1334 372 1218 c 0,14,15
 372 1149 372 1149 412.5 1110.5 c 128,-1,16
 453 1072 453 1072 524 1047 c 1,17,-1
 869 915 l 2,18,19
 1143 810 1143 810 1216 620 c 0,20,21
 1246 542 1246 542 1246 430.5 c 128,-1,22
 1246 319 1246 319 1203 226.5 c 128,-1,23
 1160 134 1160 134 1081 78 c 0,24,25
 925 -34 925 -34 654 -34 c 129,-1,26
 383 -34 383 -34 127 104 c 1,27,-1
 182 323 l 1,28,29
 396 221 396 221 616 196 c 0,30,31
 660 191 660 191 699 191 c 0,32,33
 955 191 955 191 955 402 c 0,34,35
 955 495 955 495 906 549.5 c 128,-1,36
 857 604 857 604 767 637 c 1,37,-1
 413 778 l 1,38,39
 85 907 85 907 85 1196 c 0,40,41
 84 1421 84 1421 252 1532 c 0,42,43
 409 1636 409 1636 650 1636 c 0,44,45
 950 1636 950 1636 1175 1503 c 1,46,-1
 1111 1295 l 1,47,7
 1028 1345 1028 1345 914.5 1378 c 128,-1,8
EndSplineSet
EndChar

StartChar: scaron
Encoding: 353 353 199
Width: 1092
GlyphClass: 2
Flags: HW
LayerCount: 2
Fore
SplineSet
450 1393 m 1,0,-1
 174 1976 l 1,1,-1
 394 2007 l 1,2,-1
 549 1619 l 1,3,-1
 702 2007 l 1,4,-1
 922 1976 l 1,5,-1
 645 1393 l 1,6,-1
 450 1393 l 1,0,-1
534 177 m 0,7,8
 733 177 733 177 733 332 c 0,9,10
 734 388 734 388 686 422 c 0,11,12
 644 452 644 452 590 470 c 1,13,-1
 357 560 l 1,14,15
 168 630 168 630 122 762 c 0,16,17
 103 816 103 816 103 893 c 128,-1,18
 103 970 103 970 138.5 1034.5 c 128,-1,19
 174 1099 174 1099 236 1138 c 0,20,21
 359 1215 359 1215 546 1215 c 0,22,23
 665 1215 665 1215 785 1186.5 c 128,-1,24
 905 1158 905 1158 969 1109 c 1,25,-1
 903 921 l 1,26,27
 849 961 849 961 748.5 988.5 c 128,-1,28
 648 1016 648 1016 557 1016 c 0,29,30
 362 1016 362 1016 362 886 c 0,31,32
 362 836 362 836 398 810 c 0,33,34
 441 779 441 779 483 769 c 1,35,-1
 675 698 l 2,36,37
 864 630 864 630 935 544 c 0,38,39
 1004 462 1004 462 1004 357 c 128,-1,40
 1004 252 1004 252 969 180.5 c 0,41,42
 934 108 934 108 872 64 c 0,43,44
 749 -24 749 -24 548 -24 c 1,45,46
 421 -24 421 -24 300 7 c 128,-1,47
 179 38 179 38 109 90 c 1,48,-1
 175 281 l 1,49,50
 229 239 229 239 336 208 c 128,-1,51
 443 177 443 177 534 177 c 0,7,8
EndSplineSet
EndChar

StartChar: florin
Encoding: 402 402 201
Width: 835
GlyphClass: 2
Flags: HW
LayerCount: 2
Fore
SplineSet
555 1163 m 1,0,-1
 554 1142 l 1,1,-1
 849 1142 l 1,2,-1
 845 1010 l 1,3,-1
 549 1010 l 1,4,-1
 523 365 l 1,5,6
 514 204 514 204 481.5 91.5 c 128,-1,7
 449 -21 449 -21 381 -98 c 1,8,9
 321 -98 321 -98 217.5 -82 c 128,-1,10
 114 -66 114 -66 61 -66 c 1,11,-1
 91 54 l 1,12,13
 91 71 91 71 123 83 c 128,-1,14
 155 95 155 95 160 99 c 1,15,16
 219 173 219 173 226 318 c 2,17,-1
 256 1010 l 1,18,-1
 46 1010 l 1,19,-1
 50 1142 l 1,20,-1
 260 1142 l 1,21,22
 272 1474 272 1474 384 1602 c 0,23,24
 479 1710 479 1710 660 1711 c 0,25,26
 733 1711 733 1711 807.5 1688.5 c 128,-1,27
 882 1666 882 1666 904 1661 c 1,28,-1
 878 1455 l 1,29,30
 781 1494 781 1494 729 1494 c 128,-1,31
 677 1494 677 1494 650.5 1482 c 128,-1,32
 624 1470 624 1470 607.5 1444 c 128,-1,33
 591 1418 591 1418 580.5 1392 c 128,-1,34
 570 1366 570 1366 565 1324 c 0,35,36
 555 1240 555 1240 555 1163 c 1,0,-1
EndSplineSet
EndChar

StartChar: circumflex
Encoding: 710 710 202
Width: 1331
GlyphClass: 2
Flags: HW
LayerCount: 2
Fore
SplineSet
787 837 m 1,0,-1
 1064 254 l 1,1,-1
 843 223 l 1,2,-1
 689 611 l 1,3,-1
 535 223 l 1,4,-1
 316 254 l 1,5,-1
 592 837 l 1,6,-1
 787 837 l 1,0,-1
EndSplineSet
EndChar

StartChar: ring
Encoding: 730 730 203
Width: 1256
GlyphClass: 2
Flags: HW
LayerCount: 2
Fore
SplineSet
749 640 m 128,-1,1
 701 688 701 688 627.5 688 c 128,-1,2
 554 688 554 688 506.5 640 c 128,-1,3
 459 592 459 592 459 519 c 128,-1,4
 459 446 459 446 506.5 398.5 c 128,-1,5
 554 351 554 351 628 351 c 128,-1,6
 702 351 702 351 749.5 398.5 c 128,-1,7
 797 446 797 446 797 519 c 128,-1,0
 797 592 797 592 749 640 c 128,-1,1
396.5 300.5 m 128,-1,9
 306 388 306 388 306 521 c 128,-1,10
 306 654 306 654 399.5 739.5 c 128,-1,11
 493 825 493 825 630.5 825 c 128,-1,12
 768 825 768 825 859.5 738.5 c 128,-1,13
 951 652 951 652 951 517 c 128,-1,14
 951 382 951 382 856 297.5 c 128,-1,15
 761 213 761 213 624 213 c 128,-1,8
 487 213 487 213 396.5 300.5 c 128,-1,9
EndSplineSet
EndChar

StartChar: tilde
Encoding: 732 732 204
Width: 1438
GlyphClass: 2
Flags: HW
LayerCount: 2
Fore
SplineSet
1155 529 m 1,0,1
 1155 394 1155 394 1103 311 c 128,-1,2
 1051 228 1051 228 942 228 c 0,3,4
 864 228 864 228 776 266 c 0,5,6
 702 299 702 299 630 342 c 1,7,8
 586 364 586 364 554 364 c 0,9,10
 496 364 496 364 496 246 c 1,11,-1
 305 246 l 1,12,13
 305 559 305 559 528 559 c 0,14,15
 609 559 609 559 655 537.5 c 128,-1,16
 701 516 701 516 743 494 c 2,17,-1
 791 470 l 2,18,19
 794 469 794 469 812 459 c 128,-1,20
 830 449 830 449 837 446 c 128,-1,21
 844 443 844 443 859 437 c 0,22,23
 887 426 887 426 907.5 426 c 128,-1,24
 928 426 928 426 937.5 433.5 c 128,-1,25
 947 441 947 441 951 457 c 0,26,27
 957 481 957 481 957 529 c 1,28,-1
 1155 529 l 1,0,1
EndSplineSet
EndChar

StartChar: uni0306
Encoding: 774 774 205
Width: 1103
GlyphClass: 2
Flags: HW
LayerCount: 2
Fore
SplineSet
549 1505 m 256,0,1
 624 1505 624 1505 655.5 1545 c 128,-1,2
 687 1585 687 1585 687 1668 c 1,3,-1
 863 1668 l 1,4,5
 863 1515 863 1515 785 1441 c 128,-1,6
 707 1367 707 1367 549 1367 c 0,7,8
 233 1367 233 1367 233 1668 c 1,9,-1
 410 1668 l 1,10,11
 410 1585 410 1585 442 1545 c 128,-1,12
 474 1505 474 1505 549 1505 c 256,0,1
EndSplineSet
EndChar

StartChar: uni0E81
Encoding: 3713 3713 206
Width: 1515
GlyphClass: 2
Flags: HW
LayerCount: 2
Fore
SplineSet
664 871 m 1,0,-1
 667 829 l 1,1,-1
 667 353 l 2,2,3
 667 190 667 190 587.5 95 c 128,-1,4
 508 0 508 0 355 0 c 0,5,6
 77 0 77 0 77 226 c 0,7,8
 77 311 77 311 134.5 371.5 c 128,-1,9
 192 432 192 432 276 432 c 1,10,11
 282 430 282 430 293 430 c 0,12,13
 315 429 315 429 327 426 c 2,14,-1
 384 408 l 1,15,-1
 384 744 l 1,16,17
 348 740 348 740 329 740 c 0,18,19
 216 740 216 740 144.5 796 c 128,-1,20
 73 852 73 852 73 941 c 0,21,22
 74 1030 74 1030 110 1079 c 0,23,24
 178 1170 178 1170 355.5 1170 c 128,-1,25
 533 1170 533 1170 619 1028 c 1,26,27
 782 1138 782 1138 880 1160 c 0,28,29
 928 1170 928 1170 981 1170 c 0,30,31
 1429 1170 1429 1170 1429 697 c 2,32,-1
 1429 0 l 1,33,-1
 1145 0 l 1,34,-1
 1145 747 l 2,35,36
 1144 876 1144 876 1102 932 c 0,37,38
 1058 992 1058 992 936 992 c 1,39,40
 843 990 843 990 664 871 c 1,0,-1
252 957 m 1,41,42
 261 881 261 881 327 876 c 1,43,44
 358 876 358 876 384 885 c 1,45,-1
 384 931 l 1,46,47
 376 1018 376 1018 319 1026 c 1,48,49
 252 1026 252 1026 252 957 c 1,41,42
327 301 m 2,50,51
 254 301 254 301 254 225 c 128,-1,52
 254 149 254 149 318 147 c 1,53,54
 384 149 384 149 384 241 c 2,55,-1
 384 301 l 1,56,-1
 327 301 l 2,50,51
EndSplineSet
EndChar

StartChar: uni0E82
Encoding: 3714 3714 207
Width: 1317
GlyphClass: 2
Flags: HW
LayerCount: 2
Fore
SplineSet
674 1170 m 0,0,1
 748 1170 748 1170 801.5 1167 c 128,-1,2
 855 1164 855 1164 908.5 1156.5 c 128,-1,3
 962 1149 962 1149 1005.5 1136 c 128,-1,4
 1049 1123 1049 1123 1089 1104.5 c 128,-1,5
 1129 1086 1129 1086 1159 1060 c 0,6,7
 1190 1034 1190 1034 1212 1000 c 0,8,9
 1256 934 1256 934 1256 854.5 c 128,-1,10
 1256 775 1256 775 1241 728.5 c 128,-1,11
 1226 682 1226 682 1204 648 c 128,-1,12
 1182 614 1182 614 1143 582.5 c 128,-1,13
 1104 551 1104 551 1071.5 531.5 c 128,-1,14
 1039 512 1039 512 986 490 c 0,15,16
 908 458 908 458 813 430 c 2,17,-1
 675 387 l 1,18,19
 629 374 629 374 591.5 365.5 c 128,-1,20
 554 357 554 357 525.5 347 c 0,21,22
 498 336 498 336 478 326 c 0,23,24
 432 301 432 301 431 266 c 0,25,26
 430 234 430 234 456 227 c 0,27,28
 468 224 468 224 505.5 224 c 128,-1,29
 543 224 543 224 607 244 c 128,-1,30
 671 264 671 264 721 288 c 0,31,32
 856 352 856 352 971 351 c 0,33,34
 1150 351 1150 351 1286 168 c 0,35,36
 1310 135 1310 135 1341 88 c 1,37,-1
 1178 -55 l 1,38,39
 1115 53 1115 53 1077 83 c 0,40,41
 1021 127 1021 127 959.5 127 c 128,-1,42
 898 127 898 127 843 114 c 128,-1,43
 788 101 788 101 742.5 82 c 0,44,45
 697 62 697 62 651 44 c 0,46,47
 540 0 540 0 437 0 c 0,48,49
 147 0 147 0 147 241 c 0,50,51
 147 358 147 358 238 428 c 0,52,53
 325 495 325 495 507 552 c 0,54,55
 536 561 536 561 549 566 c 2,56,-1
 647 599 l 2,57,58
 667 605 667 605 703 615.5 c 128,-1,59
 739 626 739 626 761 632.5 c 128,-1,60
 783 639 783 639 815 651.5 c 128,-1,61
 847 664 847 664 867 675.5 c 128,-1,62
 887 687 887 687 910 705.5 c 128,-1,63
 933 724 933 724 946 745 c 0,64,65
 976 793 976 793 976 841.5 c 128,-1,66
 976 890 976 890 965.5 913.5 c 128,-1,67
 955 937 955 937 934.5 953 c 128,-1,68
 914 969 914 969 888.5 979.5 c 0,69,70
 864 990 864 990 830 996 c 0,71,72
 769 1007 769 1007 706 1007 c 128,-1,73
 643 1007 643 1007 616.5 1006.5 c 128,-1,74
 590 1006 590 1006 552 1004 c 0,75,76
 480 1000 480 1000 431 982 c 1,77,78
 448 985 448 985 464 985 c 0,79,80
 537 985 537 985 587.5 928.5 c 128,-1,81
 638 872 638 872 638 785.5 c 128,-1,82
 638 699 638 699 570.5 641 c 128,-1,83
 503 583 503 583 399 583 c 0,84,85
 140 583 140 583 140 835 c 0,86,87
 140 1048 140 1048 378 1127 c 0,88,89
 506 1170 506 1170 674 1170 c 0,0,1
397.5 721 m 128,-1,91
 425 721 425 721 442.5 748.5 c 128,-1,92
 460 776 460 776 461 812 c 1,93,94
 461 884 461 884 381 884 c 2,95,-1
 329 884 l 1,96,97
 325 866 325 866 325 849 c 0,98,99
 325 810 325 810 344 774 c 0,100,90
 370 721 370 721 397.5 721 c 128,-1,91
EndSplineSet
EndChar

StartChar: uni0E84
Encoding: 3716 3716 208
Width: 1345
GlyphClass: 2
Flags: HW
LayerCount: 2
Fore
SplineSet
686 1170 m 0,0,1
 1029 1170 1029 1170 1161 1018 c 0,2,3
 1259 905 1259 905 1259 697 c 2,4,-1
 1259 0 l 1,5,-1
 976 0 l 1,6,-1
 976 693 l 2,7,8
 976 858 976 858 912 924.5 c 128,-1,9
 848 991 848 991 686 991 c 0,10,11
 484 990 484 990 430 938 c 0,12,13
 400 909 400 909 400 850.5 c 128,-1,14
 400 792 400 792 439 755.5 c 128,-1,15
 478 719 478 719 550 719 c 2,16,-1
 707 719 l 1,17,-1
 707 552 l 1,18,-1
 550 552 l 2,19,20
 472 552 472 552 436 519.5 c 128,-1,21
 400 487 400 487 400 414 c 2,22,-1
 400 409 l 1,23,-1
 424 416 l 2,24,25
 430 418 430 418 440.5 420.5 c 128,-1,26
 451 423 451 423 456 424.5 c 128,-1,27
 461 426 461 426 469 428 c 0,28,29
 482 430 482 430 522 430 c 128,-1,30
 562 430 562 430 608 405 c 0,31,32
 708 352 708 352 708 229 c 0,33,34
 708 0 708 0 428 0 c 0,35,36
 279 0 279 0 198 97 c 128,-1,37
 117 194 117 194 117 334 c 128,-1,38
 117 474 117 474 192 548.5 c 128,-1,39
 267 623 267 623 386 638 c 1,40,41
 271 638 271 638 194 698 c 128,-1,42
 117 758 117 758 117 862 c 0,43,44
 117 1170 117 1170 686 1170 c 0,0,1
465 147 m 0,45,46
 531 147 531 147 531 229 c 0,47,48
 531 261 531 261 509.5 281 c 128,-1,49
 488 301 488 301 454 301 c 2,50,-1
 400 301 l 1,51,-1
 400 252 l 2,52,53
 400 201 400 201 413.5 174 c 128,-1,54
 427 147 427 147 465 147 c 0,45,46
EndSplineSet
EndChar

StartChar: uni0E87
Encoding: 3719 3719 209
Width: 1051
GlyphClass: 2
Flags: HW
LayerCount: 2
Fore
SplineSet
516 937 m 0,0,1
 516 739 516 739 284 739 c 0,2,3
 182 739 182 739 121.5 794.5 c 128,-1,4
 61 850 61 850 61 950 c 0,5,6
 62 1084 62 1084 226 1140 c 0,7,8
 313 1170 313 1170 428 1169 c 0,9,10
 995 1169 995 1169 995 625 c 2,11,-1
 995 21 l 2,12,13
 995 -254 995 -254 878.5 -387 c 128,-1,14
 762 -520 762 -520 500 -520 c 0,15,16
 85 -520 85 -520 83 -190 c 1,17,-1
 273 -190 l 1,18,19
 273 -286 273 -286 327 -324.5 c 128,-1,20
 381 -363 381 -363 490 -363 c 0,21,22
 573 -363 573 -363 609 -339.5 c 128,-1,23
 645 -316 645 -316 661.5 -291.5 c 128,-1,24
 678 -267 678 -267 687.5 -240.5 c 0,25,26
 696 -214 696 -214 702 -176 c 0,27,28
 710 -117 710 -117 711 -18 c 2,29,-1
 711 619 l 2,30,31
 711 783 711 783 694.5 838.5 c 128,-1,32
 678 894 678 894 662 925 c 128,-1,33
 646 956 646 956 624 976 c 0,34,35
 573 1021 573 1021 497 1023 c 1,36,37
 516 972 516 972 516 937 c 0,0,1
238 937 m 0,38,39
 238 870 238 870 296 870 c 0,40,41
 366 870 366 870 366 956 c 2,42,-1
 366 1022 l 1,43,44
 238 1011 238 1011 238 937 c 0,38,39
EndSplineSet
EndChar

StartChar: uni0E88
Encoding: 3720 3720 210
Width: 1421
GlyphClass: 2
Flags: HW
LayerCount: 2
Fore
SplineSet
448.5 781.5 m 128,-1,1
 522 840 522 840 619.5 840 c 128,-1,2
 717 840 717 840 771 818 c 128,-1,3
 825 796 825 796 855 759 c 128,-1,4
 885 722 885 722 905.5 671.5 c 128,-1,5
 926 621 926 621 934.5 566 c 128,-1,6
 943 511 943 511 953.5 450 c 0,7,8
 964 388 964 388 974 334 c 0,9,10
 998 209 998 209 1068 140 c 1,11,-1
 1068 676 l 2,12,13
 1068 850 1068 850 972 922 c 0,14,15
 880 992 880 992 694 991 c 1,16,17
 452 991 452 991 348 883 c 0,18,19
 290 823 290 823 290 719 c 1,20,-1
 38 719 l 1,21,22
 40 888 40 888 133 988 c 0,23,24
 226 1090 226 1090 372 1130 c 0,25,26
 521 1170 521 1170 687 1170 c 128,-1,27
 853 1170 853 1170 967.5 1140 c 128,-1,28
 1082 1110 1082 1110 1164 1046 c 0,29,30
 1330 916 1330 916 1331 625 c 2,31,-1
 1331 18 l 1,32,-1
 1055 -82 l 1,33,-1
 1010 -56 l 1,34,35
 759 87 759 87 694 431 c 1,36,-1
 644 416 l 2,37,38
 606 405 606 405 574 405 c 0,39,40
 485 405 485 405 430 463.5 c 128,-1,41
 375 522 375 522 375 622.5 c 128,-1,0
 375 723 375 723 448.5 781.5 c 128,-1,1
683 573 m 2,42,43
 683 632 683 632 670 663.5 c 128,-1,44
 657 695 657 695 622.5 695 c 128,-1,45
 588 695 588 695 570 672 c 128,-1,46
 552 649 552 649 552 618.5 c 128,-1,47
 552 588 552 588 564 570 c 0,48,49
 587 536 587 536 643 537 c 2,50,-1
 684 537 l 1,51,52
 683 540 683 540 683 551 c 2,53,-1
 683 573 l 2,42,43
EndSplineSet
EndChar

StartChar: uni0E8A
Encoding: 3722 3722 211
Width: 1305
GlyphClass: 2
Flags: HW
LayerCount: 2
Fore
SplineSet
330 884 m 1,0,1
 326 856 326 856 326 849 c 0,2,3
 329 729 329 729 390 727 c 1,4,5
 461 727 461 727 461 812 c 1,6,7
 457 884 457 884 376 884 c 2,8,-1
 330 884 l 1,0,1
428 264 m 1,9,10
 430 223 430 223 478 223 c 129,-1,11
 526 223 526 223 599.5 245 c 0,12,13
 674 267 674 267 738 293 c 0,14,15
 912 363 912 363 1027 363 c 0,16,17
 1273 363 1273 363 1273 91 c 2,18,-1
 1273 -353 l 1,19,-1
 1024 -353 l 1,20,-1
 1024 72 l 2,21,22
 1024 114 1024 114 1012 126 c 0,23,24
 993 145 993 145 949 145 c 128,-1,25
 905 145 905 145 836 122.5 c 128,-1,26
 767 100 767 100 707 72 c 0,27,28
 482 -1 482 -1 428 0 c 0,29,30
 425 0 425 0 423 0 c 1,31,32
 297 0 297 0 222 60 c 128,-1,33
 147 120 147 120 147 241 c 1,34,35
 150 352 150 352 248 414 c 0,36,37
 340 473 340 473 476 513 c 0,38,39
 506 522 506 522 562 538 c 128,-1,40
 618 554 618 554 644 562 c 128,-1,41
 670 570 670 570 717 585.5 c 128,-1,42
 764 601 764 601 789 613 c 128,-1,43
 814 625 814 625 849.5 643 c 128,-1,44
 885 661 885 661 904 679.5 c 128,-1,45
 923 698 923 698 943 722 c 0,46,47
 979 764 979 764 979 815 c 128,-1,48
 979 866 979 866 971.5 892 c 128,-1,49
 964 918 964 918 950.5 937 c 128,-1,50
 937 956 937 956 916 970.5 c 128,-1,51
 895 985 895 985 871.5 993.5 c 128,-1,52
 848 1002 848 1002 817 1008 c 0,53,54
 763 1018 763 1018 677 1017 c 0,55,56
 498 1017 498 1017 428 977 c 1,57,-1
 450 977 l 2,58,59
 525 977 525 977 581.5 927.5 c 128,-1,60
 638 878 638 878 638 789.5 c 128,-1,61
 638 701 638 701 570.5 640.5 c 128,-1,62
 503 580 503 580 400 580 c 0,63,64
 140 580 140 580 140 835 c 0,65,66
 140 1126 140 1126 572 1165 c 0,67,68
 628 1170 628 1170 686 1170 c 0,69,70
 1258 1170 1258 1170 1258 817 c 0,71,72
 1258 614 1258 614 1056 519 c 0,73,74
 993 490 993 490 911 463 c 2,75,-1
 681 387 l 2,76,77
 664 381 664 381 626 372 c 128,-1,78
 588 363 588 363 559 354.5 c 128,-1,79
 530 346 530 346 498 334 c 0,80,81
 432 308 432 308 428 264 c 1,9,10
EndSplineSet
EndChar

StartChar: uni0E8D
Encoding: 3725 3725 212
Width: 1334
GlyphClass: 2
Flags: HW
LayerCount: 2
Fore
SplineSet
696 178 m 0,0,1
 859 178 859 178 923 245 c 128,-1,2
 987 312 987 312 987 477 c 2,3,-1
 987 1170 l 1,4,-1
 1270 1170 l 1,5,-1
 1270 473 l 2,6,7
 1270 159 1270 159 1043 60 c 0,8,9
 905 0 905 0 670 0 c 0,10,11
 128 0 128 0 128 307 c 0,12,13
 128 459 128 459 310 511 c 0,14,15
 362 526 362 526 428 531 c 1,16,17
 297 545 297 545 212.5 621 c 128,-1,18
 128 697 128 697 128 817 c 0,19,20
 128 974 128 974 208 1070 c 0,21,22
 291 1170 291 1170 439 1170 c 0,23,24
 718 1170 718 1170 718 940 c 0,25,26
 718 820 718 820 622 765 c 0,27,28
 576 739 576 739 505.5 739 c 128,-1,29
 435 739 435 739 390 793 c 1,30,31
 390 700 390 700 429.5 658.5 c 128,-1,32
 469 617 469 617 560 617 c 2,33,-1
 717 617 l 1,34,-1
 717 450 l 1,35,-1
 560 450 l 2,36,37
 462 450 462 450 428 386 c 0,38,39
 410 354 410 354 410.5 316.5 c 128,-1,40
 411 279 411 279 421.5 257 c 128,-1,41
 432 235 432 235 453 221.5 c 128,-1,42
 474 208 474 208 498 199 c 128,-1,43
 522 190 522 190 557 186 c 0,44,45
 615 178 615 178 696 178 c 0,0,1
552 941 m 0,46,47
 552 1034 552 1034 476 1034 c 0,48,49
 428 1034 428 1034 409 1003.5 c 128,-1,50
 390 973 390 973 390 918 c 2,51,-1
 390 869 l 1,52,-1
 465 869 l 2,53,54
 552 869 552 869 552 941 c 0,46,47
EndSplineSet
EndChar

StartChar: uni0E94
Encoding: 3732 3732 213
Width: 1360
GlyphClass: 2
Flags: HW
LayerCount: 2
Fore
SplineSet
990 693 m 2,0,1
 990 859 990 859 926 925 c 128,-1,2
 862 991 862 991 699 991 c 0,3,4
 591 991 591 991 529 963.5 c 128,-1,5
 467 936 467 936 438.5 874 c 128,-1,6
 410 812 410 812 410 704 c 2,7,-1
 410 408 l 1,8,-1
 449 421 l 2,9,10
 477 430 477 430 526.5 430 c 128,-1,11
 576 430 576 430 622 403 c 0,12,13
 716 347 716 347 716 219 c 0,14,15
 716 98 716 98 638 48 c 0,16,17
 564 0 564 0 448 0 c 128,-1,18
 332 0 332 0 263 48 c 0,19,20
 128 141 128 141 128 355 c 2,21,-1
 128 697 l 2,22,23
 128 1004 128 1004 344 1106 c 0,24,25
 479 1170 479 1170 699 1170 c 0,26,27
 1042 1170 1042 1170 1176 1017 c 0,28,29
 1276 904 1276 904 1275 697 c 2,30,-1
 1275 0 l 1,31,-1
 990 0 l 1,32,-1
 990 693 l 2,0,1
410 241 m 2,33,34
 410 147 410 147 479 147 c 0,35,36
 540 147 540 147 540 225 c 0,37,38
 540 260 540 260 519.5 280 c 128,-1,39
 499 300 499 300 463 300 c 2,40,-1
 410 300 l 1,41,-1
 410 241 l 2,33,34
EndSplineSet
EndChar

StartChar: uni0E95
Encoding: 3733 3733 214
Width: 1660
GlyphClass: 2
Flags: HW
LayerCount: 2
Fore
SplineSet
855 994 m 1,0,1
 887 1077 887 1077 968 1123.5 c 128,-1,2
 1049 1170 1049 1170 1164 1170 c 0,3,4
 1576 1170 1576 1170 1576 693 c 2,5,-1
 1576 0 l 1,6,-1
 1292 0 l 1,7,-1
 1292 713 l 2,8,9
 1292 831 1292 831 1280.5 869 c 128,-1,10
 1269 907 1269 907 1257 928.5 c 128,-1,11
 1245 950 1245 950 1228 962 c 0,12,13
 1189 990 1189 990 1142.5 990.5 c 128,-1,14
 1096 991 1096 991 1071 976.5 c 128,-1,15
 1046 962 1046 962 1032 940 c 128,-1,16
 1018 918 1018 918 1010 884 c 0,17,18
 997 829 997 829 997 748 c 2,19,-1
 997 558 l 1,20,-1
 713 558 l 1,21,-1
 713 709 l 2,22,23
 713 827 713 827 704.5 862.5 c 128,-1,24
 696 898 696 898 685.5 922 c 0,25,26
 674 946 674 946 660 960 c 0,27,28
 626 992 626 992 578 991.5 c 129,-1,29
 530 991 530 991 500 979.5 c 128,-1,30
 470 968 470 968 452.5 950 c 0,31,32
 436 932 436 932 426 898 c 0,33,34
 412 847 412 847 411 748 c 2,35,-1
 411 410 l 1,36,-1
 451 423 l 2,37,38
 487 434 487 434 519 434 c 0,39,40
 607 434 607 434 662.5 372.5 c 128,-1,41
 718 311 718 311 718 219 c 0,42,43
 718 0 718 0 437 0 c 0,44,45
 340 0 340 0 270 43 c 0,46,47
 128 129 128 129 128 337 c 2,48,-1
 128 697 l 2,49,50
 128 935 128 935 228.5 1052.5 c 128,-1,51
 329 1170 329 1170 549 1170 c 0,52,53
 666 1170 666 1170 745.5 1124.5 c 128,-1,54
 825 1079 825 1079 855 994 c 1,0,1
480 147 m 0,55,56
 541 147 541 147 541 225 c 1,57,58
 539 299 539 299 463 299 c 2,59,-1
 411 299 l 1,60,-1
 411 235 l 2,61,62
 411 147 411 147 480 147 c 0,55,56
EndSplineSet
EndChar

StartChar: uni0E96
Encoding: 3734 3734 215
Width: 1434
GlyphClass: 2
Flags: HW
LayerCount: 2
Fore
SplineSet
509 1070 m 1,0,1
 674 1170 674 1170 841 1170 c 128,-1,2
 1008 1170 1008 1170 1125.5 1119 c 128,-1,3
 1243 1068 1243 1068 1310 961.5 c 128,-1,4
 1377 855 1377 855 1377 702 c 2,5,-1
 1377 -330 l 1,6,-1
 1093 -330 l 1,7,-1
 1093 701 l 2,8,9
 1093 849 1093 849 1030 920 c 128,-1,10
 967 991 967 991 826 991 c 0,11,12
 754 991 754 991 700.5 970.5 c 128,-1,13
 647 950 647 950 578 907 c 1,14,-1
 578 409 l 1,15,-1
 615 422 l 2,16,17
 636 429 636 429 678 429 c 0,18,19
 768 429 768 429 825.5 369.5 c 128,-1,20
 883 310 883 310 883 219 c 0,21,22
 883 0 883 0 593 0 c 0,23,24
 496 0 496 0 427 48 c 0,25,26
 294 141 294 141 294 359 c 2,27,-1
 294 767 l 1,28,29
 261 761 261 761 213 761 c 0,30,31
 117 761 117 761 56 816.5 c 128,-1,32
 -5 872 -5 872 -5 965 c 0,33,34
 -5 1170 -5 1170 249 1170 c 0,35,36
 406 1170 406 1170 509 1070 c 1,0,1
642 147 m 1,37,38
 671 147 671 147 689 167 c 128,-1,39
 707 187 707 187 707 220 c 1,40,41
 701 297 701 297 626 300 c 1,42,-1
 578 300 l 1,43,-1
 578 240 l 1,44,45
 588 155 588 155 642 147 c 1,37,38
294 931 m 1,46,47
 289 1040 289 1040 232 1040 c 0,48,49
 174 1040 174 1040 174 976 c 0,50,51
 174 915 174 915 225 915 c 0,52,53
 257 915 257 915 294 931 c 1,46,47
EndSplineSet
EndChar

StartChar: uni0E97
Encoding: 3735 3735 216
Width: 1543
GlyphClass: 2
Flags: HW
LayerCount: 2
Fore
SplineSet
975 491 m 2,0,1
 975 251 975 251 875.5 125.5 c 128,-1,2
 776 0 776 0 561 0 c 0,3,4
 278 0 278 0 200 170 c 0,5,6
 172 230 172 230 172.5 289 c 128,-1,7
 173 348 173 348 193 422 c 2,8,-1
 283 747 l 1,9,10
 255 739 255 739 214 739 c 0,11,12
 125 739 125 739 71 800.5 c 128,-1,13
 17 862 17 862 17 945.5 c 128,-1,14
 17 1029 17 1029 54 1078 c 0,15,16
 123 1170 123 1170 302 1170 c 0,17,18
 464 1170 464 1170 544 1074 c 0,19,20
 586 1024 586 1024 586 971.5 c 128,-1,21
 586 919 586 919 577 889 c 1,22,-1
 445 367 l 1,23,24
 440 327 440 327 440 317 c 2,25,-1
 440 305 l 1,26,27
 447 177 447 177 557 177 c 0,28,29
 620 176 620 176 648 222 c 0,30,31
 679 272 679 272 684 323 c 0,32,33
 692 403 692 403 692 484 c 2,34,-1
 692 781 l 2,35,36
 692 981 692 981 790.5 1075.5 c 128,-1,37
 889 1170 889 1170 1092 1170 c 0,38,39
 1296 1170 1296 1170 1382 1054 c 0,40,41
 1464 943 1464 943 1464 724 c 2,42,-1
 1464 0 l 1,43,-1
 1180 0 l 1,44,-1
 1180 781 l 2,45,46
 1180 893 1180 893 1165.5 925 c 0,47,48
 1151 958 1151 958 1141 968 c 0,49,50
 1119 991 1119 991 1088.5 991 c 128,-1,51
 1058 991 1058 991 1040 984.5 c 128,-1,52
 1022 978 1022 978 1010.5 965 c 128,-1,53
 999 952 999 952 991.5 937 c 128,-1,54
 984 922 984 922 980 899 c 0,55,56
 974 863 974 863 975 806 c 2,57,-1
 975 491 l 2,0,1
264 1023 m 1,58,59
 194 1023 194 1023 194 946 c 1,60,61
 195 870 195 870 285 870 c 2,62,-1
 316 870 l 1,63,-1
 334 932 l 1,64,65
 338 939 338 939 338 957.5 c 128,-1,66
 338 976 338 976 328 992 c 0,67,68
 308 1024 308 1024 264 1023 c 1,58,59
EndSplineSet
EndChar

StartChar: uni0E99
Encoding: 3737 3737 217
Width: 1506
GlyphClass: 2
Flags: HW
LayerCount: 2
Fore
SplineSet
1439 498 m 2,0,1
 1439 0 1439 0 919 0 c 0,2,3
 755 0 755 0 649 62.5 c 128,-1,4
 543 125 543 125 512 249 c 1,5,6
 453 0 453 0 134 0 c 1,7,-1
 134 180 l 1,8,9
 379 182 379 182 379 493 c 2,10,-1
 379 762 l 1,11,12
 313 740 313 740 280 740 c 0,13,14
 186 740 186 740 129.5 798.5 c 128,-1,15
 73 857 73 857 73 953 c 0,16,17
 73 1170 73 1170 359 1170 c 0,18,19
 503 1170 503 1170 582.5 1074 c 128,-1,20
 662 978 662 978 662 824 c 2,21,-1
 662 495 l 2,22,23
 662 334 662 334 710 260 c 0,24,25
 763 178 763 178 911 177 c 0,26,27
 1054 177 1054 177 1106 247 c 0,28,29
 1156 315 1156 315 1156 462 c 2,30,-1
 1156 1170 l 1,31,-1
 1439 1170 l 1,32,-1
 1439 498 l 2,0,1
311 1023 m 1,33,34
 250 1023 250 1023 250 946.5 c 128,-1,35
 250 870 250 870 334 870 c 2,36,-1
 379 870 l 1,37,-1
 379 930 l 2,38,39
 379 1019 379 1019 311 1023 c 1,33,34
EndSplineSet
EndChar

StartChar: uni0E9A
Encoding: 3738 3738 218
Width: 1425
GlyphClass: 2
Flags: HW
LayerCount: 2
Fore
SplineSet
17 950 m 0,0,1
 17 1170 17 1170 291 1170 c 0,2,3
 413 1170 413 1170 494.5 1103.5 c 128,-1,4
 576 1037 576 1037 576 923 c 0,5,6
 576 862 576 862 552.5 779 c 128,-1,7
 529 696 529 696 524 672 c 1,8,-1
 474 475 l 1,9,10
 454 401 454 401 454 350 c 128,-1,11
 454 299 454 299 478 265.5 c 128,-1,12
 502 232 502 232 542 214 c 0,13,14
 622 178 622 178 719 177.5 c 128,-1,15
 816 177 816 177 875.5 189.5 c 0,16,17
 934 202 934 202 978 233 c 0,18,19
 1062 293 1062 293 1062 454 c 2,20,-1
 1062 1170 l 1,21,-1
 1346 1170 l 1,22,-1
 1346 507 l 2,23,24
 1346 231 1346 231 1184 113 c 0,25,26
 1030 0 1030 0 733 0 c 0,27,28
 323 0 323 0 218 218 c 0,29,30
 188 280 188 280 188 343 c 128,-1,31
 188 406 188 406 207 472 c 2,32,-1
 283 748 l 1,33,34
 251 739 251 739 217 739 c 0,35,36
 129 739 129 739 73 799.5 c 128,-1,37
 17 860 17 860 17 950 c 0,0,1
337 951 m 1,38,39
 337 1023 337 1023 259 1023 c 0,40,41
 194 1023 194 1023 194 942 c 0,42,43
 194 869 194 869 289 868 c 1,44,-1
 296 868 l 1,45,46
 297 869 297 869 306 869 c 2,47,-1
 315 869 l 1,48,-1
 324 898 l 2,49,50
 336 938 336 938 336 948 c 1,51,-1
 337 951 l 1,38,39
EndSplineSet
EndChar

StartChar: uni0E9B
Encoding: 3739 3739 219
Width: 1435
GlyphClass: 2
Flags: HW
LayerCount: 2
Fore
SplineSet
454 346 m 0,0,1
 454 177 454 177 749 177 c 0,2,3
 916 177 916 177 993.5 246.5 c 128,-1,4
 1071 316 1071 316 1071 478 c 2,5,-1
 1071 1513 l 1,6,-1
 1355 1513 l 1,7,-1
 1355 512 l 2,8,9
 1355 88 1355 88 949 16 c 0,10,11
 855 0 855 0 752 0 c 128,-1,12
 649 0 649 0 571.5 11 c 128,-1,13
 494 22 494 22 422.5 48.5 c 128,-1,14
 351 75 351 75 300 115 c 0,15,16
 188 203 188 203 188 359 c 0,17,18
 188 423 188 423 217 510 c 1,19,-1
 284 747 l 1,20,21
 250 739 250 739 216 739 c 0,22,23
 129 739 129 739 73 799.5 c 128,-1,24
 17 860 17 860 17 941.5 c 0,25,26
 18 1023 18 1023 56 1074 c 0,27,28
 128 1170 128 1170 299 1170 c 0,29,30
 419 1170 419 1170 497.5 1103 c 128,-1,31
 576 1036 576 1036 576 922 c 0,32,33
 576 868 576 868 567 838 c 0,34,35
 550 784 550 784 548 768 c 1,36,-1
 474 475 l 1,37,38
 454 401 454 401 454 346 c 0,0,1
337 956 m 1,39,40
 337 1023 337 1023 267 1023 c 0,41,-1
 266 1022 l 0,42,43
 194 1022 194 1022 194 942 c 0,44,45
 194 868 194 868 283 868 c 2,46,-1
 316 868 l 1,47,-1
 327 908 l 2,48,49
 330 919 330 919 337 956 c 1,39,40
EndSplineSet
EndChar

StartChar: uni0E9C
Encoding: 3740 3740 220
Width: 1671
GlyphClass: 2
Flags: HW
LayerCount: 2
Fore
SplineSet
1246 930 m 2,0,1
 1246 1020 1246 1020 1179 1023 c 1,2,3
 1136 1024 1136 1024 1120 978 c 0,4,5
 1116 964 1116 964 1116 948 c 0,6,7
 1116 870 1116 870 1206 870 c 2,8,-1
 1227 870 l 2,9,10
 1241 870 1241 870 1246 871 c 1,11,-1
 1246 930 l 2,0,1
479 870 m 1,12,13
 565 875 565 875 565 949 c 128,-1,14
 565 1023 565 1023 502 1023 c 1,15,16
 434 1019 434 1019 434 930 c 2,17,-1
 434 870 l 1,18,-1
 479 870 l 1,12,13
1246 747 m 1,19,20
 1212 740 1212 740 1133 740 c 128,-1,21
 1054 740 1054 740 997 799 c 128,-1,22
 940 858 940 858 940 954 c 0,23,24
 940 1170 940 1170 1224 1170 c 0,25,26
 1397 1170 1397 1170 1474 1035 c 1,27,28
 1488 1070 1488 1070 1488 1142 c 2,29,-1
 1488 1305 l 1,30,-1
 1663 1305 l 1,31,-1
 1663 1142 l 2,32,33
 1663 1006 1663 1006 1568 908 c 0,34,35
 1548 888 1548 888 1524 866 c 1,36,37
 1529 788 1529 788 1529 778 c 2,38,-1
 1529 511 l 2,39,40
 1529 0 1529 0 1154 0 c 0,41,42
 879 0 879 0 836 228 c 1,43,44
 794 0 794 0 520 0 c 0,45,46
 151 0 151 0 151 511 c 2,47,-1
 151 810 l 2,48,49
 151 1033 151 1033 283 1123 c 0,50,51
 352 1170 352 1170 472 1170 c 128,-1,52
 592 1170 592 1170 667 1119 c 128,-1,53
 742 1068 742 1068 742 963.5 c 128,-1,54
 742 859 742 859 684.5 799.5 c 128,-1,55
 627 740 627 740 534 740 c 0,56,57
 480 740 480 740 434 760 c 1,58,-1
 434 429 l 2,59,60
 434 302 434 302 447.5 268.5 c 0,61,62
 460 236 460 236 474 216 c 0,63,64
 501 178 501 178 560 177 c 1,65,66
 697 177 697 177 697 429 c 2,67,-1
 697 588 l 1,68,-1
 981 588 l 1,69,-1
 981 431 l 2,70,71
 981 177 981 177 1117 177 c 256,72,73
 1230 177 1230 177 1244 349 c 0,74,75
 1246 382 1246 382 1246 427 c 2,76,-1
 1246 747 l 1,19,20
EndSplineSet
EndChar

StartChar: uni0E9D
Encoding: 3741 3741 221
Width: 1649
GlyphClass: 2
Flags: HW
LayerCount: 2
Fore
SplineSet
433 429 m 2,0,1
 433 317 433 317 444 284 c 128,-1,2
 455 251 455 251 466 232.5 c 0,3,4
 476 214 476 214 492 202 c 0,5,6
 526 176 526 176 573 176.5 c 129,-1,7
 620 177 620 177 647.5 189.5 c 128,-1,8
 675 202 675 202 691.5 223 c 128,-1,9
 708 244 708 244 718 278 c 0,10,11
 734 333 734 333 733 429 c 2,12,-1
 733 588 l 1,13,-1
 1017 588 l 1,14,-1
 1017 429 l 2,15,16
 1018 280 1018 280 1058 224 c 0,17,18
 1092 176 1092 176 1160 177 c 1,19,20
 1223 177 1223 177 1248 202 c 128,-1,21
 1273 227 1273 227 1284 248.5 c 128,-1,22
 1295 270 1295 270 1301 300 c 0,23,24
 1312 354 1312 354 1312 429 c 2,25,-1
 1312 1513 l 1,26,-1
 1596 1513 l 1,27,-1
 1596 511 l 2,28,29
 1596 88 1596 88 1332 16 c 0,30,31
 1274 0 1274 0 1202 0 c 0,32,33
 1056 0 1056 0 979 56 c 128,-1,34
 902 112 902 112 873 228 c 1,35,36
 853 118 853 118 777.5 59 c 128,-1,37
 702 0 702 0 580.5 0 c 128,-1,38
 459 0 459 0 376 34.5 c 128,-1,39
 293 69 293 69 244 137 c 0,40,41
 150 267 150 267 150 511 c 2,42,-1
 150 820 l 2,43,44
 150 1031 150 1031 284 1123 c 0,45,46
 352 1170 352 1170 447 1170 c 0,47,48
 740 1170 740 1170 740 956 c 0,49,50
 740 859 740 859 684.5 799.5 c 128,-1,51
 629 740 629 740 534 740 c 0,52,53
 506 740 506 740 433 761 c 1,54,-1
 433 429 l 2,0,1
564 953 m 1,55,56
 564 983 564 983 547 1003 c 128,-1,57
 530 1023 530 1023 502 1023 c 0,58,59
 433 1023 433 1023 433 930 c 2,60,-1
 433 870 l 1,61,-1
 477 870 l 1,62,63
 559 880 559 880 564 953 c 1,55,56
EndSplineSet
EndChar

StartChar: uni0E9E
Encoding: 3742 3742 222
Width: 1607
GlyphClass: 2
Flags: HW
LayerCount: 2
Fore
SplineSet
17 950 m 0,0,1
 17 1170 17 1170 286 1170 c 0,2,3
 454 1170 454 1170 535 1062 c 0,4,5
 576 1008 576 1008 576 934 c 0,6,7
 576 912 576 912 563 837 c 1,8,-1
 468 457 l 1,9,10
 454 363 454 363 454 326 c 0,11,12
 454 178 454 178 563 177 c 0,13,14
 666 177 666 177 690 271 c 0,15,16
 704 322 704 322 704 407 c 2,17,-1
 704 1169 l 1,18,-1
 988 1169 l 1,19,-1
 988 407 l 2,20,21
 988 234 988 234 1057 194 c 0,22,23
 1085 178 1085 178 1122.5 177.5 c 128,-1,24
 1160 177 1160 177 1184 189 c 128,-1,25
 1208 201 1208 201 1221.5 220 c 128,-1,26
 1235 239 1235 239 1243 270 c 0,27,28
 1256 320 1256 320 1256 406 c 2,29,-1
 1256 1170 l 1,30,-1
 1539 1170 l 1,31,-1
 1539 512 l 2,32,33
 1539 0 1539 0 1164 0 c 0,34,35
 897 0 897 0 845 245 c 1,36,37
 826 126 826 126 745.5 63 c 128,-1,38
 665 0 665 0 515 0 c 128,-1,39
 365 0 365 0 276 85.5 c 128,-1,40
 187 171 187 171 187 330 c 0,41,42
 187 407 187 407 206 470 c 1,43,-1
 282 747 l 1,44,45
 248 739 248 739 216 739 c 0,46,47
 127 739 127 739 72 799 c 128,-1,48
 17 859 17 859 17 950 c 0,0,1
327 915 m 1,49,-1
 336 955 l 1,50,51
 336 1023 336 1023 263 1023 c 1,52,53
 198 1017 198 1017 194 948 c 1,54,55
 194 906 194 906 215.5 887.5 c 128,-1,56
 237 869 237 869 284 869 c 2,57,-1
 315 869 l 1,58,-1
 327 915 l 1,49,-1
EndSplineSet
EndChar

StartChar: uni0E9F
Encoding: 3743 3743 223
Width: 1603
GlyphClass: 2
Flags: HW
LayerCount: 2
Fore
SplineSet
1149 0 m 0,0,1
 876 0 876 0 828 245 c 1,2,3
 781 8 781 8 521 0 c 1,4,-1
 511 0 l 1,5,6
 340 1 340 1 256 83.5 c 128,-1,7
 172 166 172 166 172 336 c 0,8,9
 172 402 172 402 194 479 c 2,10,-1
 276 779 l 1,11,12
 246 765 246 765 190.5 765 c 0,13,14
 136 765 136 765 96 790 c 0,15,16
 18 840 18 840 17 962 c 0,17,18
 18 1034 18 1034 54 1082 c 0,19,20
 122 1170 122 1170 298 1170 c 0,21,22
 452 1170 452 1170 529 1082 c 0,23,24
 569 1036 569 1036 569 981 c 128,-1,25
 569 926 569 926 547 834 c 2,26,-1
 460 478 l 2,27,28
 438 390 438 390 438 344 c 0,29,30
 438 177 438 177 551 177 c 0,31,32
 650 177 650 177 676 272 c 0,33,34
 690 323 690 323 689 407 c 2,35,-1
 689 1169 l 1,36,-1
 972 1169 l 1,37,-1
 972 406 l 2,38,39
 972 267 972 267 1012 219 c 0,40,41
 1046 177 1046 177 1112 177 c 1,42,43
 1172 177 1172 177 1198 210 c 0,44,45
 1227 246 1227 246 1232 285 c 0,46,47
 1240 345 1240 345 1240 407 c 2,48,-1
 1240 1514 l 1,49,-1
 1523 1514 l 1,50,-1
 1523 512 l 2,51,52
 1523 0 1523 0 1149 0 c 0,0,1
253 1037 m 1,53,54
 183 1027 183 1027 179 962 c 1,55,56
 179 910 179 910 207 895 c 128,-1,57
 235 880 235 880 304 880 c 1,58,-1
 312 904 l 1,59,-1
 326 968 l 1,60,-1
 326 974 l 1,61,62
 324 1036 324 1036 253 1037 c 1,53,54
EndSplineSet
EndChar

StartChar: uni0EA1
Encoding: 3745 3745 224
Width: 1764
GlyphClass: 2
Flags: HW
LayerCount: 2
Fore
SplineSet
890 506 m 2,0,1
 890 258 890 258 1018 199 c 0,2,3
 1066 177 1066 177 1134 177 c 0,4,5
 1274 177 1274 177 1332.5 246.5 c 128,-1,6
 1391 316 1391 316 1391 464 c 2,7,-1
 1391 1170 l 1,8,-1
 1674 1170 l 1,9,-1
 1674 507 l 2,10,11
 1674 0 1674 0 1153 0 c 0,12,13
 993 0 993 0 885 64 c 128,-1,14
 777 128 777 128 746 250 c 1,15,16
 718 132 718 132 605 66 c 128,-1,17
 492 0 492 0 335 0 c 0,18,19
 124 0 124 0 61 124 c 0,20,21
 38 169 38 169 38 244.5 c 128,-1,22
 38 320 38 320 99.5 375.5 c 128,-1,23
 161 431 161 431 264 431 c 128,-1,24
 367 431 367 431 430 383.5 c 128,-1,25
 493 336 493 336 493 238 c 0,26,27
 493 198 493 198 482 176 c 1,28,29
 606 254 606 254 606 498 c 2,30,-1
 606 1170 l 1,31,-1
 890 1170 l 1,32,-1
 890 506 l 2,0,1
278 300 m 0,33,34
 249 300 249 300 232.5 280.5 c 128,-1,35
 216 261 216 261 216 233.5 c 128,-1,36
 216 206 216 206 225.5 190 c 128,-1,37
 235 174 235 174 254 166 c 0,38,39
 284 152 284 152 343 148 c 1,40,-1
 343 225 l 1,41,42
 335 300 335 300 278 300 c 0,33,34
EndSplineSet
EndChar

StartChar: uni0EA2
Encoding: 3746 3746 225
Width: 1353
GlyphClass: 2
Flags: HW
LayerCount: 2
Fore
SplineSet
441 388 m 0,0,1
 423 356 423 356 423 318.5 c 128,-1,2
 423 281 423 281 434.5 257.5 c 128,-1,3
 446 234 446 234 468.5 220 c 128,-1,4
 491 206 491 206 515 197 c 0,5,6
 540 188 540 188 576 184 c 0,7,8
 631 178 631 178 709.5 178 c 128,-1,9
 788 178 788 178 841.5 191 c 128,-1,10
 895 204 895 204 931 236 c 0,11,12
 998 295 998 295 998 448 c 2,13,-1
 998 1137 l 2,14,15
 998 1412 998 1412 1066 1578 c 1,16,-1
 1333 1578 l 1,17,18
 1281 1365 1281 1365 1281 1113 c 2,19,-1
 1281 473 l 2,20,21
 1280 134 1280 134 1016 44 c 0,22,23
 889 0 889 0 708 0 c 1,24,25
 445 0 445 0 314 59 c 0,26,27
 140 137 140 137 140 307 c 0,28,29
 140 413 140 413 216 472 c 128,-1,30
 292 531 292 531 408 531 c 1,31,32
 290 543 290 543 215 618.5 c 128,-1,33
 140 694 140 694 140 834.5 c 128,-1,34
 140 975 140 975 221.5 1072.5 c 128,-1,35
 303 1170 303 1170 450 1170 c 0,36,37
 730 1170 730 1170 730 940 c 0,38,39
 730 850 730 850 671 794 c 128,-1,40
 612 738 612 738 520 738 c 0,41,42
 489 738 489 738 460 748.5 c 128,-1,43
 431 759 431 759 423 761 c 1,44,-1
 423 755 l 2,45,46
 423 683 423 683 460 650 c 128,-1,47
 497 617 497 617 572 617 c 2,48,-1
 729 617 l 1,49,-1
 729 450 l 1,50,-1
 572 450 l 2,51,52
 476 450 476 450 441 388 c 0,0,1
477 869 m 2,53,54
 512 869 512 869 532.5 888 c 128,-1,55
 553 907 553 907 553 941 c 0,56,57
 553 1023 553 1023 487 1023 c 1,58,59
 423 1022 423 1022 423 918 c 2,60,-1
 423 869 l 1,61,-1
 477 869 l 2,53,54
EndSplineSet
EndChar

StartChar: uni0EA3
Encoding: 3747 3747 226
Width: 1348
GlyphClass: 2
Flags: HW
LayerCount: 2
Fore
SplineSet
95 348 m 0,0,1
 95 600 95 600 350 600 c 0,2,3
 455 600 455 600 523.5 542.5 c 128,-1,4
 592 485 592 485 592 397 c 128,-1,5
 592 309 592 309 540.5 255 c 128,-1,6
 489 201 489 201 413 201 c 1,7,-1
 379 207 l 1,8,9
 454 174 454 174 677 174 c 0,10,11
 872 174 872 174 964 249 c 0,12,13
 1018 293 1018 293 1018 359 c 128,-1,14
 1018 425 1018 425 972.5 470.5 c 128,-1,15
 927 516 927 516 857.5 542 c 128,-1,16
 788 568 788 568 698.5 589.5 c 0,17,18
 610 611 610 611 528 624 c 0,19,20
 321 657 321 657 265 686.5 c 0,21,22
 208 716 208 716 178 745 c 0,23,24
 110 810 110 810 110 925 c 0,25,26
 110 1122 110 1122 432 1158 c 0,27,28
 534 1170 534 1170 622.5 1170 c 128,-1,29
 711 1170 711 1170 757 1168.5 c 128,-1,30
 803 1167 803 1167 855 1162.5 c 128,-1,31
 907 1158 907 1158 947.5 1150 c 128,-1,32
 988 1142 988 1142 1029.5 1129 c 128,-1,33
 1071 1116 1071 1116 1102 1098 c 128,-1,34
 1133 1080 1133 1080 1161 1054.5 c 0,35,36
 1188 1029 1188 1029 1206 997 c 0,37,38
 1244 927 1244 927 1245 832 c 2,39,-1
 1245 810 l 1,40,-1
 989 810 l 1,41,-1
 989 836 l 2,42,43
 989 884 989 884 974.5 905 c 128,-1,44
 960 926 960 926 949.5 937.5 c 128,-1,45
 939 949 939 949 920.5 957 c 128,-1,46
 902 965 902 965 887.5 971 c 128,-1,47
 873 977 873 977 848 980.5 c 128,-1,48
 823 984 823 984 806 986.5 c 128,-1,49
 789 989 789 989 760 990 c 128,-1,50
 731 991 731 991 714 991 c 2,51,-1
 598 991 l 2,52,53
 450 991 450 991 412 959 c 0,54,55
 394 944 394 944 394.5 923 c 128,-1,56
 395 902 395 902 407 886 c 128,-1,57
 419 870 419 870 441 859 c 128,-1,58
 463 848 463 848 488 839.5 c 128,-1,59
 513 831 513 831 546 825 c 128,-1,60
 579 819 579 819 605.5 815 c 0,61,62
 632 810 632 810 664 806 c 0,63,64
 714 799 714 799 745.5 793 c 128,-1,65
 777 787 777 787 809 781 c 128,-1,66
 841 775 841 775 898 762 c 128,-1,67
 955 749 955 749 986.5 738 c 128,-1,68
 1018 727 1018 727 1064.5 708 c 128,-1,69
 1111 689 1111 689 1137 669 c 128,-1,70
 1163 649 1163 649 1194.5 619.5 c 128,-1,71
 1226 590 1226 590 1242 556 c 0,72,73
 1281 474 1281 474 1281 386.5 c 128,-1,74
 1281 299 1281 299 1247 232.5 c 128,-1,75
 1213 166 1213 166 1157 123.5 c 0,76,77
 1102 80 1102 80 1024 52 c 0,78,79
 881 0 881 0 687 0 c 1,80,81
 450 0 450 0 286 74 c 0,82,83
 202 112 202 112 148 181 c 128,-1,84
 94 250 94 250 95 348 c 0,0,1
416 373 m 0,85,86
 416 454 416 454 351 455 c 1,87,88
 282 454 282 454 281 335 c 0,89,90
 281 332 281 332 286 299 c 1,91,-1
 324 299 l 1,92,93
 416 302 416 302 416 373 c 0,85,86
EndSplineSet
EndChar

StartChar: uni0EA5
Encoding: 3749 3749 227
Width: 1373
GlyphClass: 2
Flags: HW
LayerCount: 2
Fore
SplineSet
326 300 m 1,0,-1
 326 276 l 2,1,2
 326 172 326 172 352 148 c 0,3,4
 365 136 365 136 397 136.5 c 128,-1,5
 429 137 429 137 451.5 161 c 128,-1,6
 474 185 474 185 475 225 c 1,7,8
 475 294 475 294 387 300 c 1,9,-1
 326 300 l 1,0,-1
1037 324 m 2,10,-1
 1036 387 l 1,11,-1
 1036 660 l 2,12,13
 1036 844 1036 844 966 914 c 0,14,15
 897 983 897 983 718 991 c 1,16,17
 568 991 568 991 485 942 c 128,-1,18
 402 893 402 893 388 780 c 1,19,-1
 159 780 l 1,20,21
 159 1026 159 1026 394 1118 c 0,22,23
 528 1170 528 1170 698 1170 c 128,-1,24
 868 1170 868 1170 975 1144 c 128,-1,25
 1082 1118 1082 1118 1161 1061 c 0,26,27
 1320 946 1320 946 1320 674 c 2,28,-1
 1320 448 l 2,29,30
 1320 184 1320 184 1226 80 c 0,31,32
 1155 1 1155 1 1020 0 c 0,33,34
 931 0 931 0 872 50 c 0,35,36
 814 100 814 100 786 151 c 128,-1,37
 758 202 758 202 738 238.5 c 128,-1,38
 718 275 718 275 700.5 309 c 128,-1,39
 683 343 683 343 659.5 373.5 c 128,-1,40
 636 404 636 404 610 427 c 0,41,42
 553 477 553 477 465.5 477 c 128,-1,43
 378 477 378 477 342 392 c 1,44,45
 378 409 378 409 437 409 c 1,46,47
 523 401 523 401 576.5 349.5 c 128,-1,48
 630 298 630 298 630 205.5 c 128,-1,49
 630 113 630 113 559.5 56.5 c 128,-1,50
 489 0 489 0 391 0 c 128,-1,51
 293 0 293 0 236 36 c 0,52,53
 117 112 117 112 117 307 c 0,54,55
 117 392 117 392 161.5 459 c 128,-1,56
 206 526 206 526 287 563 c 128,-1,57
 368 600 368 600 456 600 c 128,-1,58
 544 600 544 600 609 579 c 128,-1,59
 674 558 674 558 720.5 524.5 c 128,-1,60
 767 491 767 491 806.5 450.5 c 128,-1,61
 846 410 846 410 873.5 369.5 c 0,62,63
 902 330 902 330 922 296 c 0,64,65
 972 225 972 225 982 220 c 1,66,67
 997 220 997 220 1007 225.5 c 128,-1,68
 1017 231 1017 231 1023 242 c 0,69,70
 1028 253 1028 253 1032 264 c 0,71,72
 1036 278 1036 278 1037 324 c 2,10,-1
EndSplineSet
EndChar

StartChar: uni0EA7
Encoding: 3751 3751 228
Width: 1310
GlyphClass: 2
Flags: HW
LayerCount: 2
Fore
SplineSet
160 521 m 128,-1,1
 225 587 225 587 342 587 c 128,-1,2
 459 587 459 587 529.5 530.5 c 128,-1,3
 600 474 600 474 600 383.5 c 128,-1,4
 600 293 600 293 549.5 241 c 128,-1,5
 499 189 499 189 421 189 c 1,6,-1
 365 198 l 1,7,8
 463 161 463 161 641.5 161 c 128,-1,9
 820 161 820 161 901 237.5 c 128,-1,10
 982 314 982 314 982 483 c 2,11,-1
 982 660 l 2,12,13
 982 842 982 842 917 916 c 0,14,15
 851 990 851 990 689 990.5 c 128,-1,16
 527 991 527 991 452.5 943.5 c 128,-1,17
 378 896 378 896 361 782 c 1,18,-1
 131 782 l 1,19,20
 130 1118 130 1118 550 1164 c 0,21,22
 608 1170 608 1170 699 1170 c 128,-1,23
 790 1170 790 1170 880.5 1154.5 c 128,-1,24
 971 1139 971 1139 1044.5 1103 c 128,-1,25
 1118 1067 1118 1067 1166 1010 c 0,26,27
 1266 891 1266 891 1266 674 c 2,28,-1
 1266 477 l 2,29,30
 1266 120 1266 120 915 28 c 0,31,32
 808 0 808 0 706 0 c 128,-1,33
 604 0 604 0 538 7 c 128,-1,34
 472 14 472 14 405.5 28.5 c 128,-1,35
 339 43 339 43 284 69 c 128,-1,36
 229 95 229 95 186 130 c 0,37,38
 95 204 95 204 95 329.5 c 128,-1,0
 95 455 95 455 160 521 c 128,-1,1
321 286 m 2,39,40
 423 286 423 286 423 359 c 0,41,42
 423 442 423 442 355 442 c 1,43,44
 287 439 287 439 287 322 c 0,45,46
 287 293 287 293 291 286 c 1,47,-1
 321 286 l 2,39,40
EndSplineSet
EndChar

StartChar: uni0EAA
Encoding: 3754 3754 229
Width: 1423
GlyphClass: 2
Flags: HW
LayerCount: 2
Fore
SplineSet
1148 23 m 0,0,1
 1098 0 1098 0 1042 0 c 128,-1,2
 986 0 986 0 944.5 13 c 128,-1,3
 903 26 903 26 874 49 c 128,-1,4
 845 72 845 72 819.5 102 c 128,-1,5
 794 132 794 132 776 166 c 128,-1,6
 758 200 758 200 739 236 c 128,-1,7
 720 272 720 272 703.5 306 c 128,-1,8
 687 340 687 340 664.5 370 c 128,-1,9
 642 400 642 400 618 423 c 0,10,11
 546 467 546 467 501 472 c 1,12,13
 378 472 378 472 338 393 c 1,14,15
 397 409 397 409 441.5 409 c 128,-1,16
 486 409 486 409 533 384 c 0,17,18
 631 332 631 332 631 222.5 c 128,-1,19
 631 113 631 113 556.5 56.5 c 128,-1,20
 482 0 482 0 384.5 0 c 0,21,22
 288 0 288 0 230 40 c 0,23,24
 118 119 118 119 117 298 c 0,25,26
 117 435 117 435 213.5 512 c 128,-1,27
 310 589 310 589 465 589 c 0,28,29
 616 590 616 590 712 522 c 0,30,31
 779 475 779 475 814 431 c 0,32,33
 894 330 894 330 911 298 c 128,-1,34
 928 266 928 266 934 257 c 128,-1,35
 940 248 940 248 944 243.5 c 128,-1,36
 948 239 948 239 954 233 c 0,37,38
 960 228 960 228 966 224 c 0,39,40
 978 217 978 217 992 216 c 0,41,42
 1036 216 1036 216 1036 314 c 2,43,-1
 1036 700 l 1,44,45
 967 673 967 673 853 665.5 c 128,-1,46
 739 658 739 658 695 658 c 128,-1,47
 651 658 651 658 602 660 c 128,-1,48
 553 662 553 662 499.5 666.5 c 128,-1,49
 446 671 446 671 401.5 679 c 128,-1,50
 357 687 357 687 314 699.5 c 128,-1,51
 271 712 271 712 238.5 730 c 128,-1,52
 206 748 206 748 181 772 c 0,53,54
 130 820 130 820 130 895 c 0,55,56
 130 1170 130 1170 708 1170 c 0,57,58
 1090 1170 1090 1170 1190 1015 c 1,59,60
 1212 1088 1212 1088 1212 1159 c 2,61,-1
 1212 1242 l 1,62,-1
 1417 1242 l 1,63,-1
 1417 1167 l 2,64,65
 1417 947 1417 947 1313 852 c 1,66,67
 1320 799 1320 799 1320 616 c 2,68,-1
 1320 425 l 2,69,70
 1320 103 1320 103 1148 23 c 0,0,1
357 146 m 128,-1,72
 369 137 369 137 399.5 137 c 128,-1,73
 430 137 430 137 453 161 c 128,-1,74
 476 185 476 185 477 226 c 1,75,76
 472 298 472 298 364 300 c 1,77,-1
 326 300 l 1,78,-1
 326 280 l 2,79,80
 326 193 326 193 335.5 174 c 128,-1,71
 345 155 345 155 357 146 c 128,-1,72
1052 878 m 1,81,82
 1044 991 1044 991 708 991 c 0,83,84
 529 991 529 991 472 966 c 0,85,86
 431 948 431 948 422.5 930 c 128,-1,87
 414 912 414 912 414 896.5 c 128,-1,88
 414 881 414 881 420.5 869.5 c 128,-1,89
 427 858 427 858 439.5 850.5 c 128,-1,90
 452 843 452 843 469 837 c 128,-1,91
 486 831 486 831 506 828 c 128,-1,92
 526 825 526 825 548 822.5 c 128,-1,93
 570 820 570 820 593 819.5 c 0,94,95
 616 818 616 818 638 818 c 0,96,97
 649 818 649 818 659.5 818 c 128,-1,98
 670 818 670 818 680 818 c 0,99,100
 700 818 700 818 708 819 c 0,101,102
 934 819 934 819 1052 878 c 1,81,82
EndSplineSet
EndChar

StartChar: uni0EAB
Encoding: 3755 3755 230
Width: 1966
GlyphClass: 2
Flags: HW
LayerCount: 2
Fore
SplineSet
220 740 m 1,0,1
 127 740 127 740 72 799.5 c 128,-1,2
 17 859 17 859 17 955 c 0,3,4
 17 1170 17 1170 303 1170 c 0,5,6
 465 1170 465 1170 544 1074 c 0,7,8
 585 1024 585 1024 585 960.5 c 128,-1,9
 585 897 585 897 560 822 c 1,10,-1
 459 426 l 2,11,12
 448 385 448 385 448 354 c 0,13,14
 448 265 448 265 515.5 221 c 128,-1,15
 583 177 583 177 704 177 c 128,-1,16
 825 177 825 177 884 239.5 c 128,-1,17
 943 302 943 302 943 439 c 2,18,-1
 943 754 l 1,19,20
 913 740 913 740 862 740 c 0,21,22
 756 740 756 740 699 797 c 128,-1,23
 642 854 642 854 642 943 c 128,-1,24
 642 1032 642 1032 677 1080 c 0,25,26
 744 1170 744 1170 922 1170 c 128,-1,27
 1100 1170 1100 1170 1184 1047 c 1,28,29
 1311 1143 1311 1143 1399 1162 c 0,30,31
 1435 1170 1435 1170 1475 1170 c 0,32,33
 1897 1170 1897 1170 1897 702 c 2,34,-1
 1897 0 l 1,35,-1
 1613 0 l 1,36,-1
 1613 697 l 2,37,38
 1613 869 1613 869 1590 911 c 0,39,40
 1558 970 1558 970 1520 980.5 c 128,-1,41
 1482 991 1482 991 1443.5 991 c 0,42,43
 1404 991 1404 991 1366 979 c 0,44,45
 1320 965 1320 965 1275.5 939 c 128,-1,46
 1231 913 1231 913 1227 911 c 1,47,-1
 1227 443 l 2,48,49
 1227 0 1227 0 665 0 c 0,50,51
 480 0 480 0 342 78 c 0,52,53
 197 160 197 160 182 317 c 0,54,55
 182 322 182 322 181 323 c 1,56,-1
 181 339 l 2,57,58
 181 376 181 376 194 426 c 2,59,-1
 284 752 l 1,60,61
 272 750 272 750 220 740 c 1,0,1
337 956 m 1,62,63
 337 985 337 985 315 1004 c 128,-1,64
 293 1023 293 1023 262 1023 c 0,65,66
 195 1021 195 1021 194 946 c 1,67,68
 198 870 198 870 287 870 c 2,69,-1
 316 870 l 1,70,71
 335 956 335 956 337 956 c 1,62,63
930.5 1008 m 128,-1,73
 918 1032 918 1032 886 1032 c 0,74,75
 820 1032 820 1032 819 964 c 0,76,77
 819 894 819 894 883 894 c 0,78,79
 923 894 923 894 943 904 c 1,80,-1
 943 937 l 2,81,72
 943 984 943 984 930.5 1008 c 128,-1,73
EndSplineSet
EndChar

StartChar: uni0EAD
Encoding: 3757 3757 231
Width: 1313
GlyphClass: 2
Flags: HW
LayerCount: 2
Fore
SplineSet
388.5 858 m 128,-1,1
 400 842 400 842 420 833 c 128,-1,2
 440 824 440 824 466 818.5 c 0,3,4
 492 814 492 814 522 812 c 0,5,6
 588 809 588 809 621 808 c 0,7,8
 627 808 627 808 632 808 c 0,9,10
 665 809 665 809 675 809 c 0,11,12
 997 809 997 809 1000 895 c 1,13,14
 1000 991 1000 991 654 991 c 0,15,16
 461 991 461 991 409 954 c 0,17,18
 377 931 377 931 377 902.5 c 128,-1,0
 377 874 377 874 388.5 858 c 128,-1,1
152 504 m 128,-1,20
 217 566 217 566 330 566 c 128,-1,21
 443 566 443 566 511.5 519.5 c 128,-1,22
 580 473 580 473 580 392 c 128,-1,23
 580 311 580 311 533 261.5 c 128,-1,24
 486 212 486 212 374 190 c 1,25,26
 456 156 456 156 649 156 c 0,27,28
 753 156 753 156 799 171.5 c 128,-1,29
 845 187 845 187 871 200.5 c 128,-1,30
 897 214 897 214 916.5 236 c 128,-1,31
 936 258 936 258 950.5 280.5 c 128,-1,32
 965 303 965 303 974.5 336 c 128,-1,33
 984 369 984 369 990.5 400.5 c 128,-1,34
 997 432 997 432 1000 476 c 0,35,36
 1005 549 1005 549 1005 655 c 2,37,-1
 1005 717 l 1,38,39
 940 635 940 635 742 615 c 0,40,41
 702 611 702 611 668 611 c 0,42,43
 94 611 94 611 94 895 c 0,44,45
 94 1170 94 1170 654 1170 c 0,46,47
 1046 1170 1046 1170 1186 1022 c 0,48,49
 1290 911 1290 911 1290 723 c 2,50,-1
 1290 515 l 2,51,52
 1290 0 1290 0 686 0 c 0,53,54
 348 0 348 0 182 130 c 0,55,56
 88 204 88 204 87.5 323 c 128,-1,19
 87 442 87 442 152 504 c 128,-1,20
353 442 m 0,57,58
 305 442 305 442 281.5 411.5 c 128,-1,59
 258 381 258 381 258 333 c 0,60,61
 258 331 258 331 264 286 c 1,62,63
 334 286 334 286 372 301 c 128,-1,64
 410 316 410 316 413 358 c 1,65,66
 413 442 413 442 353 442 c 0,57,58
EndSplineSet
EndChar

StartChar: uni0EAE
Encoding: 3758 3758 232
Width: 1285
GlyphClass: 2
Flags: HW
LayerCount: 2
Fore
SplineSet
423 358 m 0,0,1
 423 409 423 409 401 425 c 128,-1,2
 379 441 379 441 358 441 c 0,3,4
 288 440 288 440 288 322 c 0,5,6
 288 304 288 304 291 288 c 1,7,-1
 335 288 l 2,8,9
 423 288 423 288 423 358 c 0,0,1
589 951 m 128,-1,11
 476 982 476 982 426.5 982 c 128,-1,12
 377 982 377 982 377 946 c 0,13,14
 377 922 377 922 393.5 907 c 128,-1,15
 410 892 410 892 422.5 883 c 128,-1,16
 435 874 435 874 454.5 865.5 c 128,-1,17
 474 857 474 857 489.5 850 c 128,-1,18
 505 843 505 843 528 835.5 c 128,-1,19
 551 828 551 828 566 823 c 0,20,21
 621 805 621 805 638 800 c 2,22,-1
 832 738 l 2,23,24
 992 686 992 686 1045 651.5 c 128,-1,25
 1098 617 1098 617 1129.5 588 c 0,26,27
 1160 558 1160 558 1180 526 c 0,28,29
 1224 452 1224 452 1224.5 371 c 128,-1,30
 1225 290 1225 290 1204.5 234 c 128,-1,31
 1184 178 1184 178 1145 139.5 c 128,-1,32
 1106 101 1106 101 1055 73.5 c 128,-1,33
 1004 46 1004 46 937 30 c 0,34,35
 811 0 811 0 685 0 c 128,-1,36
 559 0 559 0 483 9.5 c 128,-1,37
 407 19 407 19 334 42.5 c 0,38,39
 262 66 262 66 210 103 c 0,40,41
 96 185 96 185 95 321 c 0,42,43
 95 587 95 587 353 587 c 0,44,45
 458 587 458 587 529 529.5 c 128,-1,46
 600 472 600 472 600 382 c 128,-1,47
 600 292 600 292 546 241 c 128,-1,48
 492 190 492 190 408 190 c 1,49,-1
 361 198 l 1,50,51
 455 161 455 161 654 161 c 0,52,53
 933 161 933 161 941 340 c 1,54,55
 936 482 936 482 711 554 c 0,56,57
 620 583 620 583 600 590 c 2,58,-1
 540 611 l 2,59,60
 520 618 520 618 484 629.5 c 128,-1,61
 448 641 448 641 425.5 648.5 c 128,-1,62
 403 656 403 656 369 668.5 c 128,-1,63
 335 681 335 681 313.5 691.5 c 128,-1,64
 292 702 292 702 263.5 718 c 128,-1,65
 235 734 235 734 217 750 c 128,-1,66
 199 766 199 766 180 787.5 c 128,-1,67
 161 809 161 809 150 833 c 0,68,69
 125 888 125 888 125 950 c 0,70,71
 125 1046 125 1046 195.5 1108 c 128,-1,72
 266 1170 266 1170 352.5 1170 c 128,-1,73
 439 1170 439 1170 523 1151 c 0,74,75
 606 1132 606 1132 670 1110 c 0,76,77
 841 1050 841 1050 959 1049 c 0,78,79
 985 1049 985 1049 1003.5 1064.5 c 128,-1,80
 1022 1080 1022 1080 1022 1105 c 2,81,-1
 1022 1170 l 1,82,-1
 1225 1170 l 1,83,-1
 1225 1105 l 2,84,85
 1225 858 1225 858 1012 858 c 0,86,87
 943 858 943 858 822.5 889 c 128,-1,10
 702 920 702 920 589 951 c 128,-1,11
EndSplineSet
EndChar

StartChar: uni0EAF
Encoding: 3759 3759 233
Width: 1426
GlyphClass: 2
Flags: HW
LayerCount: 2
Fore
SplineSet
738.5 1111.5 m 128,-1,1
 782 1055 782 1055 782 980.5 c 128,-1,2
 782 906 782 906 754.5 845.5 c 128,-1,3
 727 785 727 785 674 747.5 c 128,-1,4
 621 710 621 710 546.5 710 c 128,-1,5
 472 710 472 710 423 755.5 c 128,-1,6
 374 801 374 801 374 880 c 1,7,8
 375 885 375 885 382 928 c 128,-1,9
 389 971 389 971 395 1004 c 1,10,11
 314 962 314 962 314 812 c 0,12,13
 314 676 314 676 420 622 c 0,14,15
 470 596 470 596 531 596 c 128,-1,16
 592 596 592 596 645.5 613 c 128,-1,17
 699 630 699 630 744 656.5 c 128,-1,18
 789 683 789 683 834.5 723 c 128,-1,19
 880 763 880 763 914.5 802 c 128,-1,20
 949 841 949 841 985 890 c 0,21,22
 1040 965 1040 965 1095 1058 c 2,23,-1
 1145 1144 l 1,24,-1
 1446 1021 l 1,25,-1
 827 -432 l 1,26,-1
 593 -334 l 1,27,-1
 1049 744 l 1,28,-1
 1015 691 l 2,29,30
 829 401 829 401 533 401 c 1,31,32
 326 402 326 402 192 500 c 0,33,34
 50 604 50 604 50 796 c 0,35,36
 50 918 50 918 104 1015.5 c 128,-1,37
 158 1113 158 1113 255 1167.5 c 128,-1,38
 352 1222 352 1222 454.5 1222 c 128,-1,39
 557 1222 557 1222 626 1195 c 128,-1,0
 695 1168 695 1168 738.5 1111.5 c 128,-1,1
501 916 m 2,40,41
 501 859 501 859 562 859 c 1,42,43
 615 863 615 863 617 932 c 1,44,45
 614 1008 614 1008 503 1019 c 1,46,47
 501 943 501 943 501 930 c 2,48,-1
 501 916 l 2,40,41
EndSplineSet
EndChar

StartChar: uni0EB1
Encoding: 3761 3761 235
Width: 2
GlyphClass: 2
Flags: HW
LayerCount: 2
Fore
SplineSet
-940 1550 m 128,-1,1
 -962 1567 -962 1567 -991.5 1567 c 0,2,3
 -1022 1567 -1022 1567 -1038 1560 c 0,4,5
 -1074 1545 -1074 1545 -1073 1503 c 0,6,7
 -1072 1436 -1072 1436 -983 1436 c 2,8,-1
 -918 1436 l 1,9,-1
 -918 1502 l 2,10,0
 -918 1533 -918 1533 -940 1550 c 128,-1,1
-1002 1724 m 0,11,12
 -918 1724 -918 1724 -860 1680.5 c 128,-1,13
 -802 1637 -802 1637 -802 1562 c 0,14,15
 -802 1521 -802 1521 -815 1494 c 2,16,-1
 -841 1436 l 1,17,-1
 -621 1436 l 2,18,19
 -467 1436 -467 1436 -421 1472 c 0,20,21
 -379 1504 -379 1504 -370.5 1552.5 c 128,-1,22
 -362 1601 -362 1601 -361 1649 c 1,23,-1
 -148 1649 l 1,24,25
 -148 1247 -148 1247 -645 1247 c 2,26,-1
 -818 1247 l 2,27,28
 -981 1247 -981 1247 -1042 1265 c 128,-1,29
 -1103 1283 -1103 1283 -1135 1300.5 c 128,-1,30
 -1167 1318 -1167 1318 -1188 1341 c 0,31,32
 -1234 1391 -1234 1391 -1234 1472 c 0,33,34
 -1234 1724 -1234 1724 -1002 1724 c 0,11,12
EndSplineSet
EndChar

StartChar: uni0EB2
Encoding: 3762 3762 236
Width: 957
GlyphClass: 2
Flags: HW
LayerCount: 2
Fore
SplineSet
303 708 m 0,0,1
 193 708 193 708 125.5 762 c 128,-1,2
 58 816 58 816 58 918 c 0,3,4
 58 1110 58 1110 266 1158 c 0,5,6
 328 1172 328 1172 403 1172 c 0,7,8
 635 1172 635 1172 754 1075.5 c 128,-1,9
 873 979 873 979 873 768 c 2,10,-1
 873 0 l 1,11,-1
 590 0 l 1,12,-1
 590 818 l 2,13,14
 590 907 590 907 567.5 952 c 128,-1,15
 545 997 545 997 483 1013 c 1,16,-1
 500 899 l 1,17,18
 500 708 500 708 303 708 c 0,0,1
234 937 m 0,19,20
 234 858 234 858 318 858 c 0,21,22
 388 858 388 858 388 971 c 2,23,-1
 388 1021 l 1,24,25
 292 1021 292 1021 272 1007 c 0,26,27
 234 981 234 981 234 937 c 0,19,20
EndSplineSet
EndChar

StartChar: uni0EB3
Encoding: 3763 3763 237
Width: 1020
GlyphClass: 2
Flags: HW
LayerCount: 2
Fore
SplineSet
328 728 m 0,0,1
 216 728 216 728 149.5 781.5 c 128,-1,2
 83 835 83 835 83 938 c 0,3,4
 82 1130 82 1130 288 1178 c 0,5,6
 350 1192 350 1192 427 1192 c 0,7,8
 658 1192 658 1192 777.5 1096.5 c 128,-1,9
 897 1001 897 1001 897 791 c 2,10,-1
 897 0 l 1,11,-1
 614 0 l 1,12,-1
 614 838 l 2,13,14
 614 927 614 927 591.5 972.5 c 128,-1,15
 569 1018 569 1018 507 1034 c 1,16,-1
 525 921 l 1,17,18
 525 728 525 728 328 728 c 0,0,1
258 958 m 0,19,20
 258 880 258 880 343 880 c 0,21,22
 408 880 408 880 412 992 c 1,23,-1
 411 1042 l 1,24,25
 313 1042 313 1042 294 1028 c 0,26,27
 258 1001 258 1001 258 958 c 0,19,20
-214 1637 m 128,-1,29
 -183 1584 -183 1584 -183 1501.5 c 128,-1,30
 -183 1419 -183 1419 -251 1354 c 128,-1,31
 -319 1289 -319 1289 -401.5 1289 c 128,-1,32
 -484 1289 -484 1289 -538.5 1318.5 c 128,-1,33
 -593 1348 -593 1348 -624.5 1401 c 128,-1,34
 -656 1454 -656 1454 -656 1518 c 0,35,36
 -656 1616 -656 1616 -587.5 1682 c 128,-1,37
 -519 1748 -519 1748 -436 1748 c 128,-1,38
 -353 1748 -353 1748 -299 1719 c 128,-1,28
 -245 1690 -245 1690 -214 1637 c 128,-1,29
-486 1455 m 128,-1,40
 -459 1428 -459 1428 -418.5 1428 c 128,-1,41
 -378 1428 -378 1428 -351 1453 c 128,-1,42
 -324 1478 -324 1478 -324 1519 c 128,-1,43
 -324 1560 -324 1560 -351.5 1586.5 c 128,-1,44
 -379 1613 -379 1613 -419.5 1613 c 128,-1,45
 -460 1613 -460 1613 -486.5 1586.5 c 128,-1,46
 -513 1560 -513 1560 -513 1521 c 128,-1,39
 -513 1482 -513 1482 -486 1455 c 128,-1,40
EndSplineSet
MultipleSubs2: "'ccmp' Glyph Composition/Decomposition in Lao lookup 2 subtable" uni0ECD uni0EB2
Substitution2: "'liga' Standard Ligatures lookup 0 subtable" uni0ECD_uni0EB2
EndChar

StartChar: uni0EB4
Encoding: 3764 3764 238
Width: 3
GlyphClass: 2
Flags: HW
LayerCount: 2
Fore
SplineSet
-803 1773.5 m 128,-1,1
 -737 1782 -737 1782 -664.5 1782 c 128,-1,2
 -592 1782 -592 1782 -526 1773.5 c 128,-1,3
 -460 1765 -460 1765 -396 1744.5 c 128,-1,4
 -332 1724 -332 1724 -286 1692 c 0,5,6
 -182 1621 -182 1621 -182 1494 c 0,7,8
 -182 1306 -182 1306 -394 1260 c 0,9,10
 -456 1246 -456 1246 -533 1247 c 2,11,-1
 -576 1247 l 1,12,-1
 -576 1404 l 1,13,-1
 -530 1404 l 1,14,15
 -402 1411 -402 1411 -396 1494 c 1,16,17
 -396 1553 -396 1553 -435 1578 c 0,18,19
 -477 1605 -477 1605 -522 1611 c 0,20,21
 -593 1619 -593 1619 -649.5 1619 c 128,-1,22
 -706 1619 -706 1619 -736 1617.5 c 128,-1,23
 -766 1616 -766 1616 -799 1611.5 c 128,-1,24
 -832 1607 -832 1607 -855 1598.5 c 128,-1,25
 -878 1590 -878 1590 -898 1576 c 0,26,27
 -936 1549 -936 1549 -938 1494 c 1,28,29
 -936 1404 -936 1404 -801 1404 c 2,30,-1
 -753 1404 l 1,31,-1
 -753 1247 l 1,32,-1
 -799 1247 l 2,33,34
 -1048 1247 -1048 1247 -1123 1378 c 0,35,36
 -1151 1427 -1151 1427 -1151 1492 c 128,-1,37
 -1151 1557 -1151 1557 -1121.5 1607.5 c 128,-1,38
 -1092 1658 -1092 1658 -1045 1690 c 128,-1,39
 -998 1722 -998 1722 -933.5 1743.5 c 128,-1,0
 -869 1765 -869 1765 -803 1773.5 c 128,-1,1
EndSplineSet
EndChar

StartChar: uni0EB5
Encoding: 3765 3765 239
Width: 3
GlyphClass: 2
Flags: HW
LayerCount: 2
Fore
SplineSet
-832 1782 m 128,-1,1
 -761 1782 -761 1782 -695.5 1773.5 c 128,-1,2
 -630 1765 -630 1765 -566 1744.5 c 128,-1,3
 -502 1724 -502 1724 -455 1693 c 0,4,5
 -351 1624 -351 1624 -349 1503 c 1,6,7
 -351 1441 -351 1441 -404 1404 c 1,8,-1
 -189 1404 l 1,9,-1
 -189 1247 l 1,10,-1
 -742 1247 l 1,11,-1
 -742 1404 l 1,12,-1
 -698 1404 l 2,13,14
 -564 1404 -564 1404 -564 1494 c 0,15,16
 -564 1619 -564 1619 -832 1619 c 0,17,18
 -940 1619 -940 1619 -971 1612 c 128,-1,19
 -1002 1605 -1002 1605 -1022.5 1599 c 128,-1,20
 -1043 1593 -1043 1593 -1057 1583.5 c 0,21,22
 -1070 1574 -1070 1574 -1082 1562 c 0,23,24
 -1104 1538 -1104 1538 -1105 1494 c 0,25,26
 -1105 1404 -1105 1404 -969 1404 c 2,27,-1
 -922 1404 l 1,28,-1
 -922 1247 l 1,29,-1
 -966 1247 l 2,30,31
 -1215 1247 -1215 1247 -1290 1378 c 0,32,33
 -1318 1427 -1318 1427 -1318 1492 c 128,-1,34
 -1318 1557 -1318 1557 -1289 1607.5 c 128,-1,35
 -1260 1658 -1260 1658 -1212.5 1690 c 128,-1,36
 -1165 1722 -1165 1722 -1100.5 1743 c 128,-1,37
 -1036 1764 -1036 1764 -969.5 1773 c 128,-1,0
 -903 1782 -903 1782 -832 1782 c 128,-1,1
EndSplineSet
EndChar

StartChar: uni0EB6
Encoding: 3766 3766 240
Width: 3
GlyphClass: 2
Flags: HW
LayerCount: 2
Fore
SplineSet
-736 1617.5 m 128,-1,1
 -766 1616 -766 1616 -799 1611.5 c 128,-1,2
 -832 1607 -832 1607 -855 1598.5 c 128,-1,3
 -878 1590 -878 1590 -898 1576 c 0,4,5
 -936 1549 -936 1549 -938 1494 c 1,6,7
 -936 1405 -936 1405 -801 1403 c 1,8,-1
 -789 1403 l 1,9,-1
 -789 1247 l 1,10,-1
 -799 1247 l 2,11,12
 -1048 1247 -1048 1247 -1123 1378 c 0,13,14
 -1151 1427 -1151 1427 -1151 1492 c 128,-1,15
 -1151 1557 -1151 1557 -1121.5 1607.5 c 128,-1,16
 -1092 1658 -1092 1658 -1045 1690 c 128,-1,17
 -998 1722 -998 1722 -934 1744 c 0,18,19
 -760 1783 -760 1783 -709 1782 c 0,20,21
 -707 1782 -707 1782 -705 1782 c 1,22,23
 -592 1782 -592 1782 -526 1773.5 c 128,-1,24
 -460 1765 -460 1765 -396 1744.5 c 128,-1,25
 -332 1724 -332 1724 -286 1692 c 0,26,27
 -182 1621 -182 1621 -182 1494 c 0,28,29
 -182 1306 -182 1306 -394 1260 c 0,30,31
 -456 1246 -456 1246 -533 1247 c 2,32,-1
 -540 1247 l 1,33,-1
 -540 1403 l 1,34,-1
 -530 1403 l 1,35,36
 -400 1409 -400 1409 -396 1494 c 1,37,38
 -396 1568 -396 1568 -478 1600 c 0,39,40
 -530 1620 -530 1620 -618 1619.5 c 128,-1,0
 -706 1619 -706 1619 -736 1617.5 c 128,-1,1
-625 1399.5 m 128,-1,42
 -642 1394 -642 1394 -665 1394 c 128,-1,43
 -688 1394 -688 1394 -710 1404 c 0,44,45
 -756 1425 -756 1425 -756 1473 c 0,46,47
 -756 1518 -756 1518 -708 1538 c 0,48,49
 -687 1546 -687 1546 -655 1546.5 c 128,-1,50
 -623 1547 -623 1547 -595.5 1526.5 c 128,-1,51
 -568 1506 -568 1506 -568 1480.5 c 128,-1,52
 -568 1455 -568 1455 -575.5 1440 c 128,-1,53
 -583 1425 -583 1425 -595.5 1415 c 128,-1,41
 -608 1405 -608 1405 -625 1399.5 c 128,-1,42
EndSplineSet
EndChar

StartChar: uni0EB7
Encoding: 3767 3767 241
Width: 3
GlyphClass: 2
Flags: HW
LayerCount: 2
Fore
SplineSet
-832 1619 m 0,0,1
 -966 1619 -966 1619 -1002.5 1605.5 c 0,2,3
 -1038 1592 -1038 1592 -1060 1579 c 0,4,5
 -1102 1553 -1102 1553 -1105 1494 c 1,6,7
 -1105 1404 -1105 1404 -969 1404 c 2,8,-1
 -957 1404 l 1,9,-1
 -957 1247 l 1,10,-1
 -966 1247 l 2,11,12
 -1215 1247 -1215 1247 -1290 1378 c 0,13,14
 -1318 1427 -1318 1427 -1318 1492 c 128,-1,15
 -1318 1557 -1318 1557 -1289 1607.5 c 128,-1,16
 -1260 1658 -1260 1658 -1212.5 1690 c 0,17,18
 -1164 1722 -1164 1722 -1100 1743 c 0,19,20
 -980 1782 -980 1782 -871 1782 c 128,-1,21
 -762 1782 -762 1782 -696 1773.5 c 128,-1,22
 -630 1765 -630 1765 -565.5 1744.5 c 128,-1,23
 -501 1724 -501 1724 -454 1693 c 0,24,25
 -348 1623 -348 1623 -348 1503 c 0,26,27
 -348 1436 -348 1436 -403 1403 c 1,28,-1
 -188 1403 l 1,29,-1
 -188 1247 l 1,30,-1
 -707 1247 l 1,31,-1
 -707 1404 l 1,32,-1
 -698 1404 l 2,33,34
 -632 1404 -632 1404 -598 1424 c 128,-1,35
 -564 1444 -564 1444 -564 1494 c 0,36,37
 -564 1619 -564 1619 -832 1619 c 0,0,1
-924 1473 m 1,38,39
 -918 1547 -918 1547 -831 1547 c 0,40,41
 -792 1546 -792 1546 -764 1526 c 0,42,43
 -738 1507 -738 1507 -738 1474 c 0,44,45
 -738 1436 -738 1436 -766 1414 c 0,46,47
 -792 1394 -792 1394 -831 1394 c 128,-1,48
 -870 1394 -870 1394 -897 1416 c 128,-1,49
 -924 1438 -924 1438 -924 1473 c 1,38,39
EndSplineSet
EndChar

StartChar: uni0EB8
Encoding: 3768 3768 242
Width: 2
GlyphClass: 2
Flags: HW
LayerCount: 2
Fore
SplineSet
-416 -394 m 0,0,1
 -555 -392 -555 -392 -555 -248 c 0,2,3
 -555 -173 -555 -173 -499 -132 c 128,-1,4
 -443 -91 -443 -91 -346 -91 c 128,-1,5
 -249 -91 -249 -91 -186 -136 c 128,-1,6
 -123 -181 -123 -181 -123 -267 c 0,7,8
 -123 -349 -123 -349 -151.5 -403 c 128,-1,9
 -180 -457 -180 -457 -202 -487.5 c 128,-1,10
 -224 -518 -224 -518 -252 -548 c 0,11,12
 -304 -601 -304 -601 -359 -643 c 1,13,-1
 -472 -544 l 1,14,15
 -385 -447 -385 -447 -347 -386 c 1,16,-1
 -376 -390 l 2,17,18
 -408 -394 -408 -394 -416 -394 c 0,0,1
-300 -248 m 0,19,20
 -300 -193 -300 -193 -363 -193 c 128,-1,21
 -426 -193 -426 -193 -426 -255 c 0,22,23
 -426 -293 -426 -293 -406.5 -304 c 128,-1,24
 -387 -315 -387 -315 -370 -315 c 2,25,-1
 -312 -315 l 1,26,27
 -300 -280 -300 -280 -300 -248 c 0,19,20
EndSplineSet
EndChar

StartChar: uni0EB9
Encoding: 3769 3769 243
Width: 2
GlyphClass: 2
Flags: HW
LayerCount: 2
Fore
SplineSet
-715.5 -285.5 m 128,-1,1
 -736 -300 -736 -300 -736 -326.5 c 128,-1,2
 -736 -353 -736 -353 -715.5 -370.5 c 128,-1,3
 -695 -388 -695 -388 -664 -388 c 2,4,-1
 -600 -388 l 1,5,-1
 -603 -324 l 2,6,7
 -603 -304 -603 -304 -623.5 -290 c 128,-1,8
 -644 -276 -644 -276 -667 -271 c 1,9,0
 -695 -271 -695 -271 -715.5 -285.5 c 128,-1,1
-480 -500 m 0,10,11
 -480 -569 -480 -569 -393 -580 c 1,12,13
 -334 -580 -334 -580 -318 -552 c 0,14,15
 -300 -522 -300 -522 -300 -492 c 2,16,-1
 -300 -151 l 1,17,-1
 -139 -151 l 1,18,-1
 -139 -418 l 2,19,20
 -139 -568 -139 -568 -195 -639 c 128,-1,21
 -251 -710 -251 -710 -389 -710 c 0,22,23
 -633 -710 -633 -710 -633 -536 c 0,24,25
 -633 -524 -633 -524 -630 -500 c 2,26,-1
 -623 -458 l 1,27,28
 -653 -488 -653 -488 -683 -488 c 0,29,30
 -764 -488 -764 -488 -817.5 -446.5 c 128,-1,31
 -871 -405 -871 -405 -871 -324 c 128,-1,32
 -871 -243 -871 -243 -815.5 -193 c 128,-1,33
 -760 -143 -760 -143 -682 -143 c 128,-1,34
 -604 -143 -604 -143 -554 -163.5 c 128,-1,35
 -504 -184 -504 -184 -474 -227.5 c 128,-1,36
 -444 -271 -444 -271 -444 -318 c 128,-1,37
 -444 -365 -444 -365 -462 -415.5 c 128,-1,38
 -480 -466 -480 -466 -480 -500 c 0,10,11
EndSplineSet
EndChar

StartChar: uni0EBB
Encoding: 3771 3771 244
Width: 2
GlyphClass: 2
Flags: HW
LayerCount: 2
Fore
SplineSet
-1185 1469 m 0,0,1
 -1185 1674 -1185 1674 -905 1699 c 0,2,3
 -850 1704 -850 1704 -778 1704 c 2,4,-1
 -578 1704 l 2,5,6
 -329 1704 -329 1704 -220.5 1599 c 128,-1,7
 -112 1494 -112 1494 -109 1247 c 1,8,-1
 -321 1247 l 1,9,10
 -321 1393 -321 1393 -336.5 1427.5 c 128,-1,11
 -352 1462 -352 1462 -367 1481.5 c 128,-1,12
 -382 1501 -382 1501 -404 1511 c 0,13,14
 -454 1533 -454 1533 -531 1533 c 2,15,-1
 -776 1533 l 1,16,-1
 -758 1476 l 2,17,18
 -748 1446 -748 1446 -748 1413 c 0,19,20
 -748 1337 -748 1337 -808 1292 c 128,-1,21
 -868 1247 -868 1247 -952 1247 c 0,22,23
 -1185 1247 -1185 1247 -1185 1469 c 0,0,1
-1023 1467 m 1,24,25
 -1023 1437 -1023 1437 -1003 1420 c 128,-1,26
 -983 1403 -983 1403 -950 1403 c 0,27,28
 -868 1403 -868 1403 -868 1471 c 2,29,-1
 -868 1533 l 1,30,-1
 -931 1533 l 1,31,32
 -1019 1525 -1019 1525 -1023 1467 c 1,24,25
EndSplineSet
EndChar

StartChar: uni0EBC
Encoding: 3772 3772 245
Width: 3
GlyphClass: 2
Flags: HW
LayerCount: 2
Fore
SplineSet
-1128 -402 m 1,0,1
 -1060 -397 -1060 -397 -1060 -332 c 2,2,-1
 -1060 -245 l 1,3,4
 -1180 -261 -1180 -261 -1181 -331 c 1,5,6
 -1175 -399 -1175 -399 -1128 -402 c 1,0,1
-365 -217 m 1,7,-1
 -368 -90 l 1,8,-1
 -368 -83 l 1,9,-1
 -172 -83 l 1,10,11
 -172 -308 -172 -308 -189 -363 c 128,-1,12
 -206 -418 -206 -418 -226 -456.5 c 0,13,14
 -246 -496 -246 -496 -274 -516 c 0,15,16
 -341 -564 -341 -564 -421 -564 c 128,-1,17
 -501 -564 -501 -564 -554.5 -545 c 128,-1,18
 -608 -526 -608 -526 -647.5 -497 c 128,-1,19
 -687 -468 -687 -468 -729 -431 c 128,-1,20
 -771 -394 -771 -394 -805 -360 c 0,21,22
 -887 -278 -887 -278 -965 -247 c 1,23,-1
 -938 -357 l 1,24,25
 -933 -385 -933 -385 -933 -411 c 0,26,27
 -933 -486 -933 -486 -983.5 -527 c 128,-1,28
 -1034 -568 -1034 -568 -1128.5 -568 c 128,-1,29
 -1223 -568 -1223 -568 -1281 -502.5 c 128,-1,30
 -1339 -437 -1339 -437 -1339 -324 c 0,31,32
 -1338 -145 -1338 -145 -1148 -97 c 0,33,34
 -1092 -83 -1092 -83 -1029 -83 c 128,-1,35
 -966 -83 -966 -83 -905.5 -103 c 128,-1,36
 -845 -123 -845 -123 -790.5 -157.5 c 128,-1,37
 -736 -192 -736 -192 -690.5 -226.5 c 128,-1,38
 -645 -261 -645 -261 -593 -303 c 128,-1,39
 -541 -345 -541 -345 -516.5 -361 c 128,-1,40
 -492 -377 -492 -377 -484.5 -380 c 128,-1,41
 -477 -383 -477 -383 -453.5 -383 c 128,-1,42
 -430 -383 -430 -383 -410.5 -370.5 c 0,43,44
 -392 -358 -392 -358 -382 -333 c 0,45,46
 -366 -290 -366 -290 -365 -217 c 1,7,-1
EndSplineSet
EndChar

StartChar: uni0EBD
Encoding: 3773 3773 246
Width: 1262
GlyphClass: 2
Flags: HW
LayerCount: 2
Fore
SplineSet
395 156 m 2,0,1
 459 156 459 156 459 212 c 0,2,3
 459 261 459 261 440.5 274.5 c 128,-1,4
 422 288 422 288 396 288 c 0,5,6
 344 288 344 288 344 182 c 2,7,-1
 344 156 l 1,8,-1
 395 156 l 2,0,1
621 219 m 0,9,10
 621 36 621 36 433 36 c 0,11,12
 409 36 409 36 344 46 c 1,13,14
 348 -140 348 -140 469 -196 c 0,15,16
 530 -224 530 -224 625 -224 c 0,17,18
 770 -224 770 -224 828 -152 c 128,-1,19
 886 -80 886 -80 886 75 c 2,20,-1
 886 370 l 2,21,22
 886 507 886 507 858 576 c 128,-1,23
 830 645 830 645 748 685 c 2,24,-1
 448 832 l 2,25,26
 419 847 419 847 401 856 c 128,-1,27
 383 865 383 865 357 880 c 128,-1,28
 331 895 331 895 315.5 908 c 128,-1,29
 300 921 300 921 281 939 c 128,-1,30
 262 957 262 957 250.5 976 c 0,31,32
 239 996 239 996 229 1020 c 0,33,34
 209 1069 209 1069 209 1135 c 0,35,36
 209 1268 209 1268 291 1341.5 c 128,-1,37
 373 1415 373 1415 512 1415 c 0,38,39
 592 1414 592 1414 704 1356 c 0,40,41
 752 1332 752 1332 798 1307 c 0,42,43
 908 1248 908 1248 981 1248 c 0,44,45
 1075 1248 1075 1248 1075 1415 c 1,46,-1
 1285 1415 l 1,47,48
 1285 1238 1285 1238 1216.5 1150 c 128,-1,49
 1148 1062 1148 1062 988 1062 c 0,50,51
 898 1062 898 1062 819 1091 c 128,-1,52
 740 1120 740 1120 704.5 1135 c 128,-1,53
 669 1150 669 1150 611 1177 c 128,-1,54
 553 1204 553 1204 533 1213 c 1,55,56
 443 1211 443 1211 443 1140 c 0,57,58
 443 1082 443 1082 532 1032 c 1,59,-1
 952 829 l 2,60,61
 1044 784 1044 784 1072 755.5 c 128,-1,62
 1100 727 1100 727 1114.5 707 c 128,-1,63
 1129 687 1129 687 1138.5 664.5 c 128,-1,64
 1148 642 1148 642 1156 614 c 0,65,66
 1170 564 1170 564 1169 479 c 2,67,-1
 1169 90 l 2,68,69
 1169 -401 1169 -401 592 -401 c 0,70,71
 264 -401 264 -401 128 -176 c 0,72,73
 60 -64 60 -64 60.5 87.5 c 128,-1,74
 61 239 61 239 146.5 328 c 128,-1,75
 232 417 232 417 378 417 c 0,76,77
 621 417 621 417 621 219 c 0,9,10
EndSplineSet
EndChar

StartChar: uni0EC0
Encoding: 3776 3776 247
Width: 744
GlyphClass: 2
Flags: HW
LayerCount: 2
Fore
SplineSet
504 382 m 0,0,1
 582 382 582 382 629.5 329.5 c 128,-1,2
 677 277 677 277 677 195 c 0,3,4
 677 0 677 0 421 0 c 0,5,6
 281 0 281 0 193.5 90.5 c 128,-1,7
 106 181 106 181 106 323 c 2,8,-1
 106 652 l 2,9,10
 106 960 106 960 222 1077 c 0,11,12
 313 1169 313 1169 486 1169 c 0,13,14
 527 1169 527 1169 549 1166 c 128,-1,15
 571 1163 571 1163 576.5 1162.5 c 128,-1,16
 582 1162 582 1162 599.5 1158.5 c 0,17,18
 617 1154 617 1154 621 1154 c 0,19,20
 655 1150 655 1150 671 1145 c 1,21,-1
 671 954 l 1,22,23
 656 956 656 956 625 963 c 0,24,25
 549 977 549 977 530 977 c 1,26,27
 498 977 498 977 480.5 972.5 c 128,-1,28
 463 968 463 968 450.5 961 c 128,-1,29
 438 954 438 954 428 940.5 c 128,-1,30
 418 927 418 927 411.5 915 c 128,-1,31
 405 903 405 903 400.5 883 c 128,-1,32
 396 863 396 863 393.5 848 c 128,-1,33
 391 833 391 833 390 808 c 0,34,35
 388 758 388 758 388 723 c 2,36,-1
 388 363 l 1,37,38
 474 382 474 382 504 382 c 0,0,1
389 246 m 2,39,40
 388 128 388 128 444 128 c 128,-1,41
 500 128 500 128 501 196 c 0,42,43
 501 261 501 261 436 261 c 2,44,-1
 389 261 l 1,45,-1
 389 246 l 2,39,40
EndSplineSet
EndChar

StartChar: uni0EC2
Encoding: 3778 3778 249
Width: 815
GlyphClass: 2
Flags: HW
LayerCount: 2
Fore
SplineSet
546 225 m 0,0,1
 546 300 546 300 472 300 c 2,2,-1
 418 300 l 1,3,-1
 418 244 l 2,4,5
 418 196 418 196 431 171.5 c 128,-1,6
 444 147 444 147 477.5 147 c 128,-1,7
 511 147 511 147 528.5 168.5 c 128,-1,8
 546 190 546 190 546 225 c 0,0,1
557 12.5 m 128,-1,10
 505 0 505 0 434.5 0 c 128,-1,11
 364 0 364 0 304.5 27 c 128,-1,12
 245 54 245 54 208 104 c 0,13,14
 135 203 135 203 135 369 c 2,15,-1
 135 1059 l 2,16,17
 135 1223 135 1223 125 1257.5 c 128,-1,18
 115 1292 115 1292 104 1319 c 0,19,20
 85 1367 85 1367 35 1410 c 2,21,-1
 -2 1443 l 1,22,23
 -86 1510 -86 1510 -106 1550 c 0,24,25
 -132 1601 -132 1601 -136 1632.5 c 128,-1,26
 -140 1664 -140 1664 -140 1707 c 128,-1,27
 -140 1750 -140 1750 -120 1800.5 c 128,-1,28
 -100 1851 -100 1851 -66 1889 c 0,29,30
 10 1974 10 1974 115 1974 c 0,31,32
 192 1974 192 1974 236 1960.5 c 128,-1,33
 280 1947 280 1947 304 1938.5 c 128,-1,34
 328 1930 328 1930 355.5 1912 c 128,-1,35
 383 1894 383 1894 400 1882.5 c 128,-1,36
 417 1871 417 1871 444 1847.5 c 128,-1,37
 471 1824 471 1824 483.5 1812 c 128,-1,38
 496 1800 496 1800 524.5 1772 c 128,-1,39
 553 1744 553 1744 565 1733 c 2,40,-1
 796 1513 l 1,41,-1
 666 1343 l 1,42,-1
 528 1480 l 1,43,44
 440 1564 440 1564 326 1659 c 1,45,46
 258 1727 258 1727 225.5 1738 c 128,-1,47
 193 1749 193 1749 166.5 1749 c 128,-1,48
 140 1749 140 1749 121.5 1725.5 c 128,-1,49
 103 1702 103 1702 103 1680.5 c 128,-1,50
 103 1659 103 1659 105 1651 c 128,-1,51
 107 1643 107 1643 112 1634.5 c 128,-1,52
 117 1626 117 1626 122 1619.5 c 128,-1,53
 127 1613 127 1613 135 1605 c 128,-1,54
 143 1597 143 1597 148.5 1592 c 128,-1,55
 154 1587 154 1587 163.5 1578.5 c 128,-1,56
 173 1570 173 1570 177 1566 c 2,57,-1
 256 1499 l 2,58,59
 317 1447 317 1447 351 1394 c 0,60,61
 418 1290 418 1290 418 1081 c 2,62,-1
 418 407 l 1,63,64
 508 431 508 431 536 431 c 0,65,66
 625 431 625 431 682 371 c 128,-1,67
 739 311 739 311 739 236.5 c 128,-1,68
 739 162 739 162 715.5 119 c 128,-1,69
 692 76 692 76 650.5 50.5 c 128,-1,9
 609 25 609 25 557 12.5 c 128,-1,10
EndSplineSet
EndChar

StartChar: uni0EC3
Encoding: 3779 3779 250
Width: 937
GlyphClass: 2
Flags: HW
LayerCount: 2
Fore
SplineSet
490 247 m 2,0,1
 490 147 490 147 553 147 c 0,2,3
 620 147 620 147 620 226 c 0,4,5
 620 262 620 262 599 281.5 c 128,-1,6
 578 301 578 301 541 301 c 2,7,-1
 490 301 l 1,8,-1
 490 247 l 2,0,1
208 1484 m 0,9,10
 327 1484 327 1484 327 1582 c 0,11,12
 327 1625 327 1625 297 1673.5 c 128,-1,13
 267 1722 267 1722 234 1735 c 1,14,-1
 424 1735 l 1,15,16
 505 1657 505 1657 505 1585 c 0,17,18
 504 1518 504 1518 480 1472 c 128,-1,19
 456 1426 456 1426 414 1396 c 0,20,21
 326 1336 326 1336 222 1336 c 128,-1,22
 118 1336 118 1336 47.5 1356 c 128,-1,23
 -23 1376 -23 1376 -78 1414 c 0,24,25
 -197 1495 -197 1495 -197 1648 c 0,26,27
 -197 2046 -197 2046 361 2046 c 0,28,29
 698 2046 698 2046 832 1908 c 0,30,31
 934 1803 934 1803 935 1608 c 0,32,33
 935 1388 935 1388 759 1224 c 0,34,35
 709 1178 709 1178 652.5 1132.5 c 128,-1,36
 596 1087 596 1087 575 1069 c 128,-1,37
 554 1051 554 1051 539.5 1032 c 128,-1,38
 525 1013 525 1013 516 988 c 128,-1,39
 507 963 507 963 501.5 942 c 0,40,41
 496 920 496 920 494 884 c 0,42,43
 490 833 490 833 490 747 c 2,44,-1
 490 406 l 1,45,46
 576 430 576 430 609 430 c 0,47,48
 698 430 698 430 756 369.5 c 128,-1,49
 814 309 814 309 814 235.5 c 128,-1,50
 814 162 814 162 790.5 118.5 c 0,51,52
 768 75 768 75 726 50 c 0,53,54
 643 0 643 0 516 0 c 0,55,56
 206 0 206 0 206 366 c 2,57,-1
 206 785 l 2,58,59
 206 952 206 952 233 1040 c 128,-1,60
 260 1128 260 1128 343 1192 c 1,61,-1
 503 1318 l 1,62,63
 646 1427 646 1427 682 1536 c 0,64,65
 698 1583 698 1583 698 1635 c 0,66,67
 698 1850 698 1850 363.5 1850 c 128,-1,68
 29 1850 29 1850 29 1637 c 0,69,70
 29 1484 29 1484 208 1484 c 0,9,10
EndSplineSet
EndChar

StartChar: uni0EC4
Encoding: 3780 3780 251
Width: 877
GlyphClass: 2
Flags: HW
LayerCount: 2
Fore
SplineSet
481 0 m 0,0,1
 325 0 325 0 246.5 98 c 128,-1,2
 168 196 168 196 168 364 c 2,3,-1
 168 971 l 2,4,5
 168 1196 168 1196 268 1329 c 0,6,7
 323 1402 323 1402 418 1488 c 2,8,-1
 501 1564 l 2,9,10
 506 1569 506 1569 526.5 1586.5 c 0,11,12
 546 1604 546 1604 554 1612 c 0,13,14
 578 1640 578 1640 578.5 1674.5 c 128,-1,15
 579 1709 579 1709 561 1728.5 c 128,-1,16
 543 1748 543 1748 503 1748 c 128,-1,17
 463 1748 463 1748 413 1722.5 c 128,-1,18
 363 1697 363 1697 319 1660.5 c 0,19,20
 274 1624 274 1624 232 1588 c 0,21,22
 130 1500 130 1500 50 1500 c 0,23,24
 -82 1500 -82 1500 -157.5 1574 c 128,-1,25
 -233 1648 -233 1648 -233 1777 c 2,26,-1
 -233 1972 l 1,27,-1
 -40 1972 l 1,28,-1
 -40 1766 l 2,29,30
 -40 1736 -40 1736 -20 1719 c 128,-1,31
 0 1702 0 1702 36 1702 c 0,32,33
 37 1702 37 1702 37 1701 c 0,34,35
 72 1701 72 1701 115 1721 c 0,36,37
 159 1741 159 1741 196 1770.5 c 128,-1,38
 233 1800 233 1800 276.5 1835 c 128,-1,39
 320 1870 320 1870 360 1900 c 0,40,41
 453 1970 453 1970 551 1969 c 0,42,43
 680 1969 680 1969 766 1870 c 0,44,45
 821 1807 821 1807 821 1724 c 0,46,47
 821 1584 821 1584 744 1501 c 1,48,-1
 630 1399 l 2,49,50
 566 1342 566 1342 530 1290 c 0,51,52
 451 1175 451 1175 451 971 c 2,53,-1
 451 403 l 1,54,55
 539 431 539 431 582.5 431 c 128,-1,56
 626 431 626 431 674 404 c 0,57,58
 774 347 774 347 774 219 c 0,59,60
 774 56 774 56 594 12 c 0,61,62
 542 0 542 0 481 0 c 0,0,1
513 148 m 0,63,64
 578 148 578 148 580 225 c 0,65,66
 580 257 580 257 561 278.5 c 128,-1,67
 542 300 542 300 510 300 c 2,68,-1
 451 300 l 1,69,-1
 451 243 l 2,70,71
 451 195 451 195 464 171.5 c 128,-1,72
 477 148 477 148 513 148 c 0,63,64
EndSplineSet
EndChar

StartChar: uni0EC6
Encoding: 3782 3782 252
Width: 1438
GlyphClass: 2
Flags: HW
LayerCount: 2
Fore
SplineSet
743 1003 m 1,0,1
 857 1172 857 1172 1034 1172 c 0,2,3
 1261 1172 1261 1172 1332 978 c 0,4,5
 1373 866 1373 866 1373 688 c 2,6,-1
 1373 218 l 2,7,8
 1373 -246 1373 -246 1074 -356 c 0,9,10
 968 -395 968 -395 818 -395 c 0,11,12
 538 -395 538 -395 380 -183 c 1,13,-1
 449 -110 l 1,14,15
 642 -212 642 -212 821 -212 c 0,16,17
 967 -212 967 -212 1026 -124 c 0,18,19
 1079 -46 1079 -46 1086 104 c 0,20,21
 1088 147 1088 147 1088 204 c 2,22,-1
 1088 778 l 1,23,-1
 1090 866 l 1,24,25
 1090 941 1090 941 1078 960 c 0,26,27
 1057 993 1057 993 1020 994 c 0,28,29
 999 994 999 994 974 983 c 0,30,31
 937 968 937 968 909.5 936 c 128,-1,32
 882 904 882 904 866 884.5 c 0,33,34
 850 866 850 866 832 850 c 0,35,36
 792 814 792 814 743 814 c 256,37,38
 692 814 692 814 660 839.5 c 128,-1,39
 628 865 628 865 609.5 884.5 c 128,-1,40
 591 904 591 904 572 923 c 0,41,42
 552 942 552 942 532 958 c 0,43,44
 465 991 465 991 427 993 c 1,45,46
 405 993 405 993 397 982 c 128,-1,47
 389 971 389 971 384.5 963 c 128,-1,48
 380 955 380 955 377 941 c 128,-1,49
 374 927 374 927 372.5 917 c 128,-1,50
 371 907 371 907 370 889 c 0,51,52
 368 853 368 853 367.5 837 c 128,-1,53
 367 821 367 821 367 816 c 1,54,55
 441 837 441 837 482 837 c 128,-1,56
 523 837 523 837 571 810 c 0,57,58
 673 753 673 753 673 626 c 0,59,60
 673 407 673 407 398 407 c 0,61,62
 254 407 254 407 169 494 c 128,-1,63
 84 581 84 581 84 726 c 0,64,65
 84 916 84 916 166 1041 c 0,66,67
 252 1172 252 1172 428 1172 c 0,68,69
 556 1172 556 1172 684 1058 c 0,70,71
 720 1026 720 1026 743 1003 c 1,0,1
381 576.5 m 0,72,73
 394 554 394 554 428 554 c 0,74,75
 494 554 494 554 495 631 c 1,76,77
 494 707 494 707 415 707 c 2,78,-1
 367 707 l 1,79,-1
 367 646 l 2,80,81
 367 599 367 599 381 576.5 c 0,72,73
EndSplineSet
EndChar

StartChar: uni0EC8
Encoding: 3784 3784 253
Width: 7
GlyphClass: 2
Flags: HW
LayerCount: 2
Fore
SplineSet
-598 1407 m 1,0,-1
 -598 1837 l 1,1,-1
 -393 1837 l 1,2,-1
 -393 1407 l 1,3,-1
 -598 1407 l 1,0,-1
EndSplineSet
EndChar

StartChar: uni0EC9
Encoding: 3785 3785 254
Width: 2
GlyphClass: 2
Flags: HW
LayerCount: 2
Fore
SplineSet
-957 1791 m 1,0,1
 -1033 1791 -1033 1791 -1033 1729 c 1,2,3
 -1028 1682 -1028 1682 -898 1677 c 1,4,-1
 -898 1690 l 1,5,6
 -905 1783 -905 1783 -957 1791 c 1,0,1
-1118.5 1617.5 m 128,-1,8
 -1170 1660 -1170 1660 -1170 1741 c 128,-1,9
 -1170 1822 -1170 1822 -1112.5 1872 c 128,-1,10
 -1055 1922 -1055 1922 -953 1922 c 128,-1,11
 -851 1922 -851 1922 -789 1865.5 c 128,-1,12
 -727 1809 -727 1809 -727 1703 c 0,13,14
 -727 1647 -727 1647 -747 1616 c 128,-1,15
 -767 1585 -767 1585 -811 1557 c 1,16,-1
 -839 1542 l 1,17,-1
 -575 1542 l 2,18,19
 -438 1542 -438 1542 -392.5 1560 c 128,-1,20
 -347 1578 -347 1578 -328 1597 c 128,-1,21
 -309 1616 -309 1616 -296 1653 c 0,22,23
 -277 1707 -277 1707 -273 1847 c 1,24,-1
 -64 1847 l 1,25,-1
 -64 1767 l 2,26,27
 -64 1556 -64 1556 -160 1472 c 0,28,29
 -226 1414 -226 1414 -304 1399 c 0,30,31
 -426 1376 -426 1376 -577 1376 c 2,32,-1
 -1134 1376 l 1,33,-1
 -1134 1455 l 1,34,35
 -1114 1463 -1114 1463 -1080 1472 c 128,-1,36
 -1046 1481 -1046 1481 -1023 1488 c 0,37,38
 -1000 1496 -1000 1496 -975 1508 c 0,39,40
 -925 1533 -925 1533 -911 1586 c 1,41,42
 -939 1575 -939 1575 -1003 1575 c 128,-1,7
 -1067 1575 -1067 1575 -1118.5 1617.5 c 128,-1,8
EndSplineSet
EndChar

StartChar: uni0ECA
Encoding: 3786 3786 255
Width: 4
GlyphClass: 2
Flags: HW
LayerCount: 2
Fore
SplineSet
-399.5 1727.5 m 128,-1,1
 -347 1681 -347 1681 -347 1595.5 c 128,-1,2
 -347 1510 -347 1510 -422 1478 c 1,3,-1
 -237 1478 l 1,4,-1
 -237 1384 l 1,5,-1
 -616 1384 l 1,6,-1
 -616 1479 l 1,7,8
 -502 1481 -502 1481 -502 1575 c 0,9,10
 -502 1646 -502 1646 -575 1646 c 0,11,12
 -625 1646 -625 1646 -653 1575 c 1,13,-1
 -764 1575 l 1,14,-1
 -773 1598 l 1,15,16
 -799 1646 -799 1646 -853 1646 c 0,17,18
 -883 1646 -883 1646 -904 1625.5 c 128,-1,19
 -925 1605 -925 1605 -925 1575 c 0,20,21
 -925 1479 -925 1479 -813 1479 c 1,22,-1
 -813 1385 l 1,23,24
 -960 1385 -960 1385 -1026 1469 c 0,25,26
 -1060 1513 -1060 1513 -1060.5 1588.5 c 128,-1,27
 -1061 1664 -1061 1664 -1015.5 1719 c 128,-1,28
 -970 1774 -970 1774 -895 1774 c 0,29,30
 -750 1774 -750 1774 -709 1664 c 1,31,32
 -680 1731 -680 1731 -612 1759 c 0,33,34
 -576 1774 -576 1774 -514 1774 c 128,-1,0
 -452 1774 -452 1774 -399.5 1727.5 c 128,-1,1
EndSplineSet
EndChar

StartChar: uni0ECB
Encoding: 3787 3787 256
Width: 10
GlyphClass: 2
Flags: HW
LayerCount: 2
Fore
SplineSet
-630 1384 m 1,0,-1
 -751 1384 l 1,1,-1
 -751 1503 l 1,2,-1
 -871 1503 l 1,3,-1
 -871 1615 l 1,4,-1
 -751 1615 l 1,5,-1
 -751 1735 l 1,6,-1
 -630 1735 l 1,7,-1
 -630 1615 l 1,8,-1
 -509 1615 l 1,9,-1
 -509 1503 l 1,10,-1
 -630 1503 l 1,11,-1
 -630 1384 l 1,0,-1
EndSplineSet
EndChar

StartChar: uni0ECC
Encoding: 3788 3788 257
Width: 4
GlyphClass: 2
Flags: HW
LayerCount: 2
Fore
SplineSet
-642 1483 m 0,0,1
 -804 1483 -804 1483 -804 1665 c 0,2,3
 -804 1859 -804 1859 -561 1859 c 2,4,-1
 -429 1859 l 2,5,6
 -385 1859 -385 1859 -368 1876.5 c 128,-1,7
 -351 1894 -351 1894 -351 1939 c 1,8,-1
 -204 1939 l 1,9,10
 -208 1806 -208 1806 -259 1751.5 c 128,-1,11
 -310 1697 -310 1697 -439 1697 c 2,12,-1
 -513 1697 l 1,13,-1
 -495 1635 l 1,14,15
 -491 1628 -491 1628 -491 1600 c 0,16,17
 -491 1545 -491 1545 -534.5 1514 c 128,-1,18
 -578 1483 -578 1483 -642 1483 c 0,0,1
-639 1590 m 256,19,20
 -579 1590 -579 1590 -579 1642 c 2,21,-1
 -579 1697 l 1,22,-1
 -615 1697 l 2,23,24
 -661 1697 -661 1697 -681 1686.5 c 128,-1,25
 -701 1676 -701 1676 -701 1650.5 c 0,26,27
 -701 1626 -701 1626 -693 1614 c 0,28,29
 -677 1590 -677 1590 -639 1590 c 256,19,20
EndSplineSet
EndChar

StartChar: uni0ECD
Encoding: 3789 3789 258
Width: 8
GlyphClass: 2
Flags: HW
LayerCount: 2
Fore
SplineSet
-685 1575 m 256,0,1
 -646 1575 -646 1575 -620.5 1600.5 c 128,-1,2
 -595 1626 -595 1626 -595 1658 c 0,3,4
 -594 1690 -594 1690 -606 1710 c 0,5,6
 -643 1747 -643 1747 -677 1754 c 1,7,8
 -724 1754 -724 1754 -750.5 1728.5 c 128,-1,9
 -777 1703 -777 1703 -777 1665 c 256,10,11
 -777 1627 -777 1627 -750.5 1601 c 128,-1,12
 -724 1575 -724 1575 -685 1575 c 256,0,1
-517 1826 m 128,-1,14
 -449 1760 -449 1760 -449 1662.5 c 128,-1,15
 -449 1565 -449 1565 -517.5 1499.5 c 128,-1,16
 -586 1434 -586 1434 -685.5 1434 c 128,-1,17
 -785 1434 -785 1434 -853 1499 c 128,-1,18
 -921 1564 -921 1564 -921 1662 c 128,-1,19
 -921 1760 -921 1760 -852.5 1826 c 128,-1,20
 -784 1892 -784 1892 -684.5 1892 c 128,-1,13
 -585 1892 -585 1892 -517 1826 c 128,-1,14
EndSplineSet
EndChar

StartChar: uni0ED0
Encoding: 3792 3792 259
Width: 1289
GlyphClass: 2
Flags: HW
LayerCount: 2
Fore
SplineSet
79 644 m 0,0,1
 79 745 79 745 104 839.5 c 128,-1,2
 129 934 129 934 178 1011 c 128,-1,3
 227 1088 227 1088 295 1145 c 128,-1,4
 363 1202 363 1202 453 1233 c 128,-1,5
 543 1264 543 1264 647 1264 c 128,-1,6
 751 1264 751 1264 841.5 1233 c 128,-1,7
 932 1202 932 1202 1000 1145 c 128,-1,8
 1068 1088 1068 1088 1117 1011 c 0,9,10
 1216 855 1216 855 1216 640 c 0,11,12
 1216 281 1216 281 1010 107 c 0,13,14
 869 -12 869 -12 647 -12 c 0,15,16
 374 -12 374 -12 222 170 c 0,17,18
 79 342 79 342 79 644 c 0,0,1
306 634 m 0,19,20
 306 544 306 544 327 465 c 128,-1,21
 348 386 348 386 389 324 c 128,-1,22
 430 262 430 262 496 226.5 c 128,-1,23
 562 191 562 191 647 191 c 128,-1,24
 732 191 732 191 798.5 226.5 c 128,-1,25
 865 262 865 262 906 324 c 0,26,27
 989 450 989 450 989 637 c 0,28,29
 988 814 988 814 904 934 c 0,30,31
 815 1060 815 1060 647 1059 c 1,32,33
 480 1060 480 1060 390 934 c 0,34,35
 306 814 306 814 306 634 c 0,19,20
EndSplineSet
EndChar

StartChar: uni0ED1
Encoding: 3793 3793 260
Width: 1382
GlyphClass: 2
Flags: HW
LayerCount: 2
Fore
SplineSet
935 639 m 0,0,1
 935 409 935 409 613 409 c 0,2,3
 353 409 353 409 195 542 c 0,4,5
 84 636 84 636 84 784 c 0,6,7
 84 1019 84 1019 254 1145 c 0,8,9
 416 1265 416 1265 665 1265 c 0,10,11
 1084 1265 1084 1265 1268 997 c 0,12,13
 1360 862 1360 862 1360 669 c 0,14,15
 1360 412 1360 412 1196 234 c 0,16,17
 1036 60 1036 60 792 -2 c 0,18,19
 672 -33 672 -33 544 -33 c 1,20,-1
 544 122 l 1,21,22
 720 132 720 132 856 232 c 0,23,24
 996 335 996 335 1048 491 c 0,25,26
 1076 573 1076 573 1076 662 c 0,27,28
 1076 850 1076 850 969.5 954 c 128,-1,29
 863 1058 863 1058 673 1058 c 0,30,31
 367 1058 367 1058 367 784 c 0,32,33
 367 636 367 636 496 584 c 1,34,35
 480 633 480 633 480 656 c 0,36,37
 480 850 480 850 712 850 c 0,38,39
 852 850 852 850 908 754 c 0,40,41
 936 706 936 706 935 639 c 0,0,1
694 718 m 1,42,43
 629 718 629 718 629 644 c 2,44,-1
 629 565 l 1,45,46
 758 571 758 571 758 649 c 0,47,48
 758 716 758 716 694 718 c 1,42,43
EndSplineSet
EndChar

StartChar: uni0ED2
Encoding: 3794 3794 261
Width: 1454
GlyphClass: 2
Flags: HW
LayerCount: 2
Fore
SplineSet
839 586 m 1,0,1
 759 580 759 580 743 566 c 0,2,3
 713 541 713 541 713 504 c 1,4,5
 720 439 720 439 774 434 c 1,6,7
 839 434 839 434 839 505 c 2,8,-1
 839 586 l 1,0,1
378 456 m 0,9,10
 378 177 378 177 763.5 177 c 128,-1,11
 1149 177 1149 177 1149 400 c 0,12,13
 1150 514 1150 514 1040 562 c 0,14,15
 1008 576 1008 576 969 583 c 1,16,17
 990 510 990 510 990 502 c 0,18,19
 990 302 990 302 754 302 c 0,20,21
 657 302 657 302 595.5 357 c 128,-1,22
 534 412 534 412 534 490.5 c 128,-1,23
 534 569 534 569 564.5 618.5 c 128,-1,24
 595 668 595 668 647 697 c 0,25,26
 751 755 751 755 897 755 c 0,27,28
 1173 754 1173 754 1321 632 c 0,29,30
 1431 541 1431 541 1431 390 c 0,31,32
 1430 97 1430 97 1026 23 c 0,33,34
 900 0 900 0 767.5 0 c 128,-1,35
 635 0 635 0 544 15 c 128,-1,36
 453 30 453 30 370.5 63.5 c 128,-1,37
 288 97 288 97 228 146 c 0,38,39
 96 253 96 253 95 434 c 0,40,41
 94 606 94 606 186 732 c 0,42,43
 272 852 272 852 406 938 c 0,44,45
 544 1027 544 1027 638 1081 c 0,46,47
 816 1184 816 1184 892 1266 c 0,48,49
 937 1314 937 1314 959.5 1363.5 c 128,-1,50
 982 1413 982 1413 982 1485 c 1,51,-1
 1194 1485 l 1,52,53
 1194 1308 1194 1308 1115 1183 c 0,54,55
 1043 1068 1043 1068 922 985 c 0,56,57
 809 907 809 907 718 853 c 0,58,59
 459 698 459 698 400 572 c 0,60,61
 378 524 378 524 378 456 c 0,9,10
EndSplineSet
EndChar

StartChar: uni0ED3
Encoding: 3795 3795 262
Width: 1717
GlyphClass: 2
Flags: HW
LayerCount: 2
Fore
SplineSet
245 300 m 1,0,1
 182 295 182 295 182 229 c 128,-1,2
 182 163 182 163 267 151 c 1,3,-1
 311 147 l 1,4,-1
 311 202 l 2,5,6
 311 300 311 300 245 300 c 1,0,1
238 431 m 0,7,8
 460 431 460 431 460 238 c 0,9,10
 460 212 460 212 448 176 c 1,11,12
 573 250 573 250 573 505 c 2,13,-1
 573 1170 l 1,14,-1
 856 1170 l 1,15,-1
 856 512 l 2,16,17
 856 258 856 258 990 200 c 0,18,19
 1042 178 1042 178 1116 177 c 0,20,21
 1251 177 1251 177 1306.5 250 c 128,-1,22
 1362 323 1362 323 1362 474 c 2,23,-1
 1362 861 l 2,24,25
 1362 1009 1362 1009 1278 1106 c 0,26,27
 1204 1192 1204 1192 1086 1262 c 0,28,29
 1028 1296 1028 1296 976 1324 c 0,30,31
 844 1396 844 1396 798 1442 c 128,-1,32
 752 1488 752 1488 738 1520.5 c 128,-1,33
 724 1553 724 1553 724 1601 c 0,34,35
 724 1735 724 1735 803.5 1809.5 c 128,-1,36
 883 1884 883 1884 1020 1884 c 0,37,38
 1113 1884 1113 1884 1205 1836 c 0,39,40
 1299 1787 1299 1787 1344 1750 c 0,41,42
 1443 1672 1443 1672 1481 1643 c 2,43,-1
 1604 1548 l 1,44,-1
 1487 1400 l 1,45,-1
 1360 1495 l 2,46,47
 1342 1508 1342 1508 1306 1536 c 128,-1,48
 1270 1564 1270 1564 1248.5 1580 c 128,-1,49
 1227 1596 1227 1596 1193.5 1618.5 c 128,-1,50
 1160 1641 1160 1641 1134 1653 c 0,51,52
 1070 1683 1070 1683 1019 1683 c 256,53,54
 991 1683 991 1683 970 1666 c 128,-1,55
 949 1649 949 1649 949 1629 c 128,-1,56
 949 1609 949 1609 957.5 1595 c 128,-1,57
 966 1581 966 1581 976.5 1570 c 128,-1,58
 987 1559 987 1559 1005.5 1546 c 128,-1,59
 1024 1533 1024 1533 1035 1526.5 c 128,-1,60
 1046 1520 1046 1520 1066 1508.5 c 128,-1,61
 1086 1497 1086 1497 1103 1486.5 c 128,-1,62
 1120 1476 1120 1476 1177.5 1443.5 c 128,-1,63
 1235 1411 1235 1411 1272.5 1389.5 c 128,-1,64
 1310 1368 1310 1368 1363 1332 c 128,-1,65
 1416 1296 1416 1296 1451 1266 c 128,-1,66
 1486 1236 1486 1236 1525 1192 c 128,-1,67
 1564 1148 1564 1148 1586 1104 c 0,68,69
 1638 1000 1638 1000 1639 880 c 2,70,-1
 1639 497 l 2,71,72
 1639 244 1639 244 1510 122 c 128,-1,73
 1381 0 1381 0 1119 0 c 0,74,75
 910 0 910 0 794 114 c 0,76,77
 735 172 735 172 720 250 c 1,78,79
 689 132 689 132 574 66 c 128,-1,80
 459 0 459 0 301 0 c 128,-1,81
 143 0 143 0 62 78 c 0,82,83
 5 133 5 133 5 229.5 c 128,-1,84
 5 326 5 326 68.5 378.5 c 128,-1,85
 132 431 132 431 238 431 c 0,7,8
EndSplineSet
EndChar

StartChar: uni0ED4
Encoding: 3796 3796 263
Width: 1475
GlyphClass: 2
Flags: HW
LayerCount: 2
Fore
SplineSet
1132 803 m 0,0,1
 1065 803 1065 803 1062 725 c 1,2,-1
 1062 720 l 1,3,4
 1061 719 1061 719 1061 710 c 128,-1,5
 1061 701 1061 701 1065 649 c 1,6,-1
 1116 649 l 2,7,8
 1191 649 1191 649 1191 726 c 128,-1,9
 1191 803 1191 803 1132 803 c 0,0,1
863 862.5 m 128,-1,11
 948 949 948 949 1087.5 949 c 128,-1,12
 1227 949 1227 949 1296.5 896.5 c 128,-1,13
 1366 844 1366 844 1367 725 c 1,14,15
 1367 602 1367 602 1268 544 c 0,16,17
 1221 516 1221 516 1171 516 c 128,-1,18
 1121 516 1121 516 1093 530 c 1,19,20
 1134 420 1134 420 1224.5 344.5 c 128,-1,21
 1315 269 1315 269 1441 243 c 1,22,-1
 1403 -2 l 1,23,-1
 720 -2 l 2,24,25
 237 -2 237 -2 126 292 c 0,26,27
 95 374 95 374 95 477 c 128,-1,28
 95 580 95 580 103.5 657 c 128,-1,29
 112 734 112 734 132 799 c 128,-1,30
 152 864 152 864 186 913 c 0,31,32
 254 1011 254 1011 385 1071 c 1,33,-1
 822 1274 l 1,34,35
 922 1319 922 1319 1020 1446 c 0,36,37
 1036 1466 1036 1466 1062 1500 c 1,38,-1
 1238 1353 l 1,39,40
 1208 1311 1208 1311 1192 1288 c 128,-1,41
 1176 1265 1176 1265 1146 1227.5 c 128,-1,42
 1116 1190 1116 1190 1092 1167 c 0,43,44
 1028 1107 1028 1107 964 1078 c 2,45,-1
 552 885 l 1,46,47
 422 822 422 822 394 698 c 0,48,49
 376 620 376 620 376.5 473.5 c 128,-1,50
 377 327 377 327 448.5 252 c 128,-1,51
 520 177 520 177 673 177 c 2,52,-1
 1096 177 l 1,53,-1
 1043 208 l 1,54,55
 935 270 935 270 859 371 c 0,56,57
 778 479 778 479 778 627.5 c 128,-1,10
 778 776 778 776 863 862.5 c 128,-1,11
EndSplineSet
EndChar

StartChar: uni0ED5
Encoding: 3797 3797 264
Width: 1477
GlyphClass: 2
Flags: HW
LayerCount: 2
Fore
SplineSet
1100 649 m 2,0,1
 1192 649 1192 649 1192 725 c 128,-1,2
 1192 801 1192 801 1133 801 c 0,3,4
 1062 801 1062 801 1062 702 c 0,5,6
 1062 675 1062 675 1065 649 c 1,7,-1
 1100 649 l 2,0,1
668 1238 m 0,8,9
 668 1290 668 1290 597.5 1290 c 128,-1,10
 527 1290 527 1290 527 1229 c 128,-1,11
 527 1168 527 1168 603 1168 c 0,12,13
 631 1168 631 1168 649.5 1188.5 c 128,-1,14
 668 1209 668 1209 668 1238 c 0,8,9
361 1246 m 256,15,16
 361 1343 361 1343 432 1396.5 c 128,-1,17
 503 1450 503 1450 607.5 1450 c 128,-1,18
 712 1450 712 1450 765 1399 c 128,-1,19
 818 1348 818 1348 836 1249 c 1,20,21
 885 1271 885 1271 917 1303.5 c 128,-1,22
 949 1336 949 1336 959.5 1347 c 128,-1,23
 970 1358 970 1358 988 1380.5 c 128,-1,24
 1006 1403 1006 1403 1012.5 1411 c 128,-1,25
 1019 1419 1019 1419 1037.5 1443.5 c 128,-1,26
 1056 1468 1056 1468 1060 1472 c 1,27,-1
 1237 1330 l 1,28,29
 1146 1137 1146 1137 964 1050 c 1,30,31
 929 1029 929 1029 889 1022.5 c 128,-1,32
 849 1016 849 1016 809 1010.5 c 128,-1,33
 769 1005 769 1005 744 1001 c 1,34,35
 659 921 659 921 570 890 c 1,36,37
 498 856 498 856 458 815 c 0,38,39
 378 735 378 735 378 546 c 0,40,41
 378 266 378 266 532 202 c 0,42,43
 590 178 590 178 674 177 c 2,44,-1
 1097 177 l 1,45,-1
 1045 208 l 1,46,47
 779 368 779 368 779 634 c 0,48,49
 780 834 780 834 930 912 c 0,50,51
 1002 950 1002 950 1100 949 c 0,52,53
 1368 949 1368 949 1368 726 c 0,54,55
 1368 636 1368 636 1310.5 576 c 128,-1,56
 1253 516 1253 516 1165 516 c 0,57,58
 1121 516 1121 516 1092 530 c 1,59,60
 1130 423 1130 423 1226 344 c 128,-1,61
 1322 265 1322 265 1443 243 c 1,62,-1
 1404 0 l 1,63,-1
 651 0 l 2,64,65
 403 0 403 0 252 117 c 0,66,67
 95 238 95 238 95 474 c 0,68,69
 95 685 95 685 122.5 781 c 128,-1,70
 150 877 150 877 184 925 c 0,71,72
 252 1020 252 1020 394 1075 c 1,73,-1
 420 1084 l 1,74,75
 361 1149 361 1149 361 1246 c 256,15,16
EndSplineSet
EndChar

StartChar: uni0ED6
Encoding: 3798 3798 265
Width: 1531
GlyphClass: 2
Flags: HW
LayerCount: 2
Fore
SplineSet
531 950 m 128,-1,1
 531 1023 531 1023 463 1023 c 1,2,3
 401 1021 401 1021 401 922 c 2,4,-1
 401 870 l 1,5,-1
 439 870 l 1,6,0
 531 877 531 877 531 950 c 128,-1,1
963 1585 m 1,7,8
 884 1583 884 1583 884 1526 c 0,9,10
 884 1452 884 1452 1057 1353 c 0,11,12
 1097 1330 1097 1330 1138 1308 c 0,13,14
 1351 1194 1351 1194 1427 988 c 0,15,16
 1488 822 1488 822 1488 517 c 2,17,-1
 1488 490 l 1,18,19
 1484 201 1484 201 1366 87 c 0,20,21
 1276 0 1276 0 1116 0 c 1,22,23
 838 0 838 0 795 228 c 1,24,25
 779 117 779 117 701.5 58.5 c 128,-1,26
 624 0 624 0 507.5 0 c 128,-1,27
 391 0 391 0 317 34.5 c 0,28,29
 244 69 244 69 200 135 c 0,30,31
 118 260 118 260 117 491 c 2,32,-1
 117 809 l 2,33,34
 118 1033 118 1033 254 1124 c 0,35,36
 324 1171 324 1171 415.5 1171 c 128,-1,37
 507 1171 507 1171 569 1148.5 c 128,-1,38
 631 1126 631 1126 669 1076.5 c 128,-1,39
 707 1027 707 1027 707 942.5 c 128,-1,40
 707 858 707 858 651.5 799 c 128,-1,41
 596 740 596 740 501 740 c 0,42,43
 467 740 467 740 401 762 c 1,44,-1
 401 406 l 2,45,46
 401 267 401 267 432 222 c 128,-1,47
 463 177 463 177 528 177 c 0,48,49
 656 177 656 177 656 429 c 2,50,-1
 656 590 l 1,51,-1
 939 590 l 1,52,-1
 939 405 l 2,53,54
 939 177 939 177 1077 177 c 0,55,56
 1138 177 1138 177 1164 217 c 0,57,58
 1192 258 1192 258 1197 303 c 0,59,60
 1205 373 1205 373 1205 441 c 2,61,-1
 1205 501 l 2,62,63
 1205 718 1205 718 1195 780.5 c 128,-1,64
 1185 843 1185 843 1175.5 885 c 128,-1,65
 1166 927 1166 927 1151.5 958 c 0,66,67
 1138 989 1138 989 1118 1021 c 0,68,69
 1082 1079 1082 1079 1033.5 1114 c 128,-1,70
 985 1149 985 1149 947 1171 c 128,-1,71
 909 1193 909 1193 878 1210.5 c 128,-1,72
 847 1228 847 1228 811.5 1251 c 128,-1,73
 776 1274 776 1274 749.5 1299 c 0,74,75
 722 1324 722 1324 700 1356 c 0,76,77
 654 1421 654 1421 654 1532.5 c 128,-1,78
 654 1644 654 1644 735.5 1715.5 c 128,-1,79
 817 1787 817 1787 949 1787 c 0,80,81
 1134 1787 1134 1787 1295 1652 c 0,82,83
 1320 1631 1320 1631 1361 1595 c 1,84,-1
 1488 1479 l 1,85,-1
 1361 1357 l 1,86,-1
 1241 1444 l 2,87,88
 1225 1455 1225 1455 1195.5 1478.5 c 128,-1,89
 1166 1502 1166 1502 1145.5 1517 c 128,-1,90
 1125 1532 1125 1532 1097 1548 c 0,91,92
 1040 1582 1040 1582 980 1582 c 0,93,94
 970 1582 970 1582 963 1585 c 1,7,8
EndSplineSet
EndChar

StartChar: uni0ED7
Encoding: 3799 3799 266
Width: 1499
GlyphClass: 2
Flags: HW
LayerCount: 2
Fore
SplineSet
328 300 m 2,0,1
 254 300 254 300 254 225.5 c 128,-1,2
 254 151 254 151 316 148 c 1,3,4
 366 148 366 148 377 192 c 0,5,6
 382 212 382 212 382 245 c 2,7,-1
 382 300 l 1,8,-1
 328 300 l 2,0,1
320 1026 m 1,9,10
 251 1026 251 1026 251 951 c 128,-1,11
 251 876 251 876 326 876 c 0,12,13
 330 876 330 876 382 887 c 1,14,-1
 382 929 l 2,15,16
 382 1022 382 1022 320 1026 c 1,9,10
664 876 m 1,17,-1
 667 830 l 1,18,-1
 667 352 l 2,19,20
 667 191 667 191 583.5 95.5 c 128,-1,21
 500 0 500 0 346 0 c 0,22,23
 77 0 77 0 77 229 c 0,24,25
 77 320 77 320 136.5 375.5 c 128,-1,26
 196 431 196 431 290 431 c 0,27,28
 301 431 301 431 382 407 c 1,29,-1
 382 744 l 1,30,31
 356 740 356 740 327 740 c 0,32,33
 215 740 215 740 143.5 796.5 c 128,-1,34
 72 853 72 853 72 956 c 0,35,36
 72 1082 72 1082 184 1137 c 0,37,38
 251 1170 251 1170 332 1170 c 0,39,40
 412 1170 412 1170 464 1153 c 0,41,42
 554 1123 554 1123 619 1031 c 1,43,44
 781 1138 781 1138 888 1160 c 0,45,46
 938 1170 938 1170 993 1170 c 0,47,48
 1428 1170 1428 1170 1428 696 c 2,49,-1
 1428 175 l 2,50,51
 1428 15 1428 15 1475 -170 c 1,52,-1
 1195 -170 l 1,53,54
 1145 -16 1145 -16 1145 162 c 2,55,-1
 1145 701 l 2,56,57
 1145 830 1145 830 1131.5 869.5 c 128,-1,58
 1118 909 1118 909 1104.5 930 c 0,59,60
 1092 952 1092 952 1072 964 c 0,61,62
 1012 989 1012 989 982 991 c 1,63,64
 936 991 936 991 911.5 988 c 128,-1,65
 887 985 887 985 863 977 c 128,-1,66
 839 969 839 969 821 962.5 c 128,-1,67
 803 956 803 956 778.5 943 c 128,-1,68
 754 930 754 930 741 922.5 c 128,-1,69
 728 915 728 915 701 898.5 c 128,-1,70
 674 882 674 882 664 876 c 1,17,-1
EndSplineSet
EndChar

StartChar: uni0ED8
Encoding: 3800 3800 267
Width: 1558
GlyphClass: 2
Flags: HW
LayerCount: 2
Fore
SplineSet
1219 757 m 2,0,1
 1219 879 1219 879 1205.5 909 c 0,2,3
 1192 938 1192 938 1179 956 c 0,4,5
 1153 990 1153 990 1106 990.5 c 128,-1,6
 1059 991 1059 991 1032 979.5 c 128,-1,7
 1005 968 1005 968 988.5 948 c 128,-1,8
 972 928 972 928 962 898 c 0,9,10
 944 847 944 847 944 757 c 2,11,-1
 944 556 l 1,12,-1
 661 556 l 1,13,-1
 661 757 l 2,14,15
 661 954 661 954 571 984 c 0,16,17
 549 992 549 992 517 991.5 c 128,-1,18
 485 991 485 991 459 980 c 128,-1,19
 433 969 433 969 417.5 950 c 128,-1,20
 402 931 402 931 393 901 c 0,21,22
 378 851 378 851 378 765 c 2,23,-1
 378 410 l 1,24,25
 445 432 445 432 478 432 c 0,26,27
 569 432 569 432 627.5 370.5 c 128,-1,28
 686 309 686 309 686 216 c 0,29,30
 686 0 686 0 407 0 c 0,31,32
 314 0 314 0 242 44 c 0,33,34
 96 133 96 133 95 334 c 2,35,-1
 95 681 l 2,36,37
 95 1170 95 1170 484 1170 c 0,38,39
 758 1170 758 1170 805 942 c 1,40,41
 847 1170 847 1170 1119 1170 c 0,42,43
 1326 1170 1326 1170 1416 1042 c 0,44,45
 1502 920 1502 920 1503 692 c 2,46,-1
 1503 247 l 2,47,48
 1502 76 1502 76 1450 -20 c 0,49,50
 1399 -114 1399 -114 1292 -178 c 2,51,-1
 1097 -297 l 1,52,53
 1170 -364 1170 -364 1182 -420 c 0,54,55
 1188 -448 1188 -448 1188 -492 c 128,-1,56
 1188 -536 1188 -536 1157 -576 c 0,57,58
 1095 -654 1095 -654 977 -654 c 0,59,60
 897 -654 897 -654 843 -608.5 c 128,-1,61
 789 -563 789 -563 762 -489 c 1,62,-1
 621 -568 l 2,63,64
 546 -610 546 -610 486.5 -631.5 c 128,-1,65
 427 -653 427 -653 357 -653 c 0,66,67
 247 -653 247 -653 172 -585.5 c 128,-1,68
 97 -518 97 -518 97 -412 c 0,69,70
 97 -304 97 -304 141 -244 c 0,71,72
 174 -200 174 -200 205 -181.5 c 128,-1,73
 236 -163 236 -163 254.5 -153.5 c 128,-1,74
 273 -144 273 -144 305 -133 c 0,75,76
 356 -116 356 -116 417 -99 c 2,77,-1
 1216 124 l 1,78,79
 1219 170 1219 170 1219 243 c 2,80,-1
 1219 757 l 2,0,1
509 225 m 1,81,82
 509 300 509 300 428 300 c 2,83,-1
 378 300 l 1,84,-1
 378 248 l 1,85,86
 385 152 385 152 440 147 c 1,87,88
 504 156 504 156 509 225 c 1,81,82
781 -285 m 1,89,90
 833 -228 833 -228 863 -213 c 2,91,-1
 1068 -112 l 1,92,93
 1114 -86 1114 -86 1122 -81 c 2,94,-1
 1148 -64 l 1,95,-1
 420 -286 l 2,96,97
 417 -287 417 -287 402.5 -291 c 128,-1,98
 388 -295 388 -295 383.5 -296.5 c 128,-1,99
 379 -298 379 -298 366.5 -302.5 c 128,-1,100
 354 -307 354 -307 349 -309.5 c 128,-1,101
 344 -312 344 -312 333.5 -317 c 128,-1,102
 323 -322 323 -322 318.5 -326.5 c 128,-1,103
 314 -331 314 -331 306.5 -338 c 0,104,105
 298 -346 298 -346 296 -352 c 0,106,107
 288 -372 288 -372 289 -386 c 1,108,109
 298 -455 298 -455 367 -460 c 1,110,111
 458 -460 458 -460 582 -392 c 0,112,113
 630 -366 630 -366 690 -332.5 c 128,-1,114
 750 -299 750 -299 781 -285 c 1,89,90
1035 -467 m 0,115,116
 1035 -401 1035 -401 973 -401 c 0,117,118
 935 -401 935 -401 921 -416 c 128,-1,119
 907 -431 907 -431 907 -455.5 c 128,-1,120
 907 -480 907 -480 915 -493 c 0,121,122
 933 -522 933 -522 964 -522 c 128,-1,123
 995 -522 995 -522 1015 -507.5 c 128,-1,124
 1035 -493 1035 -493 1035 -467 c 0,115,116
EndSplineSet
EndChar

StartChar: uni0ED9
Encoding: 3801 3801 268
Width: 1593
GlyphClass: 2
Flags: HW
LayerCount: 2
Fore
SplineSet
447 147 m 0,0,1
 510 147 510 147 510 223.5 c 128,-1,2
 510 300 510 300 438 300 c 2,3,-1
 378 300 l 1,4,-1
 378 240 l 2,5,6
 378 193 378 193 393 170 c 128,-1,7
 408 147 408 147 447 147 c 0,0,1
549 991 m 0,8,9
 378 991 378 991 378 788 c 2,10,-1
 378 407 l 1,11,12
 427 430 427 430 477 430 c 0,13,14
 571 430 571 430 629 372 c 128,-1,15
 687 314 687 314 687 209 c 0,16,17
 687 0 687 0 409 0 c 0,18,19
 257 0 257 0 176 96 c 128,-1,20
 95 192 95 192 95 353 c 2,21,-1
 95 743 l 2,22,23
 95 952 95 952 217.5 1061 c 128,-1,24
 340 1170 340 1170 562 1170 c 128,-1,25
 784 1170 784 1170 896 1064.5 c 128,-1,26
 1008 959 1008 959 1008 740 c 2,27,-1
 1008 411 l 2,28,29
 1008 237 1008 237 1070 195 c 0,30,31
 1096 177 1096 177 1133.5 177 c 128,-1,32
 1171 177 1171 177 1195.5 190.5 c 128,-1,33
 1220 204 1220 204 1233 223.5 c 0,34,35
 1246 242 1246 242 1254 276 c 0,36,37
 1266 327 1266 327 1265 411 c 2,38,-1
 1265 1170 l 1,39,-1
 1548 1170 l 1,40,-1
 1548 454 l 2,41,42
 1548 106 1548 106 1335 28 c 0,43,44
 1258 0 1258 0 1148 0 c 0,45,46
 934 0 934 0 829.5 94 c 128,-1,47
 725 188 725 188 725 391 c 2,48,-1
 725 783 l 2,49,50
 725 991 725 991 549 991 c 0,8,9
EndSplineSet
EndChar

